<?xml version="1.0" standalone="no"?>
<!DOCTYPE svg PUBLIC "-//W3C//DTD SVG 20010904//EN"
 "http://www.w3.org/TR/2001/REC-SVG-20010904/DTD/svg10.dtd">
<svg version="1.0" xmlns="http://www.w3.org/2000/svg"
 width="788.000000pt" height="788.000000pt" viewBox="0 0 788.000000 788.000000"
 preserveAspectRatio="xMidYMid meet">
<metadata>
Created by potrace 1.11, written by Peter Selinger 2001-2013
</metadata>
<g transform="translate(0.000000,788.000000) scale(0.100000,-0.100000)"
fill="#000000" stroke="none">
<path d="M1473 3938 l0 -3938 488 0 489 0 0 63 c2 4610 0 7800 -5 7805 -4 4
-224 7 -489 7 l-483 1 0 -3938z"/>
<path d="M3019 7875 c-5 -1 -4 -895 0 -896 3 -1 238 -3 521 -5 283 -2 529 -5
545 -7 228 -33 284 -45 420 -96 223 -82 406 -227 526 -416 73 -116 150 -319
175 -459 18 -104 25 -174 29 -268 3 -61 8 -114 11 -119 3 -5 2 -9 -3 -9 -4 0
-9 -37 -9 -83 -2 -122 -9 -184 -38 -332 -2 -11 -9 -40 -16 -65 -7 -25 -13 -49
-14 -55 -1 -5 -4 -14 -7 -20 -4 -5 -9 -23 -13 -38 -4 -15 -23 -63 -42 -105
-156 -334 -439 -531 -844 -588 -95 -13 -238 -16 -710 -16 l-536 0 0 -444 0
-444 616 -1 c338 -1 633 -2 655 -4 99 -6 196 -24 304 -56 372 -112 569 -400
686 -1008 8 -43 25 -162 31 -216 2 -27 7 -66 10 -85 5 -34 9 -87 19 -215 3
-33 7 -85 10 -115 8 -91 15 -181 20 -249 3 -35 7 -83 9 -105 3 -23 8 -77 11
-121 3 -44 8 -100 10 -125 3 -25 7 -76 10 -115 3 -38 7 -95 10 -125 3 -30 8
-82 10 -115 3 -33 7 -89 10 -125 3 -36 8 -88 10 -116 2 -29 6 -79 9 -113 8
-81 15 -160 22 -251 3 -41 7 -91 9 -110 l3 -35 461 -3 462 -2 -6 82 c-3 46 -8
106 -10 133 -3 28 -7 84 -10 125 -3 41 -8 95 -10 120 -2 25 -6 83 -9 130 -4
47 -9 105 -11 130 -3 25 -7 79 -10 120 -2 41 -7 100 -9 130 -3 30 -8 89 -11
130 -3 41 -7 95 -10 120 -2 25 -7 83 -10 130 -6 84 -14 187 -20 265 -2 22 -6
76 -9 120 -4 44 -8 103 -11 130 -12 146 -16 196 -20 260 -2 39 -7 96 -10 128
-3 32 -8 86 -10 120 -2 34 -6 80 -10 102 -3 22 -8 56 -10 75 -11 75 -13 87
-24 150 -11 64 -14 79 -46 195 -9 33 -18 69 -20 80 -3 11 -9 29 -14 40 -5 11
-17 43 -26 70 -18 50 -104 233 -128 269 -44 70 -102 152 -111 158 -6 4 -8 8
-3 8 9 0 -188 197 -224 223 -13 10 -61 41 -106 70 -45 29 -82 54 -83 57 0 3
24 24 52 45 63 48 230 212 280 275 133 170 288 485 323 660 2 8 4 15 5 15 2 0
5 12 13 50 3 11 10 38 15 60 6 22 13 56 15 76 2 20 7 41 10 45 2 5 7 32 11 59
14 121 17 142 21 170 25 162 24 514 0 760 -4 39 -6 51 -25 150 -5 28 -12 61
-14 75 -3 14 -16 68 -30 120 -15 52 -28 102 -30 110 -2 8 -11 35 -20 60 -9 25
-19 53 -21 64 -5 21 -27 71 -91 203 -115 239 -307 466 -519 613 -27 19 -51 38
-53 43 -2 4 -7 7 -12 7 -4 0 -37 17 -71 38 -154 91 -353 171 -541 217 -59 15
-75 18 -130 29 -13 3 -34 7 -47 10 -14 3 -61 10 -105 16 -45 6 -97 13 -116 15
-108 14 -228 17 -747 19 -315 1 -574 2 -574 1z"/>
</g>
</svg>
