<svg width="403" height="202" viewBox="0 0 403 202" fill="none" xmlns="http://www.w3.org/2000/svg">
<g opacity="0.8">
<g filter="url(#filter0_d)">
<rect x="4" width="395" height="183" rx="10" fill="#08605F"/>
</g>
<path d="M37.5 141C30.5913 141 25 146.591 25 153.5C25 160.409 30.5907 166 37.5 166C44.4087 166 50 160.409 50 153.5C50 146.591 44.4093 141 37.5 141ZM37.5 164.333C31.5265 164.333 26.6667 159.474 26.6667 153.5C26.6667 147.526 31.5265 142.667 37.5 142.667C43.4735 142.667 48.3333 147.527 48.3333 153.5C48.3333 159.473 43.4735 164.333 37.5 164.333Z" fill="white"/>
<path d="M43.1321 152.667H38.3333V147.868C38.3333 147.408 37.9603 147.035 37.5 147.035C37.0397 147.035 36.6666 147.408 36.6666 147.868V152.667H31.8679C31.4077 152.667 31.0346 153.04 31.0346 153.5C31.0346 153.96 31.4077 154.333 31.8679 154.333H36.6666V159.132C36.6666 159.592 37.0397 159.965 37.5 159.965C37.9603 159.965 38.3333 159.592 38.3333 159.132V154.333H43.1321C43.5923 154.333 43.9654 153.96 43.9654 153.5C43.9654 153.04 43.5923 152.667 43.1321 152.667Z" fill="white"/>
<path d="M81.2617 157.422H72.2246L70.1738 163H68.4102L75.9434 143.094H77.543L85.0762 163H83.3262L81.2617 157.422ZM72.7441 155.986H80.7285L76.7363 145.145L72.7441 155.986ZM86.9766 155.467C86.9766 153.17 87.487 151.342 88.5078 149.984C89.5378 148.617 90.9323 147.934 92.6914 147.934C94.6875 147.934 96.2096 148.722 97.2578 150.299V142H98.8848V163H97.3535L97.2852 161.031C96.237 162.526 94.6966 163.273 92.6641 163.273C90.9596 163.273 89.5833 162.59 88.5352 161.223C87.4961 159.846 86.9766 157.992 86.9766 155.658V155.467ZM88.6309 155.754C88.6309 157.641 89.0091 159.131 89.7656 160.225C90.5221 161.309 91.5885 161.852 92.9648 161.852C94.9792 161.852 96.4102 160.963 97.2578 159.186V152.24C96.4102 150.317 94.9883 149.355 92.9922 149.355C91.6159 149.355 90.5449 149.898 89.7793 150.982C89.0137 152.058 88.6309 153.648 88.6309 155.754ZM102.535 155.467C102.535 153.17 103.046 151.342 104.066 149.984C105.096 148.617 106.491 147.934 108.25 147.934C110.246 147.934 111.768 148.722 112.816 150.299V142H114.443V163H112.912L112.844 161.031C111.796 162.526 110.255 163.273 108.223 163.273C106.518 163.273 105.142 162.59 104.094 161.223C103.055 159.846 102.535 157.992 102.535 155.658V155.467ZM104.189 155.754C104.189 157.641 104.568 159.131 105.324 160.225C106.081 161.309 107.147 161.852 108.523 161.852C110.538 161.852 111.969 160.963 112.816 159.186V152.24C111.969 150.317 110.547 149.355 108.551 149.355C107.174 149.355 106.104 149.898 105.338 150.982C104.572 152.058 104.189 153.648 104.189 155.754ZM127.117 148.207L127.172 150.736C127.728 149.825 128.421 149.132 129.25 148.658C130.079 148.175 130.995 147.934 131.998 147.934C133.584 147.934 134.764 148.38 135.539 149.273C136.314 150.167 136.706 151.507 136.715 153.293V163H135.088V153.279C135.079 151.958 134.796 150.973 134.24 150.326C133.693 149.679 132.814 149.355 131.602 149.355C130.59 149.355 129.692 149.674 128.908 150.312C128.133 150.941 127.559 151.794 127.186 152.869V163H125.559V148.207H127.117ZM146.682 163.273C145.424 163.273 144.285 162.964 143.264 162.344C142.252 161.724 141.464 160.863 140.898 159.76C140.333 158.648 140.051 157.404 140.051 156.027V155.439C140.051 154.018 140.324 152.737 140.871 151.598C141.427 150.458 142.197 149.565 143.182 148.918C144.166 148.262 145.232 147.934 146.381 147.934C148.176 147.934 149.598 148.549 150.646 149.779C151.704 151.001 152.232 152.673 152.232 154.797V155.713H141.678V156.027C141.678 157.704 142.156 159.104 143.113 160.225C144.079 161.337 145.292 161.893 146.75 161.893C147.625 161.893 148.395 161.733 149.061 161.414C149.735 161.095 150.346 160.585 150.893 159.883L151.918 160.662C150.715 162.403 148.969 163.273 146.682 163.273ZM146.381 149.328C145.15 149.328 144.111 149.779 143.264 150.682C142.425 151.584 141.915 152.796 141.732 154.318H150.605V154.141C150.56 152.719 150.154 151.561 149.389 150.668C148.623 149.775 147.62 149.328 146.381 149.328ZM158.959 159.596L159.205 160.867L159.533 159.527L163.088 148.207H164.482L167.996 159.432L168.379 160.99L168.693 159.555L171.729 148.207H173.424L169.117 163H167.723L163.922 151.27L163.744 150.463L163.566 151.283L159.834 163H158.439L154.146 148.207H155.828L158.959 159.596ZM189.064 163.273C187.807 163.273 186.667 162.964 185.646 162.344C184.635 161.724 183.846 160.863 183.281 159.76C182.716 158.648 182.434 157.404 182.434 156.027V155.439C182.434 154.018 182.707 152.737 183.254 151.598C183.81 150.458 184.58 149.565 185.564 148.918C186.549 148.262 187.615 147.934 188.764 147.934C190.559 147.934 191.981 148.549 193.029 149.779C194.087 151.001 194.615 152.673 194.615 154.797V155.713H184.061V156.027C184.061 157.704 184.539 159.104 185.496 160.225C186.462 161.337 187.674 161.893 189.133 161.893C190.008 161.893 190.778 161.733 191.443 161.414C192.118 161.095 192.729 160.585 193.275 159.883L194.301 160.662C193.098 162.403 191.352 163.273 189.064 163.273ZM188.764 149.328C187.533 149.328 186.494 149.779 185.646 150.682C184.808 151.584 184.298 152.796 184.115 154.318H192.988V154.141C192.943 152.719 192.537 151.561 191.771 150.668C191.006 149.775 190.003 149.328 188.764 149.328ZM199.359 148.207L199.414 150.736C199.97 149.825 200.663 149.132 201.492 148.658C202.322 148.175 203.238 147.934 204.24 147.934C205.826 147.934 207.007 148.38 207.781 149.273C208.556 150.167 208.948 151.507 208.957 153.293V163H207.33V153.279C207.321 151.958 207.038 150.973 206.482 150.326C205.936 149.679 205.056 149.355 203.844 149.355C202.832 149.355 201.934 149.674 201.15 150.312C200.376 150.941 199.801 151.794 199.428 152.869V163H197.801V148.207H199.359ZM217.803 160.744L222.301 148.207H223.982L218.459 163H217.133L211.582 148.207H213.264L217.803 160.744ZM228.508 163H226.867V148.207H228.508V163ZM226.58 143.928C226.58 143.618 226.68 143.358 226.881 143.148C227.081 142.93 227.355 142.82 227.701 142.82C228.048 142.82 228.321 142.93 228.521 143.148C228.731 143.358 228.836 143.618 228.836 143.928C228.836 144.238 228.731 144.497 228.521 144.707C228.321 144.917 228.048 145.021 227.701 145.021C227.355 145.021 227.081 144.917 226.881 144.707C226.68 144.497 226.58 144.238 226.58 143.928ZM239.801 149.602C239.454 149.538 239.085 149.506 238.693 149.506C237.673 149.506 236.807 149.793 236.096 150.367C235.394 150.932 234.893 151.757 234.592 152.842V163H232.965V148.207H234.564L234.592 150.559C235.458 148.809 236.848 147.934 238.762 147.934C239.217 147.934 239.577 147.993 239.842 148.111L239.801 149.602ZM241.223 155.385C241.223 153.963 241.496 152.682 242.043 151.543C242.599 150.404 243.378 149.52 244.381 148.891C245.393 148.253 246.536 147.934 247.812 147.934C249.781 147.934 251.376 148.626 252.598 150.012C253.819 151.388 254.43 153.215 254.43 155.494V155.836C254.43 157.267 254.152 158.557 253.596 159.705C253.049 160.844 252.274 161.724 251.271 162.344C250.269 162.964 249.125 163.273 247.84 163.273C245.88 163.273 244.285 162.585 243.055 161.209C241.833 159.824 241.223 157.992 241.223 155.713V155.385ZM242.863 155.836C242.863 157.604 243.319 159.058 244.23 160.197C245.151 161.327 246.354 161.893 247.84 161.893C249.316 161.893 250.51 161.327 251.422 160.197C252.342 159.058 252.803 157.559 252.803 155.699V155.385C252.803 154.255 252.593 153.22 252.174 152.281C251.755 151.342 251.167 150.618 250.41 150.107C249.654 149.588 248.788 149.328 247.812 149.328C246.354 149.328 245.165 149.902 244.244 151.051C243.324 152.19 242.863 153.685 242.863 155.535V155.836ZM259.379 148.207L259.434 150.736C259.99 149.825 260.682 149.132 261.512 148.658C262.341 148.175 263.257 147.934 264.26 147.934C265.846 147.934 267.026 148.38 267.801 149.273C268.576 150.167 268.967 151.507 268.977 153.293V163H267.35V153.279C267.34 151.958 267.058 150.973 266.502 150.326C265.955 149.679 265.076 149.355 263.863 149.355C262.852 149.355 261.954 149.674 261.17 150.312C260.395 150.941 259.821 151.794 259.447 152.869V163H257.82V148.207H259.379ZM274.705 148.207L274.76 150.613C275.307 149.72 275.99 149.05 276.811 148.604C277.631 148.157 278.542 147.934 279.545 147.934C281.878 147.934 283.359 148.891 283.988 150.805C284.517 149.884 285.223 149.178 286.107 148.686C286.992 148.184 287.967 147.934 289.033 147.934C292.205 147.934 293.823 149.665 293.887 153.129V163H292.246V153.252C292.237 151.93 291.95 150.951 291.385 150.312C290.829 149.674 289.917 149.355 288.65 149.355C287.475 149.374 286.481 149.757 285.67 150.504C284.859 151.242 284.408 152.145 284.316 153.211V163H282.676V153.129C282.667 151.862 282.366 150.919 281.773 150.299C281.19 149.67 280.288 149.355 279.066 149.355C278.036 149.355 277.152 149.652 276.414 150.244C275.676 150.827 275.129 151.698 274.773 152.855V163H273.133V148.207H274.705ZM303.771 163.273C302.514 163.273 301.374 162.964 300.354 162.344C299.342 161.724 298.553 160.863 297.988 159.76C297.423 158.648 297.141 157.404 297.141 156.027V155.439C297.141 154.018 297.414 152.737 297.961 151.598C298.517 150.458 299.287 149.565 300.271 148.918C301.256 148.262 302.322 147.934 303.471 147.934C305.266 147.934 306.688 148.549 307.736 149.779C308.794 151.001 309.322 152.673 309.322 154.797V155.713H298.768V156.027C298.768 157.704 299.246 159.104 300.203 160.225C301.169 161.337 302.382 161.893 303.84 161.893C304.715 161.893 305.485 161.733 306.15 161.414C306.825 161.095 307.436 160.585 307.982 159.883L309.008 160.662C307.805 162.403 306.059 163.273 303.771 163.273ZM303.471 149.328C302.24 149.328 301.201 149.779 300.354 150.682C299.515 151.584 299.005 152.796 298.822 154.318H307.695V154.141C307.65 152.719 307.244 151.561 306.479 150.668C305.713 149.775 304.71 149.328 303.471 149.328ZM314.066 148.207L314.121 150.736C314.677 149.825 315.37 149.132 316.199 148.658C317.029 148.175 317.945 147.934 318.947 147.934C320.533 147.934 321.714 148.38 322.488 149.273C323.263 150.167 323.655 151.507 323.664 153.293V163H322.037V153.279C322.028 151.958 321.745 150.973 321.189 150.326C320.643 149.679 319.763 149.355 318.551 149.355C317.539 149.355 316.641 149.674 315.857 150.312C315.083 150.941 314.508 151.794 314.135 152.869V163H312.508V148.207H314.066ZM330.445 144.42V148.207H333.508V149.547H330.445V159.404C330.445 160.225 330.591 160.835 330.883 161.236C331.184 161.637 331.68 161.838 332.373 161.838C332.646 161.838 333.089 161.792 333.699 161.701L333.768 163.041C333.339 163.196 332.756 163.273 332.018 163.273C330.896 163.273 330.081 162.95 329.57 162.303C329.06 161.646 328.805 160.685 328.805 159.418V149.547H326.084V148.207H328.805V144.42H330.445Z" fill="white"/>
<path d="M31.5156 42V22.0938H37.0801C38.7116 22.0938 40.1745 22.4674 41.4688 23.2148C42.763 23.9531 43.7702 25.015 44.4902 26.4004C45.2194 27.7858 45.584 29.3626 45.584 31.1309V32.9629C45.584 34.7402 45.224 36.3171 44.5039 37.6934C43.7839 39.0697 42.7676 40.1315 41.4551 40.8789C40.1517 41.6263 38.6523 42 36.957 42H31.5156ZM33.1973 23.5293V40.5781H36.9707C39.0671 40.5781 40.7487 39.8854 42.0156 38.5C43.2826 37.1055 43.916 35.2233 43.916 32.8535V31.1035C43.916 28.8158 43.2917 26.9837 42.043 25.6074C40.7943 24.2311 39.1491 23.5384 37.1074 23.5293H33.1973ZM58.8184 42C58.6543 41.5352 58.5495 40.847 58.5039 39.9355C57.9297 40.6829 57.196 41.2617 56.3027 41.6719C55.4186 42.0729 54.4798 42.2734 53.4863 42.2734C52.0645 42.2734 50.9115 41.877 50.0273 41.084C49.1523 40.291 48.7148 39.2884 48.7148 38.0762C48.7148 36.6361 49.3118 35.4967 50.5059 34.6582C51.709 33.8197 53.3815 33.4004 55.5234 33.4004H58.4902V31.7188C58.4902 30.6615 58.1621 29.832 57.5059 29.2305C56.8587 28.6198 55.9108 28.3145 54.6621 28.3145C53.5228 28.3145 52.5794 28.6061 51.832 29.1895C51.0846 29.7728 50.7109 30.4746 50.7109 31.2949L49.0703 31.2812C49.0703 30.1055 49.6172 29.0892 50.7109 28.2324C51.8047 27.3665 53.1491 26.9336 54.7441 26.9336C56.3939 26.9336 57.6927 27.3483 58.6406 28.1777C59.5977 28.998 60.0898 30.1465 60.1172 31.623V38.623C60.1172 40.054 60.2676 41.125 60.5684 41.8359V42H58.8184ZM53.6777 40.8242C54.7715 40.8242 55.7467 40.5599 56.6035 40.0312C57.4694 39.5026 58.0983 38.7962 58.4902 37.9121V34.6582H55.5645C53.9329 34.6764 52.6569 34.9772 51.7363 35.5605C50.8158 36.1348 50.3555 36.9277 50.3555 37.9395C50.3555 38.7689 50.6608 39.457 51.2715 40.0039C51.8913 40.5508 52.6934 40.8242 53.6777 40.8242ZM66.3242 42H64.6836V27.207H66.3242V42ZM64.3965 22.9277C64.3965 22.6178 64.4967 22.3581 64.6973 22.1484C64.8978 21.9297 65.1712 21.8203 65.5176 21.8203C65.8639 21.8203 66.1374 21.9297 66.3379 22.1484C66.5475 22.3581 66.6523 22.6178 66.6523 22.9277C66.6523 23.2376 66.5475 23.4974 66.3379 23.707C66.1374 23.9167 65.8639 24.0215 65.5176 24.0215C65.1712 24.0215 64.8978 23.9167 64.6973 23.707C64.4967 23.4974 64.3965 23.2376 64.3965 22.9277ZM72.6133 42H70.9727V21H72.6133V42ZM81.7598 39.6484L86.0801 27.207H87.8438L81.5273 44.5156L81.1992 45.2812C80.388 47.0768 79.1348 47.9746 77.4395 47.9746C77.0475 47.9746 76.6283 47.9108 76.1816 47.7832L76.168 46.4297L77.0156 46.5117C77.8177 46.5117 78.4648 46.3112 78.957 45.9102C79.4583 45.5182 79.8822 44.8392 80.2285 43.873L80.9531 41.877L75.375 27.207H77.166L81.7598 39.6484ZM99.0273 42H97.3867V21H99.0273V42ZM105.316 42H103.676V27.207H105.316V42ZM103.389 22.9277C103.389 22.6178 103.489 22.3581 103.689 22.1484C103.89 21.9297 104.163 21.8203 104.51 21.8203C104.856 21.8203 105.13 21.9297 105.33 22.1484C105.54 22.3581 105.645 22.6178 105.645 22.9277C105.645 23.2376 105.54 23.4974 105.33 23.707C105.13 23.9167 104.856 24.0215 104.51 24.0215C104.163 24.0215 103.89 23.9167 103.689 23.707C103.489 23.4974 103.389 23.2376 103.389 22.9277ZM110.949 42V28.5469H108.502V27.207H110.949V25.416C110.949 23.903 111.332 22.7409 112.098 21.9297C112.872 21.1185 113.948 20.7129 115.324 20.7129C115.944 20.7129 116.523 20.7904 117.061 20.9453L116.938 22.3125C116.482 22.2031 115.985 22.1484 115.447 22.1484C114.545 22.1484 113.843 22.431 113.342 22.9961C112.84 23.5521 112.59 24.3451 112.59 25.375V27.207H116.117V28.5469H112.59V42H110.949ZM124.443 42.2734C123.186 42.2734 122.046 41.9635 121.025 41.3438C120.014 40.724 119.225 39.8626 118.66 38.7598C118.095 37.6478 117.812 36.4036 117.812 35.0273V34.4395C117.812 33.0176 118.086 31.737 118.633 30.5977C119.189 29.4583 119.959 28.5651 120.943 27.918C121.928 27.2617 122.994 26.9336 124.143 26.9336C125.938 26.9336 127.36 27.5488 128.408 28.7793C129.465 30.0007 129.994 31.6732 129.994 33.7969V34.7129H119.439V35.0273C119.439 36.7044 119.918 38.1035 120.875 39.2246C121.841 40.3366 123.053 40.8926 124.512 40.8926C125.387 40.8926 126.157 40.7331 126.822 40.4141C127.497 40.0951 128.107 39.5846 128.654 38.8828L129.68 39.6621C128.477 41.403 126.731 42.2734 124.443 42.2734ZM124.143 28.3281C122.912 28.3281 121.873 28.7793 121.025 29.6816C120.187 30.584 119.676 31.7962 119.494 33.3184H128.367V33.1406C128.322 31.7188 127.916 30.5612 127.15 29.668C126.385 28.7747 125.382 28.3281 124.143 28.3281Z" fill="white"/>
<path d="M29.7441 84.0938L37.0859 101.662L44.4551 84.0938H46.6973V104H45.0156V95.332L45.1523 86.4453L37.7422 104H36.4434L29.0605 86.5137L29.1973 95.2773V104H27.5156V84.0938H29.7441ZM60.6973 104C60.5332 103.535 60.4284 102.847 60.3828 101.936C59.8086 102.683 59.0749 103.262 58.1816 103.672C57.2975 104.073 56.3587 104.273 55.3652 104.273C53.9434 104.273 52.7904 103.877 51.9062 103.084C51.0312 102.291 50.5938 101.288 50.5938 100.076C50.5938 98.6361 51.1908 97.4967 52.3848 96.6582C53.5879 95.8197 55.2604 95.4004 57.4023 95.4004H60.3691V93.7188C60.3691 92.6615 60.041 91.832 59.3848 91.2305C58.7376 90.6198 57.7897 90.3145 56.541 90.3145C55.4017 90.3145 54.4583 90.6061 53.7109 91.1895C52.9635 91.7728 52.5898 92.4746 52.5898 93.2949L50.9492 93.2812C50.9492 92.1055 51.4961 91.0892 52.5898 90.2324C53.6836 89.3665 55.028 88.9336 56.623 88.9336C58.2728 88.9336 59.5716 89.3483 60.5195 90.1777C61.4766 90.998 61.9688 92.1465 61.9961 93.623V100.623C61.9961 102.054 62.1465 103.125 62.4473 103.836V104H60.6973ZM55.5566 102.824C56.6504 102.824 57.6257 102.56 58.4824 102.031C59.3483 101.503 59.9772 100.796 60.3691 99.9121V96.6582H57.4434C55.8118 96.6764 54.5358 96.9772 53.6152 97.5605C52.6947 98.1348 52.2344 98.9277 52.2344 99.9395C52.2344 100.769 52.5397 101.457 53.1504 102.004C53.7702 102.551 54.5723 102.824 55.5566 102.824ZM73.207 90.6016C72.8607 90.5378 72.4915 90.5059 72.0996 90.5059C71.0788 90.5059 70.2129 90.793 69.502 91.3672C68.8001 91.9323 68.2988 92.7572 67.998 93.8418V104H66.3711V89.207H67.9707L67.998 91.5586C68.8639 89.8086 70.2539 88.9336 72.168 88.9336C72.6237 88.9336 72.9837 88.9928 73.248 89.1113L73.207 90.6016ZM79.3184 96.5488L77.4453 98.3535V104H75.8047V83H77.4453V96.4395L78.9902 94.7715L84.6504 89.207H86.7148L80.4395 95.4414L87.2617 104H85.3066L79.3184 96.5488ZM94.9863 104.273C93.7285 104.273 92.5892 103.964 91.5684 103.344C90.5566 102.724 89.7682 101.863 89.2031 100.76C88.638 99.6478 88.3555 98.4036 88.3555 97.0273V96.4395C88.3555 95.0176 88.6289 93.737 89.1758 92.5977C89.7318 91.4583 90.502 90.5651 91.4863 89.918C92.4707 89.2617 93.5371 88.9336 94.6855 88.9336C96.4811 88.9336 97.903 89.5488 98.9512 90.7793C100.008 92.0007 100.537 93.6732 100.537 95.7969V96.7129H89.9824V97.0273C89.9824 98.7044 90.4609 100.104 91.418 101.225C92.3841 102.337 93.5964 102.893 95.0547 102.893C95.9297 102.893 96.6999 102.733 97.3652 102.414C98.0397 102.095 98.6504 101.585 99.1973 100.883L100.223 101.662C99.0195 103.403 97.2741 104.273 94.9863 104.273ZM94.6855 90.3281C93.4551 90.3281 92.416 90.7793 91.5684 91.6816C90.7298 92.584 90.2194 93.7962 90.0371 95.3184H98.9102V95.1406C98.8646 93.7188 98.459 92.5612 97.6934 91.668C96.9277 90.7747 95.9251 90.3281 94.6855 90.3281ZM106.266 85.4199V89.207H109.328V90.5469H106.266V100.404C106.266 101.225 106.411 101.835 106.703 102.236C107.004 102.637 107.501 102.838 108.193 102.838C108.467 102.838 108.909 102.792 109.52 102.701L109.588 104.041C109.16 104.196 108.576 104.273 107.838 104.273C106.717 104.273 105.901 103.95 105.391 103.303C104.88 102.646 104.625 101.685 104.625 100.418V90.5469H101.904V89.207H104.625V85.4199H106.266ZM114.551 104H112.91V89.207H114.551V104ZM112.623 84.9277C112.623 84.6178 112.723 84.3581 112.924 84.1484C113.124 83.9297 113.398 83.8203 113.744 83.8203C114.09 83.8203 114.364 83.9297 114.564 84.1484C114.774 84.3581 114.879 84.6178 114.879 84.9277C114.879 85.2376 114.774 85.4974 114.564 85.707C114.364 85.9167 114.09 86.0215 113.744 86.0215C113.398 86.0215 113.124 85.9167 112.924 85.707C112.723 85.4974 112.623 85.2376 112.623 84.9277ZM120.566 89.207L120.621 91.7363C121.177 90.8249 121.87 90.1322 122.699 89.6582C123.529 89.1751 124.445 88.9336 125.447 88.9336C127.033 88.9336 128.214 89.3802 128.988 90.2734C129.763 91.1667 130.155 92.5065 130.164 94.293V104H128.537V94.2793C128.528 92.9577 128.245 91.9733 127.689 91.3262C127.143 90.679 126.263 90.3555 125.051 90.3555C124.039 90.3555 123.141 90.6745 122.357 91.3125C121.583 91.9414 121.008 92.7936 120.635 93.8691V104H119.008V89.207H120.566ZM133.746 96.4668C133.746 94.1517 134.257 92.3197 135.277 90.9707C136.307 89.6126 137.702 88.9336 139.461 88.9336C141.475 88.9336 143.007 89.7357 144.055 91.3398L144.137 89.207H145.668V103.699C145.668 105.604 145.135 107.113 144.068 108.225C143.002 109.337 141.557 109.893 139.734 109.893C138.704 109.893 137.72 109.66 136.781 109.195C135.852 108.74 135.118 108.129 134.58 107.363L135.496 106.379C136.654 107.801 138.03 108.512 139.625 108.512C140.992 108.512 142.059 108.106 142.824 107.295C143.59 106.493 143.986 105.376 144.014 103.945V102.086C142.965 103.544 141.439 104.273 139.434 104.273C137.72 104.273 136.344 103.59 135.305 102.223C134.266 100.855 133.746 99.0098 133.746 96.6855V96.4668ZM135.4 96.7539C135.4 98.6406 135.779 100.131 136.535 101.225C137.292 102.309 138.358 102.852 139.734 102.852C141.749 102.852 143.175 101.949 144.014 100.145V93.2676C143.631 92.3197 143.079 91.5996 142.359 91.1074C141.639 90.6061 140.773 90.3555 139.762 90.3555C138.385 90.3555 137.314 90.8978 136.549 91.9824C135.783 93.0579 135.4 94.6484 135.4 96.7539ZM159.285 85.4199V89.207H162.348V90.5469H159.285V100.404C159.285 101.225 159.431 101.835 159.723 102.236C160.023 102.637 160.52 102.838 161.213 102.838C161.486 102.838 161.928 102.792 162.539 102.701L162.607 104.041C162.179 104.196 161.596 104.273 160.857 104.273C159.736 104.273 158.921 103.95 158.41 103.303C157.9 102.646 157.645 101.685 157.645 100.418V90.5469H154.924V89.207H157.645V85.4199H159.285ZM171.467 104.273C170.209 104.273 169.07 103.964 168.049 103.344C167.037 102.724 166.249 101.863 165.684 100.76C165.118 99.6478 164.836 98.4036 164.836 97.0273V96.4395C164.836 95.0176 165.109 93.737 165.656 92.5977C166.212 91.4583 166.982 90.5651 167.967 89.918C168.951 89.2617 170.018 88.9336 171.166 88.9336C172.962 88.9336 174.383 89.5488 175.432 90.7793C176.489 92.0007 177.018 93.6732 177.018 95.7969V96.7129H166.463V97.0273C166.463 98.7044 166.941 100.104 167.898 101.225C168.865 102.337 170.077 102.893 171.535 102.893C172.41 102.893 173.18 102.733 173.846 102.414C174.52 102.095 175.131 101.585 175.678 100.883L176.703 101.662C175.5 103.403 173.755 104.273 171.467 104.273ZM171.166 90.3281C169.936 90.3281 168.896 90.7793 168.049 91.6816C167.21 92.584 166.7 93.7962 166.518 95.3184H175.391V95.1406C175.345 93.7188 174.939 92.5612 174.174 91.668C173.408 90.7747 172.406 90.3281 171.166 90.3281ZM189.541 104C189.377 103.535 189.272 102.847 189.227 101.936C188.652 102.683 187.919 103.262 187.025 103.672C186.141 104.073 185.202 104.273 184.209 104.273C182.787 104.273 181.634 103.877 180.75 103.084C179.875 102.291 179.438 101.288 179.438 100.076C179.438 98.6361 180.035 97.4967 181.229 96.6582C182.432 95.8197 184.104 95.4004 186.246 95.4004H189.213V93.7188C189.213 92.6615 188.885 91.832 188.229 91.2305C187.581 90.6198 186.633 90.3145 185.385 90.3145C184.245 90.3145 183.302 90.6061 182.555 91.1895C181.807 91.7728 181.434 92.4746 181.434 93.2949L179.793 93.2812C179.793 92.1055 180.34 91.0892 181.434 90.2324C182.527 89.3665 183.872 88.9336 185.467 88.9336C187.117 88.9336 188.415 89.3483 189.363 90.1777C190.32 90.998 190.812 92.1465 190.84 93.623V100.623C190.84 102.054 190.99 103.125 191.291 103.836V104H189.541ZM184.4 102.824C185.494 102.824 186.469 102.56 187.326 102.031C188.192 101.503 188.821 100.796 189.213 99.9121V96.6582H186.287C184.656 96.6764 183.38 96.9772 182.459 97.5605C181.538 98.1348 181.078 98.9277 181.078 99.9395C181.078 100.769 181.383 101.457 181.994 102.004C182.614 102.551 183.416 102.824 184.4 102.824ZM196.705 89.207L196.76 91.6133C197.307 90.7201 197.99 90.0501 198.811 89.6035C199.631 89.1569 200.542 88.9336 201.545 88.9336C203.878 88.9336 205.359 89.8906 205.988 91.8047C206.517 90.8841 207.223 90.1777 208.107 89.6855C208.992 89.1842 209.967 88.9336 211.033 88.9336C214.205 88.9336 215.823 90.6654 215.887 94.1289V104H214.246V94.252C214.237 92.9303 213.95 91.9505 213.385 91.3125C212.829 90.6745 211.917 90.3555 210.65 90.3555C209.475 90.3737 208.481 90.7565 207.67 91.5039C206.859 92.2422 206.408 93.1445 206.316 94.2109V104H204.676V94.1289C204.667 92.862 204.366 91.9186 203.773 91.2988C203.19 90.6699 202.288 90.3555 201.066 90.3555C200.036 90.3555 199.152 90.6517 198.414 91.2441C197.676 91.8275 197.129 92.6979 196.773 93.8555V104H195.133V89.207H196.705Z" fill="white"/>
<rect x="5" y="63" width="393" height="62" rx="9" stroke="white" stroke-width="2"/>
<rect x="5" y="1" width="393" height="62" rx="9" stroke="white" stroke-width="2"/>
</g>
<defs>
<filter id="filter0_d" x="0" y="0" width="403" height="191" filterUnits="userSpaceOnUse" color-interpolation-filters="sRGB">
<feFlood flood-opacity="0" result="BackgroundImageFix"/>
<feColorMatrix in="SourceAlpha" type="matrix" values="0 0 0 0 0 0 0 0 0 0 0 0 0 0 0 0 0 0 127 0"/>
<feOffset dy="4"/>
<feGaussianBlur stdDeviation="2"/>
<feColorMatrix type="matrix" values="0 0 0 0 0 0 0 0 0 0 0 0 0 0 0 0 0 0 0.25 0"/>
<feBlend mode="normal" in2="BackgroundImageFix" result="effect1_dropShadow"/>
<feBlend mode="normal" in="SourceGraphic" in2="effect1_dropShadow" result="shape"/>
</filter>
</defs>
</svg>
