<svg width="442" height="497" viewBox="0 0 442 497" fill="none" xmlns="http://www.w3.org/2000/svg">
<g clip-path="url(#clip0)">
<path d="M374.132 497C411.615 497 442 493.99 442 490.278C442 486.565 411.615 483.555 374.132 483.555C336.65 483.555 306.264 486.565 306.264 490.278C306.264 493.99 336.65 497 374.132 497Z" fill="#EAEAEA"/>
<path d="M163.064 140.331H2.96479C2.17877 140.33 1.4252 140.017 0.869395 139.461C0.31359 138.905 0.000922972 138.151 0 137.364V97.6338C0.000922968 96.8474 0.31359 96.0935 0.869395 95.5375C1.4252 94.9814 2.17877 94.6686 2.96479 94.6677H163.064C163.85 94.6686 164.603 94.9814 165.159 95.5375C165.715 96.0935 166.027 96.8474 166.028 97.6338V137.364C166.027 138.151 165.715 138.905 165.159 139.461C164.603 140.017 163.85 140.33 163.064 140.331ZM2.96479 95.8542C2.49316 95.8547 2.04099 96.0423 1.7075 96.376C1.374 96.7096 1.18643 97.162 1.18591 97.6338V137.364C1.18643 137.836 1.374 138.289 1.7075 138.622C2.04099 138.956 2.49316 139.144 2.96479 139.144H163.064C163.535 139.144 163.987 138.956 164.321 138.622C164.654 138.289 164.842 137.836 164.842 137.364V97.6338C164.842 97.162 164.654 96.7096 164.321 96.376C163.987 96.0423 163.535 95.8547 163.064 95.8542H2.96479Z" fill="#3F3D56"/>
<path d="M27.8409 128.057C34.5108 128.057 39.9179 122.647 39.9179 115.974C39.9179 109.302 34.5108 103.892 27.8409 103.892C21.171 103.892 15.7639 109.302 15.7639 115.974C15.7639 122.647 21.171 128.057 27.8409 128.057Z" fill="#00A5CF"/>
<path d="M55.7329 107.92C55.1991 107.92 54.6871 108.132 54.3096 108.509C53.9322 108.887 53.7201 109.399 53.7201 109.933C53.7201 110.467 53.9322 110.98 54.3096 111.357C54.6871 111.735 55.1991 111.947 55.7329 111.947H150.623C151.157 111.947 151.669 111.735 152.047 111.357C152.424 110.98 152.636 110.467 152.636 109.933C152.636 109.399 152.424 108.887 152.047 108.509C151.669 108.132 151.157 107.92 150.623 107.92H55.7329Z" fill="#E6E6E6"/>
<path d="M55.7329 120.002C55.1991 120.002 54.6871 120.214 54.3096 120.592C53.9322 120.969 53.7201 121.482 53.7201 122.016C53.7201 122.55 53.9322 123.062 54.3096 123.44C54.6871 123.817 55.1991 124.029 55.7329 124.029H96.5646C97.0985 124.029 97.6104 123.817 97.9879 123.44C98.3654 123.062 98.5774 122.55 98.5774 122.016C98.5774 121.482 98.3654 120.969 97.9879 120.592C97.6104 120.214 97.0985 120.002 96.5646 120.002H55.7329Z" fill="#E6E6E6"/>
<path d="M74.7435 288.002H3.58833C2.8023 288.001 2.04874 287.689 1.49293 287.133C0.937125 286.577 0.624458 285.823 0.623535 285.036V210.899C0.624458 210.113 0.937125 209.359 1.49293 208.803C2.04874 208.247 2.8023 207.934 3.58833 207.933H74.7435C75.5295 207.934 76.2831 208.247 76.8389 208.803C77.3947 209.359 77.7074 210.113 77.7083 210.899V285.036C77.7074 285.823 77.3947 286.577 76.8389 287.133C76.2831 287.689 75.5295 288.001 74.7435 288.002ZM3.58833 209.12C3.1167 209.12 2.66454 209.308 2.33105 209.642C1.99756 209.975 1.80996 210.428 1.80945 210.899V285.036C1.80996 285.508 1.99756 285.96 2.33105 286.294C2.66454 286.628 3.1167 286.815 3.58833 286.816H74.7435C75.2151 286.815 75.6673 286.628 76.0008 286.294C76.3343 285.96 76.5219 285.508 76.5224 285.036V210.899C76.5219 210.428 76.3343 209.975 76.0008 209.642C75.6673 209.308 75.2151 209.12 74.7435 209.12H3.58833Z" fill="#3F3D56"/>
<path d="M18.7501 223.222C18.2163 223.222 17.7043 223.434 17.3268 223.811C16.9494 224.189 16.7373 224.701 16.7373 225.235C16.7373 225.769 16.9494 226.282 17.3268 226.659C17.7043 227.037 18.2163 227.249 18.7501 227.249H59.5818C59.8464 227.25 60.1086 227.198 60.3532 227.097C60.5978 226.996 60.8202 226.848 61.0075 226.661C61.1948 226.474 61.3434 226.251 61.4447 226.007C61.5461 225.762 61.5983 225.5 61.5983 225.235C61.5983 224.971 61.5461 224.708 61.4447 224.464C61.3434 224.219 61.1948 223.997 61.0075 223.81C60.8202 223.623 60.5978 223.475 60.3532 223.374C60.1086 223.273 59.8464 223.221 59.5818 223.222H18.7501Z" fill="#E6E6E6"/>
<path d="M18.7501 235.086C18.2163 235.086 17.7043 235.298 17.3269 235.676C16.9494 236.053 16.7373 236.566 16.7373 237.1C16.7373 237.634 16.9494 238.146 17.3269 238.524C17.7043 238.901 18.2163 239.113 18.7501 239.113H59.5818C60.1156 239.113 60.6276 238.901 61.0051 238.524C61.3826 238.146 61.5947 237.634 61.5947 237.1C61.5947 236.566 61.3826 236.053 61.0051 235.676C60.6276 235.298 60.1156 235.086 59.5818 235.086H18.7501Z" fill="#E6E6E6"/>
<path d="M39.1661 272.714C36.6602 272.714 34.2106 271.97 32.1271 270.578C30.0435 269.185 28.4196 267.205 27.4607 264.889C26.5017 262.573 26.2508 260.024 26.7397 257.566C27.2285 255.107 28.4352 252.848 30.2071 251.076C31.979 249.303 34.2366 248.096 36.6943 247.607C39.152 247.118 41.6995 247.369 44.0146 248.328C46.3297 249.287 48.3084 250.912 49.7006 252.997C51.0928 255.081 51.8359 257.532 51.8359 260.039C51.8321 263.399 50.496 266.621 48.1208 268.997C45.7455 271.373 42.5251 272.71 39.1661 272.714Z" fill="#00A5CF"/>
<path d="M210.122 35.7527H281.277C282.063 35.7536 282.817 36.0664 283.373 36.6224C283.929 37.1785 284.241 37.9324 284.242 38.7187V112.856C284.241 113.642 283.929 114.396 283.373 114.952C282.817 115.508 282.063 115.821 281.277 115.822H210.122C209.336 115.821 208.583 115.508 208.027 114.952C207.471 114.396 207.158 113.642 207.157 112.856V38.7187C207.158 37.9324 207.471 37.1785 208.027 36.6224C208.583 36.0664 209.336 35.7536 210.122 35.7527ZM281.277 114.635C281.749 114.635 282.201 114.447 282.535 114.113C282.868 113.78 283.056 113.327 283.056 112.856V38.7187C283.056 38.2469 282.868 37.7946 282.535 37.4609C282.201 37.1273 281.749 36.9396 281.277 36.9391H210.122C209.651 36.9396 209.198 37.1273 208.865 37.4609C208.531 37.7946 208.344 38.2469 208.343 38.7187V112.856C208.344 113.327 208.531 113.78 208.865 114.113C209.198 114.447 209.651 114.635 210.122 114.635H281.277Z" fill="#3F3D56"/>
<path d="M266.116 100.533C266.65 100.533 267.162 100.321 267.539 99.9434C267.916 99.5658 268.129 99.0536 268.129 98.5195C268.129 97.9855 267.916 97.4733 267.539 97.0957C267.162 96.718 266.65 96.5059 266.116 96.5059H225.284C224.75 96.5059 224.238 96.718 223.861 97.0957C223.483 97.4733 223.271 97.9855 223.271 98.5195C223.271 99.0536 223.483 99.5658 223.861 99.9434C224.238 100.321 224.75 100.533 225.284 100.533H266.116Z" fill="#E6E6E6"/>
<path d="M266.116 88.6692C266.65 88.6692 267.162 88.4571 267.539 88.0794C267.916 87.7018 268.129 87.1896 268.129 86.6555C268.129 86.1215 267.916 85.6093 267.539 85.2316C267.162 84.854 266.65 84.6418 266.116 84.6418H225.284C224.75 84.6418 224.238 84.854 223.861 85.2316C223.483 85.6093 223.271 86.1215 223.271 86.6555C223.271 87.1896 223.483 87.7018 223.861 88.0794C224.238 88.4571 224.75 88.6692 225.284 88.6692H266.116Z" fill="#E6E6E6"/>
<path d="M245.7 51.041C248.206 51.041 250.655 51.7844 252.739 53.1772C254.822 54.57 256.446 56.5496 257.405 58.8657C258.364 61.1818 258.615 63.7303 258.126 66.1891C257.637 68.6478 256.431 70.9064 254.659 72.679C252.887 74.4517 250.629 75.6589 248.172 76.148C245.714 76.6371 243.166 76.386 240.851 75.4267C238.536 74.4673 236.557 72.8427 235.165 70.7583C233.773 68.6738 233.03 66.2232 233.03 63.7163C233.034 60.3557 234.37 57.134 236.745 54.7577C239.12 52.3815 242.341 51.0448 245.7 51.041Z" fill="#00A5CF"/>
<path d="M199.696 230.538H132.947L148.655 203.318C148.937 202.83 149.342 202.425 149.829 202.143C150.317 201.861 150.87 201.713 151.433 201.713C151.996 201.713 152.55 201.861 153.037 202.143C153.525 202.425 153.93 202.83 154.211 203.318L160.922 214.946L172.332 195.174C172.684 194.564 173.191 194.056 173.802 193.704C174.412 193.351 175.105 193.165 175.81 193.165C176.515 193.165 177.208 193.351 177.818 193.704C178.429 194.056 178.936 194.564 179.288 195.174L199.696 230.538Z" fill="#00A5CF"/>
<path d="M199.759 230.53H128.604C127.818 230.53 127.065 230.217 126.509 229.661C125.953 229.105 125.64 228.351 125.64 227.564V187.834C125.64 187.047 125.953 186.293 126.509 185.737C127.065 185.181 127.818 184.869 128.604 184.868H199.759C200.546 184.869 201.299 185.181 201.855 185.737C202.411 186.293 202.723 187.047 202.724 187.834V227.564C202.723 228.351 202.411 229.105 201.855 229.661C201.299 230.217 200.546 230.53 199.759 230.53ZM128.604 186.054C128.133 186.055 127.681 186.242 127.347 186.576C127.014 186.91 126.826 187.362 126.825 187.834V227.564C126.826 228.036 127.014 228.489 127.347 228.822C127.681 229.156 128.133 229.343 128.604 229.344H199.759C200.231 229.343 200.683 229.156 201.017 228.822C201.35 228.489 201.538 228.036 201.538 227.564V187.834C201.538 187.362 201.35 186.91 201.017 186.576C200.683 186.242 200.231 186.055 199.759 186.054H128.604Z" fill="#3F3D56"/>
<path d="M76.0562 45.6701H9.30652L25.015 18.4502C25.2965 17.9624 25.7014 17.5572 26.1891 17.2755C26.6767 16.9939 27.2299 16.8456 27.793 16.8456C28.3561 16.8456 28.9093 16.9939 29.3969 17.2755C29.8846 17.5572 30.2895 17.9624 30.571 18.4502L37.2815 30.0781L48.6916 10.3069C49.0441 9.69607 49.551 9.18883 50.1616 8.83617C50.7721 8.48351 51.4647 8.29785 52.1697 8.29785C52.8747 8.29785 53.5673 8.48351 54.1778 8.83617C54.7883 9.18883 55.2953 9.69607 55.6478 10.3069L76.0562 45.6701Z" fill="#00A5CF"/>
<path d="M76.1192 45.6628H4.96404C4.17801 45.6619 3.42445 45.3491 2.86864 44.793C2.31284 44.237 2.00019 43.4831 1.99927 42.6967V2.96606C2.00019 2.17969 2.31284 1.4258 2.86864 0.869757C3.42445 0.313714 4.17801 0.000923367 4.96404 0H76.1192C76.9053 0.000923367 77.6588 0.313714 78.2146 0.869757C78.7704 1.4258 79.0831 2.17969 79.084 2.96606V42.6967C79.0831 43.4831 78.7704 44.237 78.2146 44.793C77.6588 45.3491 76.9053 45.6619 76.1192 45.6628ZM4.96404 1.18642C4.49241 1.18694 4.04026 1.3746 3.70676 1.70823C3.37327 2.04187 3.18569 2.49423 3.18518 2.96606V42.6967C3.1857 43.1685 3.37327 43.6209 3.70676 43.9545C4.04026 44.2882 4.49241 44.4758 4.96404 44.4763H76.1192C76.5909 44.4758 77.043 44.2882 77.3765 43.9545C77.71 43.6209 77.8976 43.1685 77.8981 42.6967V2.96606C77.8976 2.49423 77.71 2.04187 77.3765 1.70823C77.043 1.3746 76.5909 1.18694 76.1192 1.18642H4.96404Z" fill="#3F3D56"/>
<path d="M374.562 166.579C385.128 166.579 393.694 158.009 393.694 147.438C393.694 136.868 385.128 128.298 374.562 128.298C363.995 128.298 355.429 136.868 355.429 147.438C355.429 158.009 363.995 166.579 374.562 166.579Z" fill="#FFB8B8"/>
<path d="M394.211 182.098L361.634 181.581C364.436 173.857 365.651 166.624 363.703 160.371L388.523 157.785C385.169 165.889 387.065 173.994 394.211 182.098Z" fill="#FFB8B8"/>
<path d="M326.473 310.39L331.882 324.822C332.346 326.06 332.524 327.388 332.4 328.705C332.277 330.021 331.857 331.293 331.171 332.424C330.486 333.554 329.552 334.515 328.442 335.232C327.331 335.95 326.073 336.406 324.76 336.566C323.505 336.719 322.231 336.597 321.027 336.21C319.823 335.822 318.718 335.178 317.787 334.321C316.857 333.464 316.123 332.415 315.637 331.247C315.152 330.079 314.925 328.819 314.974 327.555L315.614 310.908L320.268 225.552L339.4 231.242L326.473 310.39Z" fill="#FFB8B8"/>
<path d="M422.651 310.39L417.241 324.822C416.777 326.06 416.6 327.388 416.723 328.705C416.846 330.021 417.266 331.293 417.952 332.424C418.638 333.554 419.571 334.515 420.681 335.232C421.792 335.95 423.051 336.406 424.363 336.566C425.618 336.719 426.892 336.597 428.096 336.21C429.3 335.822 430.405 335.178 431.336 334.321C432.267 333.464 433 332.415 433.486 331.247C433.972 330.079 434.198 328.819 434.149 327.555L433.509 310.908L428.856 225.552L409.723 231.242L422.651 310.39Z" fill="#FFB8B8"/>
<path d="M402.484 470.755L386.972 469.204L373.011 333.669L353.361 471.79L338.883 471.273L335.263 319.702H404.552L402.484 470.755Z" fill="#2F2E41"/>
<path d="M351.81 140.196C351.81 140.196 356.981 151.577 360.6 152.094C364.22 152.612 370.425 158.302 369.391 160.888C368.357 163.475 368.874 171.235 379.215 170.2C389.557 169.165 389.04 168.131 389.04 168.131C389.04 168.131 405.587 136.575 388.523 128.298C371.459 120.021 356.464 126.229 351.81 140.196Z" fill="#2F2E41"/>
<path d="M338.092 463.869L338.713 476.926C338.713 476.926 329.24 491.707 341.049 491.707C341.167 491.707 340.932 491.707 341.049 491.707C349.589 491.68 357.307 495.525 356.298 487.041L354.872 475.061L352.386 462.004L338.092 463.869Z" fill="#2F2E41"/>
<path d="M402.355 463.869L401.733 476.926C401.733 476.926 411.206 491.707 399.398 491.707C399.279 491.707 399.514 491.707 399.398 491.707C390.858 491.68 383.139 495.525 384.149 487.041L385.574 475.061L388.06 462.004L402.355 463.869Z" fill="#2F2E41"/>
<path d="M410.241 325.91L333.195 322.288C347.564 276.158 347.67 238.413 329.575 203.656C329.575 200.02 330.64 196.463 332.638 193.426C334.636 190.389 337.48 188.003 340.818 186.565L363.186 176.925L391.625 178.477L410.391 188.803C414.066 190.825 417.098 193.841 419.139 197.506C421.181 201.171 422.15 205.337 421.935 209.527C405.506 248.763 404.568 287.453 410.241 325.91Z" fill="#3F3D56"/>
<path d="M352.844 235.898L309.926 228.656L316.997 211.093C319.483 204.917 323.272 199.351 328.105 194.774C332.938 190.197 338.701 186.717 345 184.571L349.224 183.133L352.844 235.898Z" fill="#3F3D56"/>
<path d="M396.279 235.898L439.197 228.656L432.126 211.093C429.64 204.917 425.851 199.351 421.018 194.774C416.186 190.197 410.423 186.717 404.123 184.571L399.899 183.133L396.279 235.898Z" fill="#3F3D56"/>
</g>
<defs>
<clipPath id="clip0">
<rect width="442" height="497" fill="white"/>
</clipPath>
</defs>
</svg>
