<svg width="398" height="426" viewBox="0 0 398 426" fill="none" xmlns="http://www.w3.org/2000/svg">
<g filter="url(#filter0_d)">
<rect x="4" width="390" height="418" rx="15" fill="#F9F9F9"/>
<rect x="4" width="390" height="75" rx="15" fill="#387D7A"/>
<path d="M42.2227 44.2021C41.5 45.2373 40.4893 46.0137 39.1904 46.5312C37.9014 47.0391 36.3975 47.293 34.6787 47.293C32.9404 47.293 31.3975 46.8877 30.0498 46.0771C28.7021 45.2568 27.6572 44.0947 26.915 42.5908C26.1826 41.0869 25.8066 39.3438 25.7871 37.3613V35.501C25.7871 32.2881 26.5342 29.7979 28.0283 28.0303C29.5322 26.2627 31.6416 25.3789 34.3564 25.3789C36.583 25.3789 38.375 25.9502 39.7324 27.0928C41.0898 28.2256 41.9199 29.8369 42.2227 31.9268H39.4102C38.8828 29.1045 37.2031 27.6934 34.3711 27.6934C32.4863 27.6934 31.0557 28.3574 30.0791 29.6855C29.1123 31.0039 28.624 32.918 28.6143 35.4277V37.1709C28.6143 39.5635 29.1611 41.4678 30.2549 42.8838C31.3486 44.29 32.8281 44.9932 34.6934 44.9932C35.748 44.9932 36.6709 44.876 37.4619 44.6416C38.2529 44.4072 38.9072 44.0117 39.4248 43.4551L39.4248 38.665H34.4883V36.3799H42.2227V44.2021ZM54.1611 33.582C53.751 33.5137 53.3066 33.4795 52.8281 33.4795C51.0508 33.4795 49.8447 34.2363 49.21 35.75L49.21 47L46.5 47L46.5 31.1504H49.1367L49.1807 32.9814C50.0693 31.5654 51.3291 30.8574 52.96 30.8574C53.4873 30.8574 53.8877 30.9258 54.1611 31.0625V33.582ZM55.6553 38.9287C55.6553 37.376 55.958 35.9795 56.5635 34.7393C57.1787 33.499 58.0283 32.542 59.1123 31.8682C60.2061 31.1943 61.4512 30.8574 62.8477 30.8574C65.0059 30.8574 66.749 31.6045 68.0771 33.0986C69.415 34.5928 70.084 36.5801 70.084 39.0605V39.251C70.084 40.7939 69.7861 42.1807 69.1904 43.4111C68.6045 44.6318 67.7598 45.584 66.6562 46.2676C65.5625 46.9512 64.3027 47.293 62.877 47.293C60.7285 47.293 58.9854 46.5459 57.6475 45.0518C56.3193 43.5576 55.6553 41.5801 55.6553 39.1191V38.9287ZM58.3799 39.251C58.3799 41.0088 58.7852 42.4199 59.5957 43.4844C60.416 44.5488 61.5098 45.0811 62.877 45.0811C64.2539 45.0811 65.3477 44.5439 66.1582 43.4697C66.9688 42.3857 67.374 40.8721 67.374 38.9287C67.374 37.1904 66.959 35.7842 66.1289 34.71C65.3086 33.626 64.2148 33.084 62.8477 33.084C61.5098 33.084 60.4307 33.6162 59.6104 34.6807C58.79 35.7451 58.3799 37.2686 58.3799 39.251ZM79.8398 45.0811C80.8066 45.0811 81.6514 44.7881 82.374 44.2021C83.0967 43.6162 83.4971 42.8838 83.5752 42.0049H86.1387C86.0898 42.9131 85.7773 43.7773 85.2012 44.5977C84.625 45.418 83.8535 46.0723 82.8867 46.5605C81.9297 47.0488 80.9141 47.293 79.8398 47.293C77.6816 47.293 75.9629 46.5752 74.6836 45.1396C73.4141 43.6943 72.7793 41.7217 72.7793 39.2217V38.7676C72.7793 37.2246 73.0625 35.8525 73.6289 34.6514C74.1953 33.4502 75.0059 32.5176 76.0605 31.8535C77.125 31.1895 78.3799 30.8574 79.8252 30.8574C81.6025 30.8574 83.0771 31.3896 84.249 32.4541C85.4307 33.5186 86.0605 34.9004 86.1387 36.5996H83.5752C83.4971 35.5742 83.1064 34.7344 82.4033 34.0801C81.71 33.416 80.8506 33.084 79.8252 33.084C78.4482 33.084 77.3789 33.582 76.6172 34.5781C75.8652 35.5645 75.4893 36.9951 75.4893 38.8701V39.3828C75.4893 41.209 75.8652 42.6152 76.6172 43.6016C77.3691 44.5879 78.4434 45.0811 79.8398 45.0811ZM95.7627 47.293C93.6143 47.293 91.8662 46.5898 90.5186 45.1836C89.1709 43.7676 88.4971 41.8779 88.4971 39.5146V39.0166C88.4971 37.4443 88.7949 36.043 89.3906 34.8125C89.9961 33.5723 90.8359 32.6055 91.9102 31.9121C92.9941 31.209 94.166 30.8574 95.4258 30.8574C97.4863 30.8574 99.0879 31.5361 100.23 32.8936C101.373 34.251 101.944 36.1943 101.944 38.7236V39.8516H91.207C91.2461 41.4141 91.7002 42.6787 92.5693 43.6455C93.4482 44.6025 94.5615 45.0811 95.9092 45.0811C96.8662 45.0811 97.6768 44.8857 98.3408 44.4951C99.0049 44.1045 99.5859 43.5869 100.084 42.9424L101.739 44.2314C100.411 46.2725 98.4189 47.293 95.7627 47.293ZM95.4258 33.084C94.332 33.084 93.4141 33.4844 92.6719 34.2852C91.9297 35.0762 91.4707 36.1895 91.2949 37.625H99.2344V37.4199C99.1562 36.043 98.7852 34.9785 98.1211 34.2266C97.457 33.4648 96.5586 33.084 95.4258 33.084ZM112.755 33.582C112.345 33.5137 111.9 33.4795 111.422 33.4795C109.645 33.4795 108.438 34.2363 107.804 35.75V47H105.094V31.1504H107.73L107.774 32.9814C108.663 31.5654 109.923 30.8574 111.554 30.8574C112.081 30.8574 112.481 30.9258 112.755 31.0625V33.582ZM120.709 43.0303L124.4 31.1504H127.301L120.929 49.4463C119.942 52.083 118.375 53.4014 116.227 53.4014L115.714 53.3574L114.703 53.167V50.9697L115.436 51.0283C116.354 51.0283 117.066 50.8428 117.574 50.4717C118.092 50.1006 118.517 49.4219 118.849 48.4355L119.449 46.8242L113.795 31.1504H116.754L120.709 43.0303ZM140.118 47H137.408V24.5H140.118V47ZM147.413 47H144.703V31.1504H147.413V47ZM144.483 26.9463C144.483 26.5068 144.615 26.1357 144.879 25.833C145.152 25.5303 145.553 25.3789 146.08 25.3789C146.607 25.3789 147.008 25.5303 147.281 25.833C147.555 26.1357 147.691 26.5068 147.691 26.9463C147.691 27.3857 147.555 27.752 147.281 28.0449C147.008 28.3379 146.607 28.4844 146.08 28.4844C145.553 28.4844 145.152 28.3379 144.879 28.0449C144.615 27.752 144.483 27.3857 144.483 26.9463ZM160.992 42.7959C160.992 42.0635 160.714 41.4971 160.157 41.0967C159.61 40.6865 158.648 40.335 157.271 40.042C155.904 39.749 154.815 39.3975 154.005 38.9873C153.204 38.5771 152.608 38.0889 152.218 37.5225C151.837 36.9561 151.646 36.2822 151.646 35.501C151.646 34.2021 152.193 33.1035 153.287 32.2051C154.391 31.3066 155.797 30.8574 157.506 30.8574C159.303 30.8574 160.758 31.3213 161.871 32.249C162.994 33.1768 163.556 34.3633 163.556 35.8086H160.831C160.831 35.0664 160.514 34.4268 159.879 33.8896C159.254 33.3525 158.463 33.084 157.506 33.084C156.52 33.084 155.748 33.2988 155.191 33.7285C154.635 34.1582 154.356 34.7197 154.356 35.4131C154.356 36.0674 154.615 36.5605 155.133 36.8926C155.65 37.2246 156.583 37.542 157.931 37.8447C159.288 38.1475 160.387 38.5088 161.227 38.9287C162.066 39.3486 162.687 39.8564 163.087 40.4521C163.497 41.0381 163.702 41.7559 163.702 42.6055C163.702 44.0215 163.136 45.1592 162.003 46.0186C160.87 46.8682 159.4 47.293 157.594 47.293C156.324 47.293 155.201 47.0684 154.225 46.6191C153.248 46.1699 152.481 45.5449 151.925 44.7441C151.378 43.9336 151.104 43.0596 151.104 42.1221H153.814C153.863 43.0303 154.225 43.7529 154.898 44.29C155.582 44.8174 156.48 45.0811 157.594 45.0811C158.619 45.0811 159.439 44.876 160.055 44.4658C160.68 44.0459 160.992 43.4893 160.992 42.7959ZM170.909 27.3125V31.1504L173.868 31.1504V33.2451L170.909 33.2451V43.0742C170.909 43.709 171.041 44.1875 171.305 44.5098C171.568 44.8223 172.018 44.9785 172.652 44.9785C172.965 44.9785 173.395 44.9199 173.941 44.8027V47C173.229 47.1953 172.535 47.293 171.861 47.293C170.65 47.293 169.737 46.9268 169.122 46.1943C168.507 45.4619 168.199 44.4219 168.199 43.0742V33.2451H165.313V31.1504H168.199V27.3125H170.909Z" fill="white"/>
<path d="M79.917 112.521H73.9756V129H71.5508V112.521H65.6221V110.516H79.917V112.521ZM80.3994 122.005C80.3994 120.659 80.6618 119.449 81.1865 118.374C81.7197 117.299 82.4561 116.47 83.3955 115.886C84.3434 115.302 85.4225 115.01 86.6328 115.01C88.5033 115.01 90.014 115.657 91.165 116.952C92.3245 118.247 92.9043 119.969 92.9043 122.119V122.284C92.9043 123.621 92.6462 124.823 92.1299 125.89C91.6221 126.948 90.89 127.773 89.9336 128.365C88.9857 128.958 87.8939 129.254 86.6582 129.254C84.7962 129.254 83.2855 128.606 82.126 127.312C80.9749 126.017 80.3994 124.303 80.3994 122.17V122.005ZM82.7607 122.284C82.7607 123.808 83.112 125.031 83.8145 125.953C84.5254 126.876 85.4733 127.337 86.6582 127.337C87.8516 127.337 88.7995 126.871 89.502 125.94C90.2044 125.001 90.5557 123.689 90.5557 122.005C90.5557 120.498 90.196 119.28 89.4766 118.349C88.7656 117.409 87.8177 116.939 86.6328 116.939C85.4733 116.939 84.5381 117.401 83.8271 118.323C83.1162 119.246 82.7607 120.566 82.7607 122.284ZM98.0586 115.264L98.1221 116.787C99.1292 115.602 100.488 115.01 102.197 115.01C104.118 115.01 105.426 115.746 106.12 117.219C106.577 116.559 107.17 116.025 107.897 115.619C108.634 115.213 109.501 115.01 110.5 115.01C113.513 115.01 115.045 116.605 115.096 119.796V129H112.747V119.936C112.747 118.954 112.523 118.222 112.074 117.739C111.626 117.248 110.872 117.003 109.814 117.003C108.943 117.003 108.219 117.265 107.644 117.79C107.068 118.306 106.734 119.005 106.641 119.885V129H104.279V119.999C104.279 118.002 103.302 117.003 101.347 117.003C99.8063 117.003 98.7526 117.659 98.1855 118.971V129H95.8369V115.264H98.0586ZM127.131 129C126.995 128.729 126.885 128.247 126.801 127.553C125.709 128.687 124.406 129.254 122.891 129.254C121.536 129.254 120.424 128.873 119.552 128.111C118.688 127.341 118.257 126.368 118.257 125.191C118.257 123.761 118.799 122.652 119.882 121.865C120.974 121.07 122.506 120.672 124.478 120.672H126.763V119.593C126.763 118.772 126.517 118.12 126.026 117.638C125.535 117.147 124.812 116.901 123.855 116.901C123.018 116.901 122.315 117.113 121.748 117.536C121.181 117.959 120.897 118.471 120.897 119.072H118.536C118.536 118.387 118.777 117.727 119.26 117.092C119.751 116.449 120.411 115.941 121.24 115.568C122.078 115.196 122.996 115.01 123.995 115.01C125.578 115.01 126.818 115.408 127.715 116.203C128.612 116.99 129.077 118.078 129.111 119.466V125.788C129.111 127.049 129.272 128.052 129.594 128.797V129H127.131ZM123.233 127.21C123.97 127.21 124.668 127.02 125.328 126.639C125.988 126.258 126.466 125.763 126.763 125.153V122.335H124.922C122.044 122.335 120.605 123.177 120.605 124.861C120.605 125.598 120.851 126.173 121.342 126.588C121.833 127.003 122.463 127.21 123.233 127.21ZM135.979 111.938V115.264H138.544V117.079H135.979V125.598C135.979 126.148 136.094 126.563 136.322 126.842C136.551 127.113 136.94 127.248 137.49 127.248C137.761 127.248 138.133 127.197 138.607 127.096V129C137.99 129.169 137.389 129.254 136.805 129.254C135.755 129.254 134.964 128.937 134.431 128.302C133.897 127.667 133.631 126.766 133.631 125.598V117.079H131.13V115.264H133.631V111.938H135.979ZM140.423 122.005C140.423 120.659 140.685 119.449 141.21 118.374C141.743 117.299 142.479 116.47 143.419 115.886C144.367 115.302 145.446 115.01 146.656 115.01C148.527 115.01 150.037 115.657 151.188 116.952C152.348 118.247 152.928 119.969 152.928 122.119V122.284C152.928 123.621 152.67 124.823 152.153 125.89C151.646 126.948 150.913 127.773 149.957 128.365C149.009 128.958 147.917 129.254 146.682 129.254C144.82 129.254 143.309 128.606 142.149 127.312C140.998 126.017 140.423 124.303 140.423 122.17V122.005ZM142.784 122.284C142.784 123.808 143.135 125.031 143.838 125.953C144.549 126.876 145.497 127.337 146.682 127.337C147.875 127.337 148.823 126.871 149.525 125.94C150.228 125.001 150.579 123.689 150.579 122.005C150.579 120.498 150.219 119.28 149.5 118.349C148.789 117.409 147.841 116.939 146.656 116.939C145.497 116.939 144.562 117.401 143.851 118.323C143.14 119.246 142.784 120.566 142.784 122.284ZM161.573 129.254C159.711 129.254 158.196 128.645 157.028 127.426C155.86 126.199 155.276 124.561 155.276 122.513V122.081C155.276 120.718 155.535 119.504 156.051 118.438C156.576 117.363 157.303 116.525 158.234 115.924C159.174 115.314 160.189 115.01 161.281 115.01C163.067 115.01 164.455 115.598 165.445 116.774C166.436 117.951 166.931 119.635 166.931 121.827V122.805H157.625C157.659 124.159 158.052 125.255 158.806 126.093C159.567 126.922 160.532 127.337 161.7 127.337C162.53 127.337 163.232 127.168 163.808 126.829C164.383 126.491 164.887 126.042 165.318 125.483L166.753 126.601C165.602 128.369 163.875 129.254 161.573 129.254ZM161.281 116.939C160.333 116.939 159.538 117.286 158.895 117.98C158.251 118.666 157.854 119.631 157.701 120.875H164.582V120.697C164.514 119.504 164.193 118.581 163.617 117.93C163.042 117.27 162.263 116.939 161.281 116.939ZM177.658 125.356C177.658 124.722 177.417 124.231 176.935 123.884C176.461 123.528 175.627 123.224 174.434 122.97C173.249 122.716 172.305 122.411 171.603 122.056C170.909 121.7 170.392 121.277 170.054 120.786C169.724 120.295 169.559 119.711 169.559 119.034C169.559 117.909 170.033 116.956 170.98 116.178C171.937 115.399 173.156 115.01 174.637 115.01C176.194 115.01 177.455 115.412 178.42 116.216C179.393 117.02 179.88 118.048 179.88 119.301H177.519C177.519 118.658 177.243 118.103 176.693 117.638C176.152 117.172 175.466 116.939 174.637 116.939C173.782 116.939 173.113 117.126 172.631 117.498C172.148 117.87 171.907 118.357 171.907 118.958C171.907 119.525 172.132 119.952 172.58 120.24C173.029 120.528 173.837 120.803 175.005 121.065C176.181 121.328 177.133 121.641 177.861 122.005C178.589 122.369 179.127 122.809 179.474 123.325C179.829 123.833 180.007 124.455 180.007 125.191C180.007 126.419 179.516 127.405 178.534 128.149C177.552 128.886 176.279 129.254 174.713 129.254C173.613 129.254 172.639 129.059 171.793 128.67C170.947 128.281 170.282 127.739 169.8 127.045C169.326 126.342 169.089 125.585 169.089 124.772H171.438C171.48 125.56 171.793 126.186 172.377 126.651C172.969 127.108 173.748 127.337 174.713 127.337C175.602 127.337 176.312 127.159 176.846 126.804C177.387 126.44 177.658 125.957 177.658 125.356Z" fill="#121212"/>
<path fill-rule="evenodd" clip-rule="evenodd" d="M51.7083 107.375H31.2917C29.6875 107.375 28.375 108.688 28.375 110.292L28.375 130.708C28.375 132.312 29.6875 133.625 31.2917 133.625H51.7083C53.3125 133.625 54.625 132.312 54.625 130.708V110.292C54.625 108.688 53.3125 107.375 51.7083 107.375ZM51.7083 130.708H31.2917L31.2917 110.292H51.7083V130.708ZM48.1792 114.054L50.2354 116.125L38.5687 127.792L32.7354 121.973L34.8062 119.917L38.5687 123.665L48.1792 114.054Z" fill="#121212"/>
<path d="M71.583 168.764V176H69.1455V157.516H75.9629C77.9857 157.516 79.5684 158.032 80.7109 159.064C81.862 160.097 82.4375 161.464 82.4375 163.165C82.4375 164.959 81.8747 166.343 80.749 167.316C79.6318 168.281 78.028 168.764 75.9375 168.764H71.583ZM71.583 166.771H75.9629C77.2663 166.771 78.265 166.466 78.959 165.856C79.653 165.239 80 164.35 80 163.19C80 162.09 79.653 161.21 78.959 160.55C78.265 159.89 77.3128 159.547 76.1025 159.521H71.583V166.771ZM84.3799 169.005C84.3799 167.659 84.6423 166.449 85.167 165.374C85.7002 164.299 86.4365 163.47 87.376 162.886C88.3239 162.302 89.403 162.01 90.6133 162.01C92.4837 162.01 93.9945 162.657 95.1455 163.952C96.305 165.247 96.8848 166.969 96.8848 169.119V169.284C96.8848 170.621 96.6266 171.823 96.1104 172.89C95.6025 173.948 94.8704 174.773 93.9141 175.365C92.9661 175.958 91.8743 176.254 90.6387 176.254C88.7767 176.254 87.266 175.606 86.1064 174.312C84.9554 173.017 84.3799 171.303 84.3799 169.17V169.005ZM86.7412 169.284C86.7412 170.808 87.0924 172.031 87.7949 172.953C88.5059 173.876 89.4538 174.337 90.6387 174.337C91.832 174.337 92.7799 173.871 93.4824 172.94C94.1849 172.001 94.5361 170.689 94.5361 169.005C94.5361 167.498 94.1764 166.28 93.457 165.349C92.7461 164.409 91.7982 163.939 90.6133 163.939C89.4538 163.939 88.5186 164.401 87.8076 165.323C87.0967 166.246 86.7412 167.566 86.7412 169.284ZM103.017 158.938V162.264H105.581V164.079H103.017V172.598C103.017 173.148 103.131 173.562 103.359 173.842C103.588 174.113 103.977 174.248 104.527 174.248C104.798 174.248 105.171 174.197 105.645 174.096V176C105.027 176.169 104.426 176.254 103.842 176.254C102.792 176.254 102.001 175.937 101.468 175.302C100.935 174.667 100.668 173.766 100.668 172.598V164.079H98.167V162.264H100.668V158.938H103.017ZM116.816 176C116.681 175.729 116.571 175.247 116.486 174.553C115.395 175.687 114.091 176.254 112.576 176.254C111.222 176.254 110.109 175.873 109.237 175.111C108.374 174.341 107.942 173.368 107.942 172.191C107.942 170.761 108.484 169.652 109.567 168.865C110.659 168.07 112.191 167.672 114.163 167.672H116.448V166.593C116.448 165.772 116.203 165.12 115.712 164.638C115.221 164.147 114.497 163.901 113.541 163.901C112.703 163.901 112.001 164.113 111.434 164.536C110.867 164.959 110.583 165.471 110.583 166.072H108.222C108.222 165.387 108.463 164.727 108.945 164.092C109.436 163.449 110.096 162.941 110.926 162.568C111.764 162.196 112.682 162.01 113.681 162.01C115.263 162.01 116.503 162.408 117.4 163.203C118.298 163.99 118.763 165.078 118.797 166.466V172.788C118.797 174.049 118.958 175.052 119.279 175.797V176H116.816ZM112.919 174.21C113.655 174.21 114.354 174.02 115.014 173.639C115.674 173.258 116.152 172.763 116.448 172.153V169.335H114.607C111.73 169.335 110.291 170.177 110.291 171.861C110.291 172.598 110.536 173.173 111.027 173.588C111.518 174.003 112.149 174.21 112.919 174.21ZM125.665 158.938V162.264H128.229V164.079H125.665V172.598C125.665 173.148 125.779 173.562 126.008 173.842C126.236 174.113 126.626 174.248 127.176 174.248C127.447 174.248 127.819 174.197 128.293 174.096V176C127.675 176.169 127.074 176.254 126.49 176.254C125.441 176.254 124.649 175.937 124.116 175.302C123.583 174.667 123.316 173.766 123.316 172.598V164.079H120.815V162.264H123.316V158.938H125.665ZM130.108 169.005C130.108 167.659 130.371 166.449 130.896 165.374C131.429 164.299 132.165 163.47 133.104 162.886C134.052 162.302 135.132 162.01 136.342 162.01C138.212 162.01 139.723 162.657 140.874 163.952C142.034 165.247 142.613 166.969 142.613 169.119V169.284C142.613 170.621 142.355 171.823 141.839 172.89C141.331 173.948 140.599 174.773 139.643 175.365C138.695 175.958 137.603 176.254 136.367 176.254C134.505 176.254 132.994 175.606 131.835 174.312C130.684 173.017 130.108 171.303 130.108 169.17V169.005ZM132.47 169.284C132.47 170.808 132.821 172.031 133.523 172.953C134.234 173.876 135.182 174.337 136.367 174.337C137.561 174.337 138.508 173.871 139.211 172.94C139.913 172.001 140.265 170.689 140.265 169.005C140.265 167.498 139.905 166.28 139.186 165.349C138.475 164.409 137.527 163.939 136.342 163.939C135.182 163.939 134.247 164.401 133.536 165.323C132.825 166.246 132.47 167.566 132.47 169.284ZM151.259 176.254C149.397 176.254 147.882 175.645 146.714 174.426C145.546 173.199 144.962 171.561 144.962 169.513V169.081C144.962 167.718 145.22 166.504 145.736 165.438C146.261 164.363 146.989 163.525 147.92 162.924C148.859 162.314 149.875 162.01 150.967 162.01C152.753 162.01 154.141 162.598 155.131 163.774C156.121 164.951 156.616 166.635 156.616 168.827V169.805H147.311C147.344 171.159 147.738 172.255 148.491 173.093C149.253 173.922 150.218 174.337 151.386 174.337C152.215 174.337 152.918 174.168 153.493 173.829C154.069 173.491 154.572 173.042 155.004 172.483L156.438 173.601C155.287 175.369 153.561 176.254 151.259 176.254ZM150.967 163.939C150.019 163.939 149.223 164.286 148.58 164.98C147.937 165.666 147.539 166.631 147.387 167.875H154.268V167.697C154.2 166.504 153.878 165.581 153.303 164.93C152.727 164.27 151.949 163.939 150.967 163.939ZM167.344 172.356C167.344 171.722 167.103 171.231 166.62 170.884C166.146 170.528 165.312 170.224 164.119 169.97C162.934 169.716 161.991 169.411 161.288 169.056C160.594 168.7 160.078 168.277 159.739 167.786C159.409 167.295 159.244 166.711 159.244 166.034C159.244 164.909 159.718 163.956 160.666 163.178C161.622 162.399 162.841 162.01 164.322 162.01C165.88 162.01 167.141 162.412 168.105 163.216C169.079 164.02 169.565 165.048 169.565 166.301H167.204C167.204 165.658 166.929 165.103 166.379 164.638C165.837 164.172 165.152 163.939 164.322 163.939C163.467 163.939 162.799 164.126 162.316 164.498C161.834 164.87 161.593 165.357 161.593 165.958C161.593 166.525 161.817 166.952 162.266 167.24C162.714 167.528 163.522 167.803 164.69 168.065C165.867 168.328 166.819 168.641 167.547 169.005C168.275 169.369 168.812 169.809 169.159 170.325C169.515 170.833 169.692 171.455 169.692 172.191C169.692 173.419 169.201 174.405 168.22 175.149C167.238 175.886 165.964 176.254 164.398 176.254C163.298 176.254 162.325 176.059 161.479 175.67C160.632 175.281 159.968 174.739 159.485 174.045C159.011 173.342 158.774 172.585 158.774 171.772H161.123C161.165 172.56 161.479 173.186 162.062 173.651C162.655 174.108 163.434 174.337 164.398 174.337C165.287 174.337 165.998 174.159 166.531 173.804C167.073 173.44 167.344 172.957 167.344 172.356Z" fill="#121212"/>
<path fill-rule="evenodd" clip-rule="evenodd" d="M51.7083 152.375H31.2917C29.6875 152.375 28.375 153.688 28.375 155.292L28.375 175.708C28.375 177.312 29.6875 178.625 31.2917 178.625H51.7083C53.3125 178.625 54.625 177.312 54.625 175.708V155.292C54.625 153.688 53.3125 152.375 51.7083 152.375ZM51.7083 175.708H31.2917L31.2917 155.292H51.7083V175.708ZM48.1792 159.054L50.2354 161.125L38.5687 172.792L32.7354 166.973L34.8062 164.917L38.5687 168.665L48.1792 159.054Z" fill="#121212"/>
<path d="M74.5918 210.761C72.5013 210.16 70.9779 209.424 70.0215 208.552C69.0736 207.672 68.5996 206.588 68.5996 205.302C68.5996 203.846 69.1794 202.644 70.3389 201.696C71.5068 200.74 73.0218 200.262 74.8838 200.262C76.1533 200.262 77.2832 200.507 78.2734 200.998C79.2721 201.489 80.0423 202.166 80.584 203.029C81.1341 203.893 81.4092 204.836 81.4092 205.86H78.959C78.959 204.743 78.6035 203.867 77.8926 203.232C77.1816 202.589 76.1787 202.268 74.8838 202.268C73.682 202.268 72.7425 202.534 72.0654 203.067C71.3968 203.592 71.0625 204.324 71.0625 205.264C71.0625 206.017 71.3799 206.656 72.0146 207.181C72.6579 207.697 73.7454 208.171 75.2773 208.603C76.8177 209.034 78.0195 209.512 78.8828 210.037C79.7546 210.553 80.3978 211.159 80.8125 211.853C81.2357 212.547 81.4473 213.363 81.4473 214.303C81.4473 215.801 80.8633 217.003 79.6953 217.908C78.5273 218.805 76.9658 219.254 75.0107 219.254C73.7412 219.254 72.5563 219.013 71.4561 218.53C70.3558 218.039 69.5052 217.371 68.9043 216.524C68.3118 215.678 68.0156 214.717 68.0156 213.643H70.4658C70.4658 214.76 70.8763 215.644 71.6973 216.296C72.5267 216.939 73.6312 217.261 75.0107 217.261C76.2972 217.261 77.2832 216.998 77.9688 216.474C78.6543 215.949 78.9971 215.234 78.9971 214.328C78.9971 213.423 78.6797 212.724 78.0449 212.233C77.4102 211.734 76.2591 211.243 74.5918 210.761ZM86.4365 205.264L86.5127 206.99C87.5622 205.67 88.9333 205.01 90.626 205.01C93.529 205.01 94.9932 206.647 95.0186 209.923V219H92.6699V209.91C92.6615 208.92 92.4329 208.188 91.9844 207.714C91.5443 207.24 90.8545 207.003 89.915 207.003C89.1533 207.003 88.4847 207.206 87.9092 207.612C87.3337 208.019 86.8851 208.552 86.5635 209.212V219H84.2148V205.264H86.4365ZM107.041 219C106.906 218.729 106.796 218.247 106.711 217.553C105.619 218.687 104.316 219.254 102.801 219.254C101.447 219.254 100.334 218.873 99.4619 218.111C98.5986 217.341 98.167 216.368 98.167 215.191C98.167 213.761 98.7087 212.652 99.792 211.865C100.884 211.07 102.416 210.672 104.388 210.672H106.673V209.593C106.673 208.772 106.427 208.12 105.937 207.638C105.446 207.147 104.722 206.901 103.766 206.901C102.928 206.901 102.225 207.113 101.658 207.536C101.091 207.959 100.808 208.471 100.808 209.072H98.4463C98.4463 208.387 98.6875 207.727 99.1699 207.092C99.6608 206.449 100.321 205.941 101.15 205.568C101.988 205.196 102.907 205.01 103.905 205.01C105.488 205.01 106.728 205.408 107.625 206.203C108.522 206.99 108.988 208.078 109.021 209.466V215.788C109.021 217.049 109.182 218.052 109.504 218.797V219H107.041ZM103.144 217.21C103.88 217.21 104.578 217.02 105.238 216.639C105.898 216.258 106.377 215.763 106.673 215.153V212.335H104.832C101.954 212.335 100.516 213.177 100.516 214.861C100.516 215.598 100.761 216.173 101.252 216.588C101.743 217.003 102.373 217.21 103.144 217.21ZM118.213 217.337C119.051 217.337 119.783 217.083 120.409 216.575C121.035 216.067 121.382 215.433 121.45 214.671H123.672C123.63 215.458 123.359 216.207 122.859 216.918C122.36 217.629 121.691 218.196 120.854 218.619C120.024 219.042 119.144 219.254 118.213 219.254C116.342 219.254 114.853 218.632 113.744 217.388C112.644 216.135 112.094 214.425 112.094 212.259V211.865C112.094 210.528 112.339 209.339 112.83 208.298C113.321 207.257 114.023 206.449 114.938 205.873C115.86 205.298 116.948 205.01 118.2 205.01C119.741 205.01 121.019 205.471 122.034 206.394C123.058 207.316 123.604 208.514 123.672 209.986H121.45C121.382 209.098 121.044 208.37 120.435 207.803C119.834 207.227 119.089 206.939 118.2 206.939C117.007 206.939 116.08 207.371 115.42 208.234C114.768 209.089 114.442 210.329 114.442 211.954V212.398C114.442 213.981 114.768 215.2 115.42 216.055C116.072 216.91 117.003 217.337 118.213 217.337ZM130.146 212.64L128.674 214.176V219H126.325V199.5H128.674V211.294L129.931 209.783L134.209 205.264L137.065 205.264L131.721 211.002L137.688 219H134.933L130.146 212.64ZM147.488 215.356C147.488 214.722 147.247 214.231 146.765 213.884C146.291 213.528 145.457 213.224 144.264 212.97C143.079 212.716 142.135 212.411 141.433 212.056C140.739 211.7 140.222 211.277 139.884 210.786C139.554 210.295 139.389 209.711 139.389 209.034C139.389 207.909 139.863 206.956 140.811 206.178C141.767 205.399 142.986 205.01 144.467 205.01C146.024 205.01 147.285 205.412 148.25 206.216C149.223 207.02 149.71 208.048 149.71 209.301H147.349C147.349 208.658 147.074 208.103 146.523 207.638C145.982 207.172 145.296 206.939 144.467 206.939C143.612 206.939 142.943 207.126 142.461 207.498C141.979 207.87 141.737 208.357 141.737 208.958C141.737 209.525 141.962 209.952 142.41 210.24C142.859 210.528 143.667 210.803 144.835 211.065C146.011 211.328 146.964 211.641 147.691 212.005C148.419 212.369 148.957 212.809 149.304 213.325C149.659 213.833 149.837 214.455 149.837 215.191C149.837 216.419 149.346 217.405 148.364 218.149C147.382 218.886 146.109 219.254 144.543 219.254C143.443 219.254 142.469 219.059 141.623 218.67C140.777 218.281 140.112 217.739 139.63 217.045C139.156 216.342 138.919 215.585 138.919 214.772L141.268 214.772C141.31 215.56 141.623 216.186 142.207 216.651C142.799 217.108 143.578 217.337 144.543 217.337C145.432 217.337 146.143 217.159 146.676 216.804C147.217 216.44 147.488 215.957 147.488 215.356Z" fill="#121212"/>
<path fill-rule="evenodd" clip-rule="evenodd" d="M51.7083 197.375H31.2917C29.6875 197.375 28.375 198.688 28.375 200.292L28.375 220.708C28.375 222.312 29.6875 223.625 31.2917 223.625H51.7083C53.3125 223.625 54.625 222.312 54.625 220.708V200.292C54.625 198.688 53.3125 197.375 51.7083 197.375ZM51.7083 220.708H31.2917L31.2917 200.292H51.7083V220.708ZM48.1792 204.054L50.2354 206.125L38.5687 217.792L32.7354 211.973L34.8062 209.917L38.5687 213.665L48.1792 204.054Z" fill="#121212"/>
<path d="M320.648 21.74L301.82 21.74C298.74 21.74 296.234 24.2459 296.234 27.326V46.1541C296.234 49.2341 298.74 51.74 301.82 51.74L320.648 51.74C323.728 51.74 326.234 49.2341 326.234 46.1541V27.326C326.234 24.2459 323.728 21.74 320.648 21.74ZM324.477 46.1541C324.477 48.2649 322.759 49.9822 320.648 49.9822L301.82 49.9822C299.709 49.9822 297.992 48.2649 297.992 46.1541V27.326C297.992 25.2151 299.709 23.4978 301.82 23.4978L320.648 23.4978C322.759 23.4978 324.477 25.2151 324.477 27.326V46.1541Z" fill="white"/>
<path d="M319.707 35.8611L302.762 35.8611C302.276 35.8611 301.883 36.2546 301.883 36.74C301.883 37.2254 302.276 37.6189 302.762 37.6189L319.707 37.6189C320.192 37.6189 320.586 37.2254 320.586 36.74C320.586 36.2546 320.192 35.8611 319.707 35.8611Z" fill="white"/>
<g clip-path="url(#clip0)">
<path d="M363.329 32.4805C362.917 32.4805 362.582 32.7913 362.582 33.1747V46.2965C362.582 46.6797 362.917 46.9907 363.329 46.9907C363.741 46.9907 364.076 46.6797 364.076 46.2965V33.1747C364.076 32.7913 363.741 32.4805 363.329 32.4805Z" fill="white"/>
<path d="M354.519 32.4805C354.107 32.4805 353.773 32.7913 353.773 33.1747V46.2965C353.773 46.6797 354.107 46.9907 354.519 46.9907C354.932 46.9907 355.266 46.6797 355.266 46.2965V33.1747C355.266 32.7913 354.932 32.4805 354.519 32.4805Z" fill="white"/>
<path d="M348.099 30.5655V47.6708C348.099 48.6818 348.497 49.6313 349.194 50.3125C349.887 50.9957 350.852 51.3835 351.862 51.3851H365.988C366.998 51.3835 367.962 50.9957 368.655 50.3125C369.352 49.6313 369.75 48.6818 369.75 47.6708V30.5655C371.135 30.2238 372.032 28.98 371.847 27.659C371.661 26.3383 370.451 25.3503 369.019 25.35L365.196 25.35V24.4822C365.2 23.7524 364.89 23.0516 364.335 22.5361C363.779 22.0208 363.024 21.7339 362.239 21.7398H355.61C354.825 21.7339 354.07 22.0208 353.515 22.5361C352.959 23.0516 352.649 23.7524 352.653 24.4822V25.35H348.831C347.398 25.3503 346.188 26.3383 346.002 27.659C345.817 28.98 346.714 30.2238 348.099 30.5655ZM365.988 49.9966H351.862C350.585 49.9966 349.592 48.9769 349.592 47.6708V30.6265L368.257 30.6265V47.6708C368.257 48.9769 367.264 49.9966 365.988 49.9966ZM354.146 24.4822C354.141 24.1207 354.294 23.7727 354.57 23.5175C354.846 23.2623 355.221 23.1221 355.61 23.1284H362.239C362.628 23.1221 363.003 23.2623 363.279 23.5175C363.555 23.7725 363.708 24.1207 363.703 24.4822V25.35L354.146 25.35V24.4822ZM348.831 26.7386L369.019 26.7386C369.761 26.7386 370.363 27.2981 370.363 27.9883C370.363 28.6785 369.761 29.2379 369.019 29.2379L348.831 29.2379C348.088 29.2379 347.487 28.6785 347.487 27.9883C347.487 27.2981 348.088 26.7386 348.831 26.7386Z" fill="white"/>
<path d="M358.924 32.4805C358.512 32.4805 358.178 32.7913 358.178 33.1747V46.2965C358.178 46.6797 358.512 46.9907 358.924 46.9907C359.337 46.9907 359.671 46.6797 359.671 46.2965V33.1747C359.671 32.7913 359.337 32.4805 358.924 32.4805Z" fill="white"/>
</g>
</g>
<defs>
<filter id="filter0_d" x="0" y="0" width="398" height="426" filterUnits="userSpaceOnUse" color-interpolation-filters="sRGB">
<feFlood flood-opacity="0" result="BackgroundImageFix"/>
<feColorMatrix in="SourceAlpha" type="matrix" values="0 0 0 0 0 0 0 0 0 0 0 0 0 0 0 0 0 0 127 0"/>
<feOffset dy="4"/>
<feGaussianBlur stdDeviation="2"/>
<feColorMatrix type="matrix" values="0 0 0 0 0 0 0 0 0 0 0 0 0 0 0 0 0 0 0.25 0"/>
<feBlend mode="normal" in2="BackgroundImageFix" result="effect1_dropShadow"/>
<feBlend mode="normal" in="SourceGraphic" in2="effect1_dropShadow" result="shape"/>
</filter>
<clipPath id="clip0">
<rect width="31.8801" height="29.6454" fill="white" transform="translate(342.992 21.74)"/>
</clipPath>
</defs>
</svg>
