<svg width="29" height="44" viewBox="0 0 29 44" fill="none" xmlns="http://www.w3.org/2000/svg">
<path d="M0.625 44V0.25H6.0625V44H0.625ZM9.1875 25.0625V20.125H14.875C19.2917 20.0417 21.5208 17.5833 21.5625 12.75C21.4792 7.79167 18.9583 5.29167 14 5.25H9.1875V0.25H15C21.0417 0.458333 24.7708 2.97917 26.1875 7.8125C26.6042 9.1875 26.8125 10.6875 26.8125 12.3125C26.7708 17.1458 25.3333 20.5417 22.5 22.5C24.9167 23.7917 26.375 26.1458 26.875 29.5625C26.9167 29.8542 26.9583 30.1458 27 30.4375L28.0625 44H22.9375L22 32.875C21.6667 29.2917 20.75 27 19.25 26C18.25 25.3333 16.8958 25.0208 15.1875 25.0625H9.1875Z" fill="#229897"/>
</svg>
