<svg width="604" height="449" viewBox="0 0 604 449" fill="none" xmlns="http://www.w3.org/2000/svg">
<g clip-path="url(#clip0)">
<path opacity="0.1" d="M350.928 62.947C312.207 61.9478 275.328 52.6613 240.113 42.5012C204.897 32.3411 170.017 21.0621 132.223 15.6769C107.914 12.2124 80.1113 11.7218 60.5292 21.4092C41.677 30.7196 35.5864 46.7914 32.3138 61.7503C29.8488 72.9814 28.4009 84.799 35.1497 95.3121C39.8403 102.612 48.1565 108.745 53.9121 115.74C73.9369 140.069 59.7813 170.065 38.0873 193.819C27.9163 204.961 16.1 215.588 8.24445 227.453C0.388876 239.318 -3.24276 252.901 3.63162 265.006C10.4402 276.973 26.6719 286.002 44.2557 292.339C79.9677 305.209 122.034 308.889 163.083 310.977C253.921 315.597 345.239 313.592 436.317 311.576C470.024 310.834 503.876 310.086 537.033 306.191C555.449 304.042 574.456 300.626 587.828 292.386C604.796 281.927 609.002 264.216 597.628 251.1C578.555 229.098 525.833 223.629 512.485 200.018C505.15 187.022 512.683 172.548 523.35 160.491C546.229 134.636 584.573 111.952 586.59 82.3936C587.978 62.0973 569.544 41.7652 541.042 32.1616C511.169 22.0973 469.737 23.3598 447.708 40.024C425.003 57.2028 385.121 63.8086 350.928 62.947Z" fill="#00A5CF"/>
<g opacity="0.8">
<path opacity="0.8" d="M561.659 106.974C561.659 106.974 554.91 104.234 533.443 114.082C511.977 123.931 509.296 122.681 503.738 121.173C498.18 119.665 495.081 119.312 489.122 111.091C489.122 111.091 484.934 88.3113 480.854 84.763C476.773 81.2148 459.506 86.7795 459.506 86.7795C459.506 86.7795 438.794 91.5424 434.821 63.8445C434.821 63.8445 437.621 42.9739 433.804 36.5655C433.804 36.5655 441.51 39.8864 454.218 34.5251C466.925 29.1638 477.096 40.3052 477.096 40.3052C477.096 40.3052 480.303 48.6044 479.968 53.5468C479.633 58.4892 481.661 60.3561 487.746 57.9627C487.746 57.9627 490.737 53.7263 486.507 46.7256C482.277 39.7248 479.28 34.5072 480.459 29.0681C481.637 23.629 485.018 16.0958 495.889 12.3141C506.76 8.53254 521.531 7.82648 528.621 4.90651C535.711 1.98653 537.422 0.0299072 537.422 0.0299072C537.422 0.0299072 533.061 4.40389 543.339 22.929C553.618 41.4541 547.067 49.5019 547.067 49.5019C547.067 49.5019 541.598 62.5341 517.463 61.4691C517.463 61.4691 494.207 62.3187 506.885 72.1796C506.885 72.1796 515.004 70.5282 527.149 66.6688C539.295 62.8094 548.048 78.7376 550.226 89.8191C552.403 100.901 561.659 106.974 561.659 106.974Z" fill="#00A5CF"/>
<path opacity="0.8" d="M530.404 14.0554L530.53 14.0195C531.463 17.5558 521.071 31.7607 512.186 43.0577L512.084 42.9799C524.613 27.0457 531.146 16.7719 530.404 14.0554Z" fill="#444053"/>
<path opacity="0.8" d="M512.264 42.7465L512.318 42.8901C505.222 51.9133 496.295 62.6837 489.152 70.6598C488.47 71.4197 487.794 72.2155 487.148 73.0532L486.938 72.8917C487.596 72.0719 488.272 71.2701 488.954 70.4982C496.098 62.5102 505.174 51.7637 512.264 42.7465Z" fill="#444053"/>
<path opacity="0.8" d="M487.112 72.6523L487.255 72.8917C474.254 89.1251 473.393 114.328 473.363 114.549L470.623 111.414C470.653 111.162 474.021 88.9934 487.112 72.6523Z" fill="#444053"/>
<path opacity="0.8" d="M546.588 98.1722C546.588 98.1722 531.26 90.2021 519.312 93.0622C507.364 95.9224 480.471 82.95 480.471 82.95C480.471 82.95 469.049 78.3128 466.752 73.0233C466.752 73.0233 458.92 64.7361 458.471 60.4578C458.023 56.1796 450.376 45.3853 445.423 44.9963" stroke="#444053" stroke-miterlimit="10"/>
<path opacity="0.8" d="M544.368 105.843C544.368 105.843 536.65 100.643 537.548 94.576" stroke="#444053" stroke-miterlimit="10"/>
<path opacity="0.8" d="M532.528 112.563C532.528 112.563 521.484 108.554 520.377 92.8169" stroke="#444053" stroke-miterlimit="10"/>
<path opacity="0.8" d="M514.711 116.631C514.711 116.631 504.157 107.878 507.663 92.5776" stroke="#444053" stroke-miterlimit="10"/>
<path opacity="0.8" d="M493.298 112.353C493.298 112.353 486.274 97.6157 492.526 88.03" stroke="#444053" stroke-miterlimit="10"/>
<path opacity="0.8" d="M546.767 88.4549C546.767 88.4549 538.78 90.9919 540.497 95.1924" stroke="#444053" stroke-miterlimit="10"/>
<path opacity="0.8" d="M537.129 73.9627C537.129 73.9627 526.443 77.3494 526.192 92.4699" stroke="#444053" stroke-miterlimit="10"/>
<path opacity="0.8" d="M522.231 70.4743C522.231 70.4743 512.509 82.4773 513.197 93.3853" stroke="#444053" stroke-miterlimit="10"/>
<path opacity="0.8" d="M505.204 75.1833C505.204 75.1833 495.542 84.416 496.774 89.5439" stroke="#444053" stroke-miterlimit="10"/>
<path opacity="0.8" d="M499.377 71.9223C499.377 71.9223 490.319 73.5439 489.056 70.5701" stroke="#444053" stroke-miterlimit="10"/>
<path opacity="0.8" d="M487.608 60.9844C487.608 60.9844 492.185 67.0457 493.364 65.6875" stroke="#444053" stroke-miterlimit="10"/>
<path opacity="0.8" d="M532.971 57.1489C532.971 57.1489 510.14 58.8064 504.977 51.9253" stroke="#444053" stroke-miterlimit="10"/>
<path opacity="0.8" d="M482.804 30.4443C482.804 30.4443 493.519 53.4391 501.297 56.371" stroke="#444053" stroke-miterlimit="10"/>
<path opacity="0.8" d="M494.052 19.4884C494.052 19.4884 500.633 40.6403 508.782 47.2461" stroke="#444053" stroke-miterlimit="10"/>
<path opacity="0.8" d="M542.579 39.6949C542.579 39.6949 525.229 47.1444 514.795 39.6051" stroke="#444053" stroke-width="0.75" stroke-miterlimit="10"/>
<path opacity="0.8" d="M509.512 14.9768C509.512 14.9768 513.478 30.5341 518.821 34.2858" stroke="#444053" stroke-width="0.75" stroke-miterlimit="10"/>
<path opacity="0.8" d="M539.959 22.2588C539.959 22.2588 530.201 25.9507 526.557 23.1205" stroke="#444053" stroke-width="0.75" stroke-miterlimit="10"/>
<path opacity="0.8" d="M479.25 66.0645C479.25 66.0645 479.25 79.6172 475.559 80.5806" stroke="#444053" stroke-miterlimit="10"/>
<path opacity="0.8" d="M449.084 83.6261C449.084 83.6261 463.742 84.8827 470.497 77.3195" stroke="#444053" stroke-miterlimit="10"/>
<path opacity="0.8" d="M475.469 50.0524C475.469 50.0524 471.927 63.8146 462.145 67.5005" stroke="#444053" stroke-miterlimit="10"/>
<path opacity="0.8" d="M440.295 69.146C440.295 69.146 450.67 72.7361 459.59 63.5693" stroke="#444053" stroke-miterlimit="10"/>
<path opacity="0.8" d="M463.94 38.2349C463.94 38.2349 462.959 49.9088 456.611 55.3718" stroke="#444053" stroke-miterlimit="10"/>
<path opacity="0.8" d="M440.69 51.3569C440.69 51.3569 449.3 51.4107 451.316 48.6104" stroke="#444053" stroke-miterlimit="10"/>
</g>
<path opacity="0.1" d="M157.273 449C229.306 449 287.701 444.848 287.701 439.725C287.701 434.603 229.306 430.451 157.273 430.451C85.2398 430.451 26.8454 434.603 26.8454 439.725C26.8454 444.848 85.2398 449 157.273 449Z" fill="#00A5CF"/>
<path d="M232.831 389.23C234.626 386.005 236.774 382.965 238.509 379.698C240.095 376.707 241.333 373.535 242.763 370.46C245.21 365.194 248.226 360.216 250.972 355.094C252.767 351.737 254.502 348.081 254.155 344.288C253.826 340.698 251.72 337.586 250.906 334.116C247.591 319.869 239.616 306.789 234.752 293.009C233.508 289.514 232.299 285.996 230.743 282.621C227.752 276.129 223.564 270.295 219.376 264.509C217.867 262.298 216.186 260.21 214.35 258.262C212.848 256.76 211.161 255.438 209.797 253.81C206.985 250.46 205.669 245.637 202.151 243.04C202.091 243.196 202.025 243.345 201.96 243.501C199.441 237.068 190.993 232.826 186.093 227.495C183.24 224.239 180.616 220.79 178.237 217.173L167.57 201.754C165.733 199.097 163.86 196.368 163.118 193.203C162.209 189.386 163.053 185.317 162.155 181.499C161.581 179.201 160.463 177.075 158.894 175.3C158.996 175.27 159.104 175.228 159.212 175.204C161.246 174.66 163.4 174.564 165.416 174.08C169.813 173.032 173.636 170.22 178.016 169.095C180.254 168.497 182.641 168.377 184.669 167.3C185.655 166.71 186.433 165.827 186.894 164.774C187.355 163.72 187.477 162.55 187.242 161.424C185.824 153.915 189.784 146.304 189.114 138.687C188.935 136.581 188.396 134.528 188.049 132.44C187.242 127.593 187.391 122.627 187.678 117.709C189.044 115.492 190.682 113.456 192.554 111.647C195.247 109.05 198.46 106.86 200.332 103.611C201.966 100.733 202.36 97.2567 201.948 93.9658C201.654 91.5723 200.841 89.0533 198.956 87.5993C197.072 86.1453 194.367 86.0376 192.088 86.7975C191.771 86.8992 191.46 87.0248 191.154 87.1565C190.202 86.6796 189.162 86.4018 188.098 86.3401C187.035 86.2784 185.97 86.434 184.968 86.7975C182.695 87.5514 180.744 89.0533 178.913 90.615C177.828 91.466 176.876 92.4744 176.089 93.6068C174.935 95.4018 174.6 97.6157 174.163 99.7279C173.234 103.805 171.881 107.774 170.124 111.569C169.801 112.24 168.928 113.442 168.222 114.591L166.942 114.328C166.385 119.659 161.922 123.572 159.206 128.18C157.883 130.418 156.956 132.865 155.765 135.18C154.407 137.701 152.89 140.133 151.224 142.462C149.609 144.856 147.992 147.227 146.372 149.577C144.343 152.663 142.146 155.635 139.791 158.48C137.595 158.301 135.4 158.139 133.21 158.103C129.534 158.051 125.863 158.378 122.255 159.079C122.045 157.81 121.915 156.529 121.866 155.243C121.866 155.166 121.866 155.088 121.866 155.01C121.866 154.699 121.902 154.328 121.944 153.927C125.053 151.844 127.584 149.007 129.3 145.681C131.016 142.354 131.86 138.647 131.754 134.906C131.648 131.165 130.596 127.511 128.695 124.287C126.794 121.063 124.107 118.374 120.885 116.47C121.004 115.797 121.08 115.118 121.112 114.435C121.112 114.035 121.112 113.628 121.112 113.239C121.112 113.035 121.112 112.832 121.07 112.64C121.033 112.237 120.965 111.837 120.867 111.444C120.819 111.252 120.765 111.061 120.7 110.845C120.572 110.47 120.406 110.109 120.203 109.768C120.19 109.747 120.176 109.727 120.161 109.708C120.083 109.583 120.005 109.457 119.916 109.338C119.826 109.218 119.838 109.242 119.802 109.194C119.739 109.106 119.671 109.022 119.599 108.943L119.449 108.787C119.383 108.715 119.317 108.643 119.246 108.578L119.078 108.428L118.869 108.243L118.677 108.099L118.462 107.937L118.252 107.8L118.037 107.662C117.965 107.614 117.888 107.572 117.81 107.53L117.588 107.405L117.349 107.285L117.128 107.177L116.864 107.064L116.649 106.968L116.362 106.86L116.158 106.783L115.847 106.675L115.662 106.615L115.321 106.507L115.159 106.459L114.788 106.358L114.645 106.316L114.256 106.22L114.142 106.19L113.711 106.094H113.64L113.005 105.957C110.385 105.418 107.748 104.954 105.096 104.563C102.924 104.24 100.699 103.964 98.5567 104.449C95.6011 105.107 93.1362 107.106 90.3721 108.344C87.1054 109.816 83.4797 110.205 79.9977 111.013C76.5156 111.821 72.9318 113.203 70.7481 116.057C69.0848 118.235 68.4207 121.005 67.9241 123.704C63.784 146.226 68.2472 169.329 69.0908 192.222C69.4199 201.131 69.019 210.657 63.9694 217.951L78.6754 217.562C79.3814 217.562 80.0934 217.52 80.8114 217.478C81.5293 217.436 82.2473 217.383 82.9532 217.299C84.8183 217.124 86.6302 216.581 88.284 215.701C89.0499 215.265 89.7491 214.721 90.3601 214.086C92.3584 212.027 93.4234 209.149 94.3986 206.397C94.7276 205.469 95.0567 204.53 95.3499 203.584C95.4695 203.19 95.5832 202.795 95.6849 202.388L95.7328 202.196L95.9003 202.274C96.4986 203.399 97.1747 204.5 97.8926 205.565C100.459 209.347 103.714 212.578 106.945 215.791C113.364 222.163 119.928 228.65 127.975 232.742C130.691 234.113 133.629 235.267 135.699 237.529C136.716 238.624 137.595 240.03 139.037 240.407C139.935 240.641 140.922 240.407 141.777 240.79C143.034 241.317 143.494 242.831 144.075 244.075C144.655 245.32 145.965 246.588 147.21 246.02C146.977 247.175 147.073 248.373 147.487 249.477C147.902 250.58 148.619 251.545 149.555 252.261C150.158 252.595 150.677 253.062 151.075 253.625C151.266 254.139 151.372 254.68 151.386 255.229C151.642 256.757 152.448 258.138 153.653 259.112C152.487 261.045 153.42 263.815 153.45 266.226C153.45 268.249 152.786 270.199 152.331 272.168C151.009 277.942 151.733 283.986 152.81 289.808C153.408 293.021 154.168 296.348 156.262 298.843C156.944 299.65 157.758 300.351 158.476 301.134C159.846 302.679 160.985 304.414 161.856 306.286C163.672 309.993 164.909 313.956 165.524 318.038C165.813 320.086 166.397 322.081 167.259 323.962C168.569 326.822 167.372 330.34 168.545 333.26C169.077 334.57 170.059 335.689 170.376 337.06C170.824 339.052 169.777 341.045 169.496 343.073C168.814 347.824 172.242 352.234 172.554 357.021C172.604 357.302 172.544 357.591 172.386 357.829C172.153 358.092 171.752 358.086 171.435 358.235C170.836 358.523 170.675 359.33 170.483 360.001C170.292 360.671 169.754 361.431 169.089 361.227C159.259 366.487 149.083 371.345 139.253 376.605L134.765 378.998L110.768 391.821C110.476 391.966 110.232 392.19 110.061 392.467C109.891 392.744 109.802 393.063 109.805 393.389C109.805 393.676 109.84 393.987 109.864 394.256C108.183 394.675 106.568 395.178 105.419 395.387C104.946 395.477 104.474 395.567 104.007 395.669C104.121 395.487 104.194 395.283 104.223 395.07C104.224 394.775 104.117 394.49 103.922 394.269C103.727 394.048 103.457 393.907 103.164 393.873C102.577 393.815 101.986 393.893 101.434 394.101C100.063 394.476 98.6617 394.734 97.2464 394.873C95.5652 395.034 93.8541 395.028 92.2268 395.471C90.5994 395.914 88.996 396.901 88.3379 398.463C88.0086 399.366 87.8622 400.326 87.9071 401.287C87.8707 404.986 88.309 408.674 89.2114 412.261C89.2257 412.403 89.2725 412.54 89.3482 412.662C89.4239 412.783 89.5266 412.886 89.6481 412.961C89.8575 413.045 90.1088 412.961 90.3182 413.057C90.5025 413.168 90.6406 413.342 90.7071 413.547C91.7122 415.833 91.9456 418.382 92.2148 420.871C92.6137 424.561 93.1182 428.241 93.7285 431.911C94.0875 434.053 94.5302 436.291 95.9242 437.942C97.4558 439.737 99.8789 440.533 102.218 440.85C107.154 441.515 112.138 440.515 117.008 439.492C117.917 439.301 118.893 439.067 119.503 438.361C119.949 437.798 120.163 437.085 120.101 436.369C119.988 433.909 117.75 432.18 115.716 430.798L112.94 428.877C112.703 428.751 112.515 428.55 112.407 428.305C112.298 428.059 112.275 427.785 112.341 427.525L112.521 423.893H111.982C112.581 421.332 113.544 418.873 115.429 417.114C116.727 415.917 118.42 415.079 119.778 413.99C121.521 415.33 123.631 416.105 125.827 416.21C129.417 411.375 134.472 408.084 139.528 404.841C143.634 402.247 147.878 399.878 152.241 397.745C155.775 395.998 159.365 394.36 163.011 392.832C168.156 390.666 173.397 388.734 178.644 386.849C182.144 385.592 185.674 384.354 188.899 382.499C197.275 377.658 203.192 367.995 202.061 358.319C200.637 346.113 203.683 333.392 203.479 321.102C203.419 317.511 203.288 313.921 202.199 310.481C202.452 310.66 202.69 310.86 202.911 311.079C205.089 313.113 205.615 316.345 207.697 318.666C209.319 320.491 211.784 321.658 212.765 323.884C213.513 325.589 213.405 327.893 214.966 328.874C215.409 329.155 215.936 329.275 216.378 329.55C216.908 329.928 217.354 330.411 217.689 330.968C219.346 333.332 221.063 335.863 221.243 338.747C221.32 339.89 221.213 341.212 222.05 341.984C222.29 342.206 222.595 342.367 222.72 342.666C222.984 343.265 222.29 343.899 222.17 344.563C221.996 345.484 222.906 346.185 223.468 346.956C223.937 347.6 224.19 348.377 224.19 349.173C224.19 349.97 223.937 350.746 223.468 351.39C218.562 357.763 217.677 366.349 213.387 373.164C211.903 375.516 210.252 377.742 208.816 380.123C204.401 387.435 202.169 395.836 200.003 404.111C200.928 405.722 202.182 407.121 203.683 408.216C202.872 411.003 201.475 413.583 199.584 415.785C199.102 416.324 198.65 416.889 198.232 417.479C197.881 417.034 197.422 416.688 196.898 416.473C196.111 419.908 195.71 423.421 195.701 426.945C195.701 429.266 196.019 431.917 197.903 433.257C198.655 433.731 199.483 434.073 200.35 434.268L204.454 435.465C205.177 435.742 205.96 435.819 206.722 435.687C207.207 435.549 207.637 435.25 208.134 435.154C208.674 435.098 209.219 435.17 209.725 435.363L213.273 436.399C214.473 436.718 215.645 437.132 216.779 437.637C217.79 438.122 218.724 438.75 219.717 439.289C221.368 440.123 223.083 440.828 224.844 441.395L230.959 443.501C232.662 444.176 234.443 444.639 236.26 444.877C237.516 444.985 238.79 444.877 240.029 445.093C240.974 445.254 241.89 445.595 242.841 445.691C244.42 445.738 245.972 445.277 247.268 444.375C247.775 444.089 248.212 443.694 248.549 443.22C249.446 441.82 248.674 439.971 247.801 438.559C246.179 435.938 244.151 433.485 241.477 431.977C240.394 431.378 239.221 430.936 238.102 430.385C234.92 428.829 232.52 426.233 229.511 424.455C229.127 424.182 228.661 424.05 228.191 424.082C227.721 424.113 227.276 424.307 226.932 424.629C224.431 423.007 221.727 421.422 220.351 418.783C219.738 417.51 219.334 416.146 219.154 414.744C220.56 415.079 221.978 415.342 223.408 415.576C225.736 406.553 228.278 397.368 232.831 389.23ZM175.354 134.038C175.234 134.714 175.102 135.384 174.959 136.054C173.762 141.673 172.051 147.967 168.138 152.15C166.851 153.376 165.356 154.363 163.723 155.064L163.286 155.279C166.104 147.752 170.591 140.775 175.354 134.038Z" fill="url(#paint0_linear)"/>
<path d="M181.145 100.709C181.588 98.6209 181.923 96.431 183.077 94.6299C183.867 93.4975 184.821 92.4892 185.907 91.6381C187.738 90.0884 189.695 88.5985 191.974 87.8446C194.254 87.0906 196.934 87.1923 198.848 88.6404C200.763 90.0884 201.571 92.5835 201.87 94.965C202.277 98.238 201.87 101.685 200.248 104.539C198.394 107.776 195.175 109.924 192.471 112.521C190.511 114.395 188.808 116.52 187.403 118.839C186.764 120.048 185.989 121.181 185.094 122.214C184.64 122.728 184.071 123.129 183.434 123.383C182.797 123.638 182.11 123.74 181.426 123.68C180.271 123.495 179.332 122.693 178.435 121.927C177.328 120.958 174.348 119.228 174.247 117.691C174.175 116.446 176.502 113.622 177.071 112.455C178.839 108.694 180.205 104.757 181.145 100.709Z" fill="#FBBEBE"/>
<path opacity="0.1" d="M181.145 100.709C181.588 98.6209 181.923 96.431 183.077 94.6299C183.867 93.4975 184.821 92.4892 185.907 91.6381C187.738 90.0884 189.695 88.5985 191.974 87.8446C194.254 87.0906 196.934 87.1923 198.848 88.6404C200.763 90.0884 201.571 92.5835 201.87 94.965C202.277 98.238 201.87 101.685 200.248 104.539C198.394 107.776 195.175 109.924 192.471 112.521C190.511 114.395 188.808 116.52 187.403 118.839C186.764 120.048 185.989 121.181 185.094 122.214C184.64 122.728 184.071 123.129 183.434 123.383C182.797 123.638 182.11 123.74 181.426 123.68C180.271 123.495 179.332 122.693 178.435 121.927C177.328 120.958 174.348 119.228 174.247 117.691C174.175 116.446 176.502 113.622 177.071 112.455C178.839 108.694 180.205 104.757 181.145 100.709Z" fill="black"/>
<path d="M118.324 160.515C123.118 159.24 128.065 158.636 133.024 158.72C141.299 158.839 149.818 160.844 157.698 158.307C159.732 157.601 161.71 156.743 163.615 155.74C165.2 154.95 166.816 154.136 168.03 152.844C171.949 148.691 173.636 142.439 174.863 136.856C176.089 131.273 176.406 125.541 176.724 119.839C178.764 120.79 180.912 121.729 183.173 121.538C185.435 121.347 187.69 119.623 187.678 117.349C187.343 122.633 187.08 127.982 187.971 133.2C188.318 135.27 188.857 137.311 189.042 139.405C189.713 146.968 185.746 154.525 187.164 161.987C187.398 163.106 187.276 164.271 186.814 165.317C186.353 166.363 185.575 167.239 184.591 167.821C182.557 168.916 180.164 169.053 177.926 169.616C173.541 170.735 169.712 173.523 165.308 174.564C163.256 175.049 161.12 175.163 159.098 175.683C156.19 176.449 153.552 178.112 150.59 178.639C148.371 179.034 146.085 178.765 143.841 178.956C141.891 179.118 139.976 179.632 138.02 179.68C133.234 179.8 128.705 177.089 125.522 173.493C122.339 169.897 120.323 164.871 118.324 160.515Z" fill="#00A5CF"/>
<path opacity="0.1" d="M118.324 160.515C123.118 159.24 128.065 158.636 133.024 158.72C141.299 158.839 149.818 160.844 157.698 158.307C159.732 157.601 161.71 156.743 163.615 155.74C165.2 154.95 166.816 154.136 168.03 152.844C171.949 148.691 173.636 142.439 174.863 136.856C176.089 131.273 176.406 125.541 176.724 119.839C178.764 120.79 180.912 121.729 183.173 121.538C185.435 121.347 187.69 119.623 187.678 117.349C187.343 122.633 187.08 127.982 187.971 133.2C188.318 135.27 188.857 137.311 189.042 139.405C189.713 146.968 185.746 154.525 187.164 161.987C187.398 163.106 187.276 164.271 186.814 165.317C186.353 166.363 185.575 167.239 184.591 167.821C182.557 168.916 180.164 169.053 177.926 169.616C173.541 170.735 169.712 173.523 165.308 174.564C163.256 175.049 161.12 175.163 159.098 175.683C156.19 176.449 153.552 178.112 150.59 178.639C148.371 179.034 146.085 178.765 143.841 178.956C141.891 179.118 139.976 179.632 138.02 179.68C133.234 179.8 128.705 177.089 125.522 173.493C122.339 169.897 120.323 164.871 118.324 160.515Z" fill="black"/>
<path d="M333.488 167.869C341.634 167.869 349.597 170.285 356.371 174.811C363.144 179.337 368.423 185.771 371.54 193.298C374.657 200.825 375.472 209.107 373.883 217.098C372.293 225.088 368.37 232.427 362.609 238.188C356.849 243.948 349.509 247.871 341.52 249.459C333.53 251.048 325.248 250.232 317.723 247.113C310.197 243.994 303.765 238.714 299.24 231.939C294.715 225.165 292.3 217.2 292.302 209.053C292.303 198.13 296.643 187.655 304.367 179.931C312.091 172.208 322.566 167.869 333.488 167.869ZM333.488 157.697C323.33 157.697 313.401 160.709 304.955 166.353C296.509 171.997 289.926 180.019 286.04 189.405C282.153 198.791 281.136 209.118 283.118 219.082C285.1 229.046 289.992 238.198 297.175 245.381C304.358 252.564 313.51 257.455 323.472 259.436C333.435 261.417 343.762 260.399 353.146 256.511C362.53 252.622 370.551 246.038 376.193 237.591C381.836 229.143 384.847 219.212 384.846 209.053C384.83 195.437 379.414 182.382 369.785 172.754C360.157 163.126 347.104 157.711 333.488 157.697Z" fill="#3F3D56"/>
<path d="M337.921 145.682H325.884V158.355H337.921V145.682Z" fill="#3F3D56"/>
<path d="M369.711 157.023L359.392 150.822L352.866 161.685L363.184 167.886L369.711 157.023Z" fill="#3F3D56"/>
<path d="M390.871 182.104L385.035 171.575L373.952 177.719L379.788 188.249L390.871 182.104Z" fill="#3F3D56"/>
<path d="M384.877 246.187L391.256 235.977L380.51 229.261L374.131 239.471L384.877 246.187Z" fill="#3F3D56"/>
<path d="M287.192 188.245L293.028 177.715L281.945 171.571L276.109 182.1L287.192 188.245Z" fill="#3F3D56"/>
<path d="M292.851 239.466L286.472 229.257L275.725 235.972L282.104 246.182L292.851 239.466Z" fill="#3F3D56"/>
<path d="M303.789 167.885L314.108 161.684L307.581 150.821L297.263 157.022L303.789 167.885Z" fill="#3F3D56"/>
<path d="M337.921 259.752H325.884V272.425H337.921V259.752Z" fill="#3F3D56"/>
<path d="M363.186 250.224L352.868 256.425L359.394 267.288L369.712 261.087L363.186 250.224Z" fill="#3F3D56"/>
<path d="M297.265 261.088L307.583 267.288L314.109 256.425L303.791 250.225L297.265 261.088Z" fill="#3F3D56"/>
<path d="M283.435 203.985H268.861V214.756H283.435V203.985Z" fill="#3F3D56"/>
<path d="M383.541 214.756H398.116V203.985H383.541V214.756Z" fill="#3F3D56"/>
<path d="M429.167 93.7264C437.313 93.7264 445.276 96.1424 452.05 100.669C458.823 105.195 464.102 111.629 467.219 119.156C470.336 126.683 471.151 134.965 469.562 142.955C467.972 150.946 464.049 158.285 458.288 164.046C452.528 169.806 445.188 173.729 437.198 175.317C429.209 176.906 420.927 176.089 413.402 172.971C405.876 169.852 399.444 164.572 394.919 157.797C390.394 151.023 387.979 143.058 387.981 134.911C387.982 123.988 392.322 113.512 400.046 105.789C407.77 98.0653 418.245 93.7264 429.167 93.7264ZM429.167 83.5544C419.009 83.5544 409.08 86.5669 400.634 92.211C392.188 97.8551 385.605 105.877 381.718 115.263C377.831 124.649 376.815 134.976 378.797 144.94C380.779 154.903 385.671 164.055 392.854 171.238C400.037 178.421 409.189 183.313 419.151 185.294C429.114 187.275 439.441 186.257 448.825 182.369C458.209 178.48 466.23 171.896 471.872 163.449C477.515 155.001 480.526 145.07 480.524 134.911C480.509 121.294 475.092 108.24 465.464 98.6118C455.836 88.9838 442.782 83.5686 429.167 83.5544Z" fill="#3F3D56"/>
<path d="M433.6 71.5453H421.563V84.2185H433.6V71.5453Z" fill="#3F3D56"/>
<path d="M465.394 82.8765L455.075 76.676L448.549 87.539L458.867 93.7395L465.394 82.8765Z" fill="#3F3D56"/>
<path d="M486.553 107.96L480.717 97.4306L469.634 103.575L475.47 114.104L486.553 107.96Z" fill="#3F3D56"/>
<path d="M480.554 172.046L486.933 161.836L476.187 155.12L469.808 165.33L480.554 172.046Z" fill="#3F3D56"/>
<path d="M382.867 114.109L388.703 103.58L377.62 97.4359L371.784 107.965L382.867 114.109Z" fill="#3F3D56"/>
<path d="M388.527 165.329L382.148 155.119L371.402 161.835L377.781 172.044L388.527 165.329Z" fill="#3F3D56"/>
<path d="M399.468 93.7406L409.787 87.5401L403.26 76.6771L392.942 82.8776L399.468 93.7406Z" fill="#3F3D56"/>
<path d="M433.6 185.61H421.563V198.283H433.6V185.61Z" fill="#3F3D56"/>
<path d="M458.865 176.084L448.546 182.284L455.073 193.147L465.391 186.947L458.865 176.084Z" fill="#3F3D56"/>
<path d="M392.94 186.944L403.258 193.144L409.784 182.281L399.466 176.081L392.94 186.944Z" fill="#3F3D56"/>
<path d="M379.108 129.843H364.534V140.614H379.108V129.843Z" fill="#3F3D56"/>
<path d="M479.226 140.614H493.801V129.843H479.226V140.614Z" fill="#3F3D56"/>
<path d="M237.785 90.5551C238.27 90.5551 238.755 90.5551 239.239 90.5551C250.034 90.9233 260.253 95.518 267.693 103.349C275.133 111.18 279.199 121.621 279.016 132.422C278.832 143.223 274.413 153.52 266.711 161.093C259.009 168.667 248.641 172.912 237.839 172.913C237.355 172.913 236.87 172.913 236.379 172.913C225.584 172.545 215.365 167.949 207.925 160.118C200.484 152.286 196.418 141.844 196.603 131.043C196.787 120.241 201.207 109.945 208.91 102.371C216.614 94.7981 226.983 90.5545 237.785 90.5551ZM237.785 80.3831C224.316 80.3814 211.385 85.672 201.778 95.115C192.172 104.558 186.66 117.397 186.429 130.866C186.198 144.335 191.268 157.356 200.545 167.122C209.822 176.889 222.565 182.619 236.026 183.079C236.625 183.079 237.223 183.109 237.821 183.109C251.29 183.109 264.22 177.817 273.825 168.374C283.43 158.93 288.942 146.091 289.171 132.623C289.401 119.154 284.332 106.134 275.054 96.3685C265.777 86.6027 253.035 80.8727 239.574 80.413C238.976 80.413 238.378 80.3831 237.779 80.3831H237.785Z" fill="#3F3D56"/>
<path d="M244.433 68.5761L232.403 68.1581L231.963 80.8236L243.993 81.2417L244.433 68.5761Z" fill="#3F3D56"/>
<path d="M275.805 81.0054L265.709 74.4503L258.809 85.0801L268.906 91.6352L275.805 81.0054Z" fill="#3F3D56"/>
<path d="M296.086 106.806L290.619 96.0802L279.329 101.836L284.796 112.561L296.086 106.806Z" fill="#3F3D56"/>
<path d="M287.879 170.625L294.608 160.643L284.102 153.558L277.372 163.54L287.879 170.625Z" fill="#3F3D56"/>
<path d="M192.254 109.337L198.452 99.0168L187.589 92.4916L181.391 102.812L192.254 109.337Z" fill="#3F3D56"/>
<path d="M195.291 161.718L189.273 151.244L178.248 157.58L184.267 168.054L195.291 161.718Z" fill="#3F3D56"/>
<path d="M209.563 89.5573L220.09 83.7189L213.945 72.6357L203.418 78.4742L209.563 89.5573Z" fill="#3F3D56"/>
<path d="M240.478 182.566L228.448 182.148L228.007 194.814L240.038 195.232L240.478 182.566Z" fill="#3F3D56"/>
<path d="M266.064 173.931L255.537 179.769L261.682 190.852L272.209 185.014L266.064 173.931Z" fill="#3F3D56"/>
<path d="M199.813 182.485L209.909 189.04L216.809 178.41L206.712 171.855L199.813 182.485Z" fill="#3F3D56"/>
<path d="M187.959 124.946L173.394 124.439L173.02 135.203L187.585 135.709L187.959 124.946Z" fill="#3F3D56"/>
<path d="M287.645 139.17L302.211 139.676L302.585 128.912L288.019 128.406L287.645 139.17Z" fill="#3F3D56"/>
<path d="M105.162 394.382C103.68 394.563 102.242 395.011 100.92 395.704C99.1251 396.799 98.0182 398.732 97.2285 400.683C95.2481 405.577 94.8353 410.951 94.7515 416.24C94.6798 420.5 94.8233 424.862 96.349 428.835C96.7674 430.093 97.4934 431.226 98.4609 432.132C99.3121 432.802 100.298 433.279 101.351 433.533C103.624 434.131 106.263 434.131 108.123 432.695C110.193 431.073 110.714 428.219 111.151 425.628C111.749 422.134 112.581 418.448 115.177 416.013C117.104 414.218 119.862 413.32 121.262 411.094C122.931 408.449 122.052 404.997 120.987 402.053C120.059 399.504 118.701 394.328 116.033 393.024C113.364 391.719 107.938 393.879 105.162 394.382Z" fill="#FBBEBE"/>
<path d="M203.563 406.918C202.756 409.771 201.326 412.41 199.375 414.642C198.178 416.007 196.713 417.664 197.341 419.357C197.596 419.931 197.976 420.44 198.454 420.847C207.225 429.434 219.496 433.61 231.671 435.13C231.867 435.183 232.073 435.183 232.269 435.13C232.628 434.969 232.712 434.532 232.76 434.131C232.954 432.862 232.954 431.57 232.76 430.301C232.161 427.31 229.559 425.233 227.01 423.594C224.461 421.954 221.673 420.363 220.249 417.688C218.454 414.361 219.226 410.029 217.114 406.918C215.403 404.387 212.226 403.328 209.211 402.831C208.164 402.669 205.938 401.52 205.023 402.053C204.089 402.592 203.88 405.877 203.563 406.918Z" fill="#FBBEBE"/>
<path d="M103.965 394.071C103.967 393.776 103.86 393.491 103.665 393.27C103.469 393.049 103.199 392.908 102.906 392.874C102.321 392.814 101.729 392.89 101.177 393.096C99.8052 393.468 98.4042 393.724 96.9892 393.862C95.308 394.023 93.5909 394.017 91.9575 394.46C90.3242 394.903 88.7268 395.878 88.0627 397.452C87.7396 398.351 87.5934 399.304 87.6319 400.258C87.5981 403.931 88.0364 407.593 88.9362 411.154C88.952 411.297 89.0001 411.434 89.0768 411.555C89.1535 411.676 89.2568 411.779 89.3789 411.854C89.5883 411.938 89.8396 411.854 90.049 411.95C90.2329 412.059 90.371 412.231 90.4379 412.435C91.449 414.708 91.6823 417.221 91.9516 419.711C92.3504 423.376 92.855 427.03 93.4652 430.672C93.8242 432.797 94.267 435.028 95.667 436.656C97.1986 438.451 99.6277 439.223 101.967 439.54C106.909 440.198 111.899 439.205 116.781 438.188C117.712 438.095 118.587 437.702 119.276 437.069C119.722 436.51 119.936 435.801 119.874 435.088C119.76 432.647 117.517 430.9 115.482 429.559L112.682 427.675C112.487 427.567 112.319 427.415 112.192 427.232C112.059 426.953 112.011 426.641 112.054 426.334L112.234 422.744C110.374 422.774 108.557 423.307 106.976 424.288C105.396 425.27 104.111 426.661 103.259 428.315C102.87 429.087 102.505 429.99 101.698 430.289C100.699 430.666 99.5858 429.823 99.2507 428.812C99.0177 427.767 99.0485 426.681 99.3405 425.652C100.98 416.868 100.597 407.839 101.596 398.96C101.658 397.963 101.964 396.997 102.487 396.147C102.972 395.477 103.876 394.891 103.965 394.071Z" fill="#3F3D56"/>
<path d="M226.16 428.129C226.573 428.811 227.213 429.326 227.596 430.032C227.979 430.738 227.973 431.767 227.285 432.168C226.879 432.347 226.427 432.393 225.993 432.3C217.209 431.209 208.962 427.479 202.342 421.601C201.243 420.672 200.27 419.604 199.447 418.424C198.675 417.227 198.023 415.821 196.707 415.331C195.92 418.741 195.518 422.23 195.51 425.73C195.51 428.034 195.827 430.666 197.712 432.001C198.467 432.47 199.296 432.808 200.165 433L204.275 434.161C205 434.435 205.784 434.511 206.548 434.382C207.033 434.251 207.464 433.945 207.96 433.856C208.501 433.798 209.048 433.868 209.558 434.059L213.106 435.094C214.306 435.4 215.48 435.8 216.618 436.291C217.629 436.77 218.568 437.398 219.555 437.93C221.211 438.761 222.929 439.459 224.695 440.019L230.941 442.185C232.648 442.859 234.433 443.317 236.254 443.549C237.51 443.657 238.784 443.549 240.029 443.764C240.974 443.926 241.89 444.267 242.847 444.363C244.424 444.406 245.974 443.947 247.274 443.052C247.781 442.769 248.22 442.379 248.561 441.909C249.458 440.515 248.686 438.678 247.807 437.272C246.185 434.675 244.157 432.24 241.477 430.756C240.388 430.158 239.215 429.715 238.096 429.17C234.913 427.627 232.502 425.048 229.493 423.283C226.651 421.631 224.82 425.933 226.16 428.129Z" fill="#3F3D56"/>
<path d="M138.433 176.635C135.133 178.902 131.353 180.372 127.388 180.931C125.315 181.189 123.226 181.301 121.136 181.266C112.424 181.255 103.728 180.529 95.1345 179.094C98.5567 175.324 102.015 171.315 103.307 166.373C103.948 163.766 104.08 161.06 103.696 158.403C103.178 154.994 102.365 151.637 101.267 148.368C104.932 148.565 108.607 148.471 112.258 148.087C114.34 147.878 119.437 145.981 121.232 147.417C122.913 148.751 121.645 153.472 121.615 155.65C121.615 155.728 121.615 155.806 121.615 155.884C121.709 159.19 122.421 162.449 123.715 165.493C126.347 171.381 131.977 176.216 138.433 176.635Z" fill="#FBBEBE"/>
<path opacity="0.1" d="M121.639 155.62C119.017 157.333 116.058 158.465 112.962 158.94C109.867 159.415 106.705 159.221 103.69 158.373C103.172 154.964 102.359 151.607 101.261 148.338C104.926 148.535 108.601 148.441 112.252 148.057C114.334 147.848 119.431 145.951 121.226 147.387C122.937 148.721 121.669 153.442 121.639 155.62Z" fill="black"/>
<path d="M109.649 158.169C121.743 158.169 131.547 148.364 131.547 136.27C131.547 124.175 121.743 114.37 109.649 114.37C97.5554 114.37 87.7515 124.175 87.7515 136.27C87.7515 148.364 97.5554 158.169 109.649 158.169Z" fill="#FBBEBE"/>
<path d="M202.558 247.085C202.57 248.853 202.121 250.593 201.255 252.134C200.39 253.676 199.137 254.965 197.622 255.875C195.929 256.764 194.115 257.399 192.237 257.76C182.222 260.153 171.961 262.122 161.677 261.535C159.451 261.41 157.189 261.146 155.191 260.171C153.193 259.196 151.488 257.371 151.188 255.169C151.175 254.624 151.068 254.085 150.871 253.577C150.475 253.016 149.955 252.553 149.352 252.225C148.427 251.514 147.72 250.558 147.311 249.465C146.903 248.372 146.81 247.187 147.042 246.044C145.792 246.6 144.488 245.344 143.901 244.105C143.315 242.867 142.854 241.371 141.598 240.85C140.742 240.485 139.755 240.7 138.852 240.467C137.41 240.096 136.53 238.672 135.513 237.607C133.437 235.387 130.494 234.238 127.777 232.874C119.718 228.811 113.149 222.373 106.717 216.042C103.481 212.853 100.22 209.64 97.6533 205.87C96.9294 204.811 96.2772 203.722 95.661 202.603C93.7151 198.872 92.028 195.011 90.6114 191.049C89.7977 188.931 88.9721 186.693 89.3071 184.467C89.337 184.264 89.3789 184.06 89.4268 183.869C89.8437 182.422 90.5164 181.063 91.4131 179.854C93.6387 176.581 96.5584 173.481 100.387 172.476C104.217 171.471 108.04 172.685 111.929 173.511C113.22 173.798 114.529 173.998 115.847 174.109C119.97 174.403 124.05 173.296 128.035 172.195L132.378 170.998C134.556 170.4 135.645 167.767 137.847 167.306C138.83 167.165 139.832 167.215 140.796 167.456C145.265 168.305 149.771 169.4 153.701 171.674C154.576 172.182 155.414 172.752 156.208 173.379C159.008 175.593 161.222 178.543 162.036 181.99C162.933 185.777 162.089 189.822 162.999 193.61C163.741 196.739 165.619 199.468 167.462 202.107L178.154 217.377C180.54 220.97 183.168 224.397 186.021 227.632C191.753 233.873 202.414 238.594 202.558 247.085Z" fill="#00A5CF"/>
<path d="M174.007 100.709C174.45 98.6209 174.779 96.431 175.934 94.6299C176.723 93.4975 177.677 92.4892 178.764 91.6381C180.601 90.0884 182.551 88.5985 184.83 87.8446C187.11 87.0906 189.79 87.1923 191.705 88.6404C193.619 90.0884 194.427 92.5835 194.726 94.965C195.133 98.238 194.726 101.685 193.105 104.539C191.25 107.776 188.031 109.924 185.327 112.521C183.37 114.397 181.666 116.521 180.259 118.839C179.62 120.048 178.846 121.181 177.95 122.214C177.496 122.728 176.928 123.129 176.291 123.383C175.654 123.638 174.966 123.74 174.283 123.68C173.134 123.495 172.189 122.693 171.291 121.927C170.184 120.958 167.199 119.228 167.103 117.691C167.031 116.446 169.359 113.622 169.927 112.455C171.695 108.693 173.062 104.757 174.007 100.709Z" fill="#FBBEBE"/>
<path d="M250.966 354.388C248.214 359.468 245.198 364.416 242.745 369.646C241.315 372.704 240.077 375.851 238.485 378.825C236.75 382.068 234.614 385.084 232.801 388.291C228.237 396.375 225.694 405.494 223.342 414.475C216.765 413.49 210.438 411.256 204.7 407.893C204.311 407.666 203.94 407.426 203.581 407.169C202.047 406.069 200.764 404.656 199.818 403.022C201.989 394.807 204.221 386.454 208.642 379.196C210.084 376.802 211.736 374.618 213.219 372.285C217.521 365.523 218.407 356.991 223.319 350.66C223.788 350.022 224.041 349.251 224.041 348.458C224.041 347.666 223.788 346.894 223.319 346.256C222.75 345.52 221.847 344.82 222.014 343.911C222.14 343.247 222.834 342.648 222.565 342.026C222.439 341.727 222.134 341.565 221.895 341.35C221.057 340.578 221.165 339.262 221.093 338.131C220.907 335.265 219.19 332.745 217.503 330.406C217.167 329.851 216.721 329.371 216.193 328.994C215.75 328.725 215.224 328.605 214.781 328.33C213.213 327.348 213.327 325.063 212.573 323.369C211.592 321.137 209.121 320.001 207.5 318.187C205.436 315.884 204.909 312.671 202.713 310.654C202.492 310.437 202.254 310.236 202.001 310.056C203.09 313.437 203.198 317.045 203.276 320.605C203.485 332.805 200.434 345.437 201.864 357.559C202.989 367.175 197.077 376.772 188.671 381.577C185.441 383.42 181.911 384.653 178.405 385.903C173.146 387.764 167.905 389.685 162.747 391.839C159.102 393.347 155.512 394.972 151.978 396.716C147.61 398.836 143.358 401.189 139.241 403.764C134.179 406.983 129.117 410.256 125.522 415.061C122.046 414.965 118.863 412.877 116.661 410.185C114.459 407.492 113.071 404.201 111.809 400.994C110.69 398.212 109.589 395.339 109.505 392.342C109.52 392.02 109.626 391.708 109.81 391.444C109.994 391.179 110.25 390.972 110.546 390.846L134.58 378.107L139.073 375.713C148.915 370.49 159.11 365.661 168.952 360.443C169.616 360.641 170.148 359.887 170.346 359.247C170.543 358.606 170.681 357.781 171.303 357.493C171.614 357.344 172.021 357.35 172.254 357.087C172.406 356.851 172.466 356.568 172.422 356.291C172.105 351.504 168.671 347.154 169.359 342.433C169.652 340.422 170.687 338.442 170.238 336.449C169.921 335.079 168.94 333.972 168.407 332.674C167.211 329.772 168.407 326.277 167.115 323.435C166.256 321.566 165.672 319.583 165.38 317.547C164.761 313.493 163.522 309.557 161.706 305.879C160.833 304.02 159.694 302.296 158.326 300.763C157.602 299.986 156.788 299.291 156.1 298.484C154.012 296.006 153.241 292.704 152.648 289.508C151.571 283.722 150.853 277.721 152.17 271.988C152.624 270.032 153.318 268.093 153.288 266.089C153.259 263.438 152.092 260.344 153.935 258.43C154.698 257.745 155.625 257.268 156.627 257.048C160.863 255.785 165.272 255.211 169.658 254.654L189.73 252.027C192.028 251.722 194.379 251.429 196.407 250.286C199.13 248.784 200.936 246.002 202.043 243.106C205.567 245.679 206.883 250.472 209.695 253.792C211.066 255.414 212.759 256.724 214.26 258.214C216.097 260.148 217.779 262.223 219.292 264.419C223.48 270.169 227.668 275.962 230.66 282.412C232.221 285.763 233.43 289.257 234.674 292.733C239.574 306.418 247.561 319.408 250.876 333.553C251.69 337.012 253.802 340.135 254.131 343.671C254.502 347.423 252.767 351.049 250.966 354.388Z" fill="#3F3D56"/>
<path opacity="0.1" d="M145.846 240.736C145.354 241.646 145.099 242.664 145.104 243.698C145.553 241.484 148.598 240.258 148.795 238.068C148.885 237.056 148.7 237.104 148.077 237.637C147.132 238.457 146.719 239.869 145.846 240.736Z" fill="black"/>
<path opacity="0.1" d="M155.125 247.462C154.482 248.005 154.002 248.715 153.737 249.514C153.219 250.639 153.12 251.912 153.456 253.104C153.905 252.895 154.054 252.345 154.192 251.866C154.412 251.12 154.732 250.408 155.143 249.748C155.502 249.149 157.159 247.815 157.153 247.187C157.135 246.223 155.568 247.121 155.125 247.462Z" fill="black"/>
<path opacity="0.1" d="M156.196 173.338C154.789 174.549 153.238 175.582 151.577 176.413C147.24 178.609 142.435 179.77 138.068 181.9C135.913 183.004 133.82 184.225 131.798 185.556L118.815 193.783C117.772 194.381 116.811 195.111 115.955 195.955C114.393 197.619 114.399 200.545 112.964 202.328C111.528 204.111 109.051 205.116 106.664 205.236C104.272 205.25 101.897 204.845 99.6456 204.039C98.282 203.631 96.9436 203.144 95.637 202.579C94.2706 201.999 92.9774 201.26 91.784 200.377C89.4686 198.63 87.596 196.087 87.249 193.197C87.093 191.214 87.3559 189.22 88.0208 187.345C88.3802 186.125 88.8425 184.938 89.4028 183.797C89.7219 183.148 90.09 182.524 90.5037 181.93C93.4951 177.706 98.7422 175.725 103.822 174.75C106.49 174.229 109.206 173.912 111.905 173.457C113.196 173.745 114.505 173.945 115.823 174.056C119.946 174.349 124.026 173.242 128.011 172.141L132.354 170.944C134.532 170.346 135.621 167.713 137.823 167.252C138.806 167.111 139.808 167.162 140.772 167.402C145.241 168.252 149.747 169.347 153.677 171.62C154.557 172.132 155.399 172.706 156.196 173.338Z" fill="black"/>
<path d="M166.786 115.213C166.23 120.509 161.76 124.398 159.008 128.976C157.686 131.195 156.759 133.631 155.568 135.928C154.204 138.434 152.685 140.852 151.021 143.169L146.157 150.229C143.297 154.382 140.407 158.57 136.752 162.047C130.38 163.13 125.037 167.863 118.994 170.16C114.16 171.997 108.889 172.249 103.816 173.236C98.7422 174.223 93.4832 176.228 90.5037 180.416C89.3942 182.068 88.5541 183.886 88.0148 185.801C87.3461 187.673 87.085 189.666 87.249 191.647C87.6139 194.531 89.4627 197.068 91.7781 198.828C94.0935 200.587 96.8635 201.628 99.6396 202.49C101.892 203.293 104.267 203.697 106.658 203.686C109.051 203.567 111.48 202.645 112.964 200.778C114.447 198.911 114.376 196.069 115.955 194.406C116.813 193.561 117.776 192.831 118.821 192.234L131.804 184.006C133.825 182.683 135.916 181.471 138.068 180.374C142.435 178.238 147.24 177.083 151.577 174.887C155.915 172.691 159.953 169.065 160.821 164.279C163.465 149.571 173.642 137.173 182.359 125.026C182.072 124.967 182.162 124.314 182.054 124.039C180.942 121.155 178.465 118.983 175.677 117.613C172.889 116.243 169.777 115.86 166.786 115.213Z" fill="#00A5CF"/>
<path d="M120.885 115.321C121.047 113.726 120.732 112.118 119.982 110.702C118.54 108.308 115.518 107.465 112.802 106.902C110.174 106.364 107.533 105.901 104.881 105.514C102.703 105.197 100.471 104.916 98.3293 105.406C95.3379 106.059 92.9028 108.039 90.1327 109.272C86.8601 110.732 83.2344 111.115 79.7404 111.922C76.2464 112.73 72.6686 114.1 70.4788 116.937C68.8156 119.091 68.1515 121.843 67.6549 124.524C63.5087 146.896 67.972 169.843 68.8215 192.581C69.1506 201.43 68.7498 210.89 63.6942 218.16L78.4182 217.772C82.1874 217.676 86.2378 217.478 89.1874 215.151C91.796 213.104 93.0285 209.807 94.1473 206.684C95.0268 204.225 95.9122 201.718 96.0259 199.109C96.2592 193.765 93.2259 188.518 94.231 183.258C94.9669 179.333 97.8208 176.162 100.878 173.583C103.935 171.004 107.334 168.796 109.805 165.637C114.22 160.054 115.064 152.425 114.513 145.335C114.184 141.116 113.43 136.898 113.795 132.679C114.07 129.526 115.07 126.271 117.134 123.812C119.455 121.023 120.682 119.276 120.885 115.321Z" fill="#3F3D56"/>
<path opacity="0.1" d="M119.982 110.702C118.564 108.344 115.62 107.495 112.922 106.932C114.356 107.443 115.583 108.409 116.416 109.685C117.169 111.1 117.484 112.709 117.319 114.304C117.116 118.253 115.889 120 113.544 122.795C111.48 125.254 110.481 128.503 110.205 131.662C109.84 135.881 110.594 140.099 110.923 144.317C111.474 151.408 110.63 159.037 106.221 164.62C103.744 167.755 100.346 170.005 97.2943 172.566C94.243 175.127 91.3772 178.316 90.6413 182.241C89.6541 187.501 92.6874 192.748 92.4362 198.092C92.3225 200.7 91.431 203.208 90.5515 205.667C89.4387 208.79 88.2002 212.081 85.5917 214.128C82.6002 216.455 78.5737 216.659 74.8224 216.754L64.3942 217.03C64.1609 217.413 63.9215 217.795 63.6643 218.16L78.3883 217.772C82.1575 217.676 86.2079 217.478 89.1575 215.151C91.7661 213.104 92.9985 209.807 94.1174 206.684C94.9968 204.225 95.8823 201.718 95.996 199.109C96.2293 193.765 93.196 188.518 94.2011 183.258C94.937 179.333 97.7909 176.162 100.848 173.583C103.905 171.004 107.304 168.796 109.775 165.637C114.19 160.054 115.034 152.425 114.483 145.335C114.154 141.116 113.4 136.898 113.765 132.679C114.04 129.526 115.04 126.271 117.104 123.812C119.449 121.023 120.693 119.276 120.879 115.321C121.043 113.726 120.73 112.119 119.982 110.702Z" fill="black"/>
<path opacity="0.1" d="M230.606 341.29L203.581 407.199C202.047 406.099 200.764 404.686 199.818 403.052C201.989 394.837 204.221 386.484 208.642 379.226C210.084 376.832 211.736 374.648 213.219 372.315C217.521 365.553 218.407 357.021 223.319 350.69C223.788 350.052 224.041 349.28 224.041 348.488C224.041 347.696 223.788 346.924 223.319 346.286C222.75 345.55 221.847 344.85 222.014 343.941C222.14 343.277 222.834 342.678 222.565 342.056C222.439 341.757 222.134 341.595 221.895 341.38C221.057 340.608 221.165 339.291 221.093 338.161C220.907 335.294 219.19 332.775 217.503 330.436C217.167 329.881 216.721 329.401 216.193 329.024C215.75 328.754 215.224 328.635 214.781 328.36C213.213 327.378 213.327 325.093 212.573 323.399C211.592 321.167 209.121 320.03 207.5 318.217C205.436 315.914 204.909 312.701 202.713 310.684L202.528 310.217L204.634 297.502L230.606 341.29Z" fill="black"/>
</g>
<defs>
<linearGradient id="paint0_linear" x1="159.068" y1="445.715" x2="159.068" y2="86.2829" gradientUnits="userSpaceOnUse">
<stop stop-color="#808080" stop-opacity="0.25"/>
<stop offset="0.54" stop-color="#808080" stop-opacity="0.12"/>
<stop offset="1" stop-color="#808080" stop-opacity="0.1"/>
</linearGradient>
<clipPath id="clip0">
<rect width="604" height="449" fill="white"/>
</clipPath>
</defs>
</svg>
