<svg width="375" height="438" viewBox="0 0 375 438" fill="none" xmlns="http://www.w3.org/2000/svg">
<g filter="url(#filter0_d)">
<rect x="4" y="7" width="367" height="423" rx="15" fill="#F9F9F9"/>
<rect x="4" y="7" width="367" height="75" rx="15" fill="#387D7A"/>
<path d="M30.1084 32.6719L37.0811 50.0742L44.0537 32.6719H47.7012L47.7012 54L44.8887 54L44.8887 45.6943L45.1523 36.7295L38.1504 54H35.9971L29.0098 36.7734L29.2881 45.6943L29.2881 54H26.4756L26.4756 32.6719H30.1084ZM51.5244 45.9287C51.5244 44.376 51.8271 42.9795 52.4326 41.7393C53.0479 40.499 53.8975 39.542 54.9814 38.8682C56.0752 38.1943 57.3203 37.8574 58.7168 37.8574C60.875 37.8574 62.6182 38.6045 63.9463 40.0986C65.2842 41.5928 65.9531 43.5801 65.9531 46.0605V46.251C65.9531 47.7939 65.6553 49.1807 65.0596 50.4111C64.4736 51.6318 63.6289 52.584 62.5254 53.2676C61.4316 53.9512 60.1719 54.293 58.7461 54.293C56.5977 54.293 54.8545 53.5459 53.5166 52.0518C52.1885 50.5576 51.5244 48.5801 51.5244 46.1191V45.9287ZM54.249 46.251C54.249 48.0088 54.6543 49.4199 55.4648 50.4844C56.2852 51.5488 57.3789 52.0811 58.7461 52.0811C60.123 52.0811 61.2168 51.5439 62.0273 50.4697C62.8379 49.3857 63.2432 47.8721 63.2432 45.9287C63.2432 44.1904 62.8281 42.7842 61.998 41.71C61.1777 40.626 60.084 40.084 58.7168 40.084C57.3789 40.084 56.2998 40.6162 55.4795 41.6807C54.6592 42.7451 54.249 44.2686 54.249 46.251ZM71.9004 38.1504L71.9736 39.9082C73.1357 38.541 74.7031 37.8574 76.6758 37.8574C78.8926 37.8574 80.4014 38.707 81.2021 40.4062C81.7295 39.6445 82.4131 39.0293 83.2529 38.5605C84.1025 38.0918 85.1035 37.8574 86.2559 37.8574C89.7324 37.8574 91.5 39.6982 91.5586 43.3799V54H88.8486V43.541C88.8486 42.4082 88.5898 41.5635 88.0723 41.0068C87.5547 40.4404 86.6855 40.1572 85.4648 40.1572C84.459 40.1572 83.624 40.46 82.96 41.0654C82.2959 41.6611 81.9102 42.4668 81.8027 43.4824V54H79.0781V43.6143C79.0781 41.3096 77.9502 40.1572 75.6943 40.1572C73.917 40.1572 72.7012 40.9141 72.0469 42.4277V54H69.3369V38.1504H71.9004ZM94.6787 38.6777L93.1406 37.623C94.0488 36.3535 94.5176 35.0156 94.5469 33.6094V31.5H97.2275V33.4043C97.2178 34.3809 96.9736 35.3574 96.4951 36.334C96.0264 37.3008 95.4209 38.082 94.6787 38.6777ZM108.082 49.7959C108.082 49.0635 107.804 48.4971 107.247 48.0967C106.7 47.6865 105.738 47.335 104.361 47.042C102.994 46.749 101.905 46.3975 101.095 45.9873C100.294 45.5771 99.6982 45.0889 99.3076 44.5225C98.9268 43.9561 98.7363 43.2822 98.7363 42.501C98.7363 41.2021 99.2832 40.1035 100.377 39.2051C101.48 38.3066 102.887 37.8574 104.596 37.8574C106.393 37.8574 107.848 38.3213 108.961 39.249C110.084 40.1768 110.646 41.3633 110.646 42.8086H107.921C107.921 42.0664 107.604 41.4268 106.969 40.8896C106.344 40.3525 105.553 40.084 104.596 40.084C103.609 40.084 102.838 40.2988 102.281 40.7285C101.725 41.1582 101.446 41.7197 101.446 42.4131C101.446 43.0674 101.705 43.5605 102.223 43.8926C102.74 44.2246 103.673 44.542 105.021 44.8447C106.378 45.1475 107.477 45.5088 108.316 45.9287C109.156 46.3486 109.776 46.8564 110.177 47.4521C110.587 48.0381 110.792 48.7559 110.792 49.6055C110.792 51.0215 110.226 52.1592 109.093 53.0186C107.96 53.8682 106.49 54.293 104.684 54.293C103.414 54.293 102.291 54.0684 101.314 53.6191C100.338 53.1699 99.5713 52.5449 99.0146 51.7441C98.4678 50.9336 98.1943 50.0596 98.1943 49.1221H100.904C100.953 50.0303 101.314 50.7529 101.988 51.29C102.672 51.8174 103.57 52.0811 104.684 52.0811C105.709 52.0811 106.529 51.876 107.145 51.4658C107.77 51.0459 108.082 50.4893 108.082 49.7959ZM135.182 46.251C135.182 48.6729 134.625 50.6211 133.512 52.0957C132.398 53.5605 130.904 54.293 129.029 54.293C127.027 54.293 125.479 53.585 124.386 52.1689L124.254 54H121.764V31.5H124.474V39.8936C125.567 38.5361 127.076 37.8574 129 37.8574C130.924 37.8574 132.433 38.585 133.526 40.04C134.63 41.4951 135.182 43.4873 135.182 46.0166V46.251ZM132.472 45.9434C132.472 44.0977 132.115 42.6719 131.402 41.666C130.689 40.6602 129.664 40.1572 128.326 40.1572C126.539 40.1572 125.255 40.9873 124.474 42.6475V49.5029C125.304 51.1631 126.598 51.9932 128.355 51.9932C129.654 51.9932 130.665 51.4902 131.388 50.4844C132.11 49.4785 132.472 47.9648 132.472 45.9434ZM141.554 54H138.844V38.1504H141.554V54ZM138.624 33.9463C138.624 33.5068 138.756 33.1357 139.02 32.833C139.293 32.5303 139.693 32.3789 140.221 32.3789C140.748 32.3789 141.148 32.5303 141.422 32.833C141.695 33.1357 141.832 33.5068 141.832 33.9463C141.832 34.3857 141.695 34.752 141.422 35.0449C141.148 35.3379 140.748 35.4844 140.221 35.4844C139.693 35.4844 139.293 35.3379 139.02 35.0449C138.756 34.752 138.624 34.3857 138.624 33.9463ZM153.565 40.582C153.155 40.5137 152.711 40.4795 152.232 40.4795C150.455 40.4795 149.249 41.2363 148.614 42.75V54H145.904V38.1504H148.541L148.585 39.9814C149.474 38.5654 150.733 37.8574 152.364 37.8574C152.892 37.8574 153.292 37.9258 153.565 38.0625V40.582ZM160.479 34.3125V38.1504H163.438V40.2451H160.479V50.0742C160.479 50.709 160.611 51.1875 160.875 51.5098C161.139 51.8223 161.588 51.9785 162.223 51.9785C162.535 51.9785 162.965 51.9199 163.512 51.8027V54C162.799 54.1953 162.105 54.293 161.432 54.293C160.221 54.293 159.308 53.9268 158.692 53.1943C158.077 52.4619 157.77 51.4219 157.77 50.0742V40.2451H154.884V38.1504H157.77V34.3125H160.479ZM169.327 40.0693C170.528 38.5947 172.091 37.8574 174.015 37.8574C177.364 37.8574 179.054 39.7471 179.083 43.5264V54L176.373 54V43.5117C176.363 42.3691 176.1 41.5244 175.582 40.9775C175.074 40.4307 174.278 40.1572 173.194 40.1572C172.315 40.1572 171.544 40.3916 170.88 40.8604C170.216 41.3291 169.698 41.9443 169.327 42.7061V54H166.617V31.5H169.327V40.0693ZM182.481 45.9434C182.481 43.5117 183.058 41.5586 184.21 40.084C185.362 38.5996 186.871 37.8574 188.736 37.8574C190.592 37.8574 192.062 38.4922 193.146 39.7617V31.5H195.855V54H193.365L193.233 52.3008C192.149 53.6289 190.641 54.293 188.707 54.293C186.871 54.293 185.372 53.541 184.21 52.0371C183.058 50.5332 182.481 48.5703 182.481 46.1484V45.9434ZM185.191 46.251C185.191 48.0479 185.562 49.4541 186.305 50.4697C187.047 51.4854 188.072 51.9932 189.381 51.9932C191.1 51.9932 192.354 51.2217 193.146 49.6787V42.3984C192.335 40.9043 191.09 40.1572 189.41 40.1572C188.082 40.1572 187.047 40.6699 186.305 41.6953C185.562 42.7207 185.191 44.2393 185.191 46.251ZM209.859 54C209.703 53.6875 209.576 53.1309 209.479 52.3301C208.219 53.6387 206.715 54.293 204.967 54.293C203.404 54.293 202.12 53.8535 201.114 52.9746C200.118 52.0859 199.62 50.9629 199.62 49.6055C199.62 47.9551 200.245 46.6758 201.495 45.7676C202.755 44.8496 204.522 44.3906 206.798 44.3906H209.435V43.1455C209.435 42.1982 209.151 41.4463 208.585 40.8896C208.019 40.3232 207.184 40.04 206.08 40.04C205.113 40.04 204.303 40.2842 203.648 40.7725C202.994 41.2607 202.667 41.8516 202.667 42.5449H199.942C199.942 41.7539 200.221 40.9922 200.777 40.2598C201.344 39.5176 202.105 38.9316 203.062 38.502C204.029 38.0723 205.089 37.8574 206.241 37.8574C208.067 37.8574 209.498 38.3164 210.533 39.2344C211.568 40.1426 212.105 41.3975 212.145 42.999V50.2939C212.145 51.749 212.33 52.9062 212.701 53.7656V54H209.859ZM205.362 51.9346C206.212 51.9346 207.018 51.7148 207.779 51.2754C208.541 50.8359 209.093 50.2646 209.435 49.5615V46.3096H207.311C203.99 46.3096 202.33 47.2812 202.33 49.2246C202.33 50.0742 202.613 50.7383 203.18 51.2168C203.746 51.6953 204.474 51.9346 205.362 51.9346ZM221.344 50.0303L225.035 38.1504H227.936L221.563 56.4463C220.577 59.083 219.01 60.4014 216.861 60.4014L216.349 60.3574L215.338 60.167V57.9697L216.07 58.0283C216.988 58.0283 217.701 57.8428 218.209 57.4717C218.727 57.1006 219.151 56.4219 219.483 55.4355L220.084 53.8242L214.43 38.1504L217.389 38.1504L221.344 50.0303Z" fill="white"/>
<path d="M304.414 29L285.586 29C282.506 29 280 31.5059 280 34.586V53.4141C280 56.4941 282.506 59 285.586 59L304.414 59C307.494 59 310 56.4941 310 53.4141V34.586C310 31.5059 307.494 29 304.414 29ZM308.242 53.4141C308.242 55.5249 306.525 57.2422 304.414 57.2422L285.586 57.2422C283.475 57.2422 281.758 55.5249 281.758 53.4141V34.586C281.758 32.4751 283.475 30.7578 285.586 30.7578L304.414 30.7578C306.525 30.7578 308.242 32.4751 308.242 34.586V53.4141Z" fill="white"/>
<path d="M303.473 43.1211L286.527 43.1211C286.042 43.1211 285.648 43.5146 285.648 44C285.648 44.4854 286.042 44.8789 286.527 44.8789L303.473 44.8789C303.958 44.8789 304.352 44.4854 304.352 44C304.352 43.5146 303.958 43.1211 303.473 43.1211Z" fill="white"/>
<g clip-path="url(#clip0)">
<path d="M341.081 39.8691C340.693 39.8691 340.378 40.1837 340.378 40.5717V53.8504C340.378 54.2382 340.693 54.553 341.081 54.553C341.469 54.553 341.783 54.2382 341.783 53.8504V40.5717C341.783 40.1837 341.469 39.8691 341.081 39.8691Z" fill="white"/>
<path d="M332.791 39.8691C332.403 39.8691 332.088 40.1837 332.088 40.5717V53.8504C332.088 54.2382 332.403 54.553 332.791 54.553C333.179 54.553 333.493 54.2382 333.493 53.8504V40.5717C333.493 40.1837 333.179 39.8691 332.791 39.8691Z" fill="white"/>
<path d="M326.749 37.931V55.241C326.749 56.2641 327.124 57.2249 327.779 57.9143C328.432 58.6057 329.339 58.9981 330.29 58.9998H343.582C344.533 58.9981 345.441 58.6057 346.093 57.9143C346.748 57.2249 347.123 56.2641 347.123 55.241V37.931C348.426 37.5852 349.27 36.3267 349.096 34.9898C348.921 33.6533 347.783 32.6535 346.435 32.6532H342.838V31.775C342.842 31.0365 342.55 30.3273 342.027 29.8056C341.504 29.2842 340.794 28.9938 340.055 28.9998L333.817 28.9998C333.078 28.9938 332.368 29.2842 331.845 29.8056C331.322 30.3273 331.03 31.0365 331.034 31.775V32.6532H327.437C326.089 32.6535 324.95 33.6533 324.776 34.9898C324.602 36.3267 325.446 37.5852 326.749 37.931V37.931ZM343.582 57.5946H330.29C329.088 57.5946 328.154 56.5627 328.154 55.241V37.9928L345.718 37.9928V55.241C345.718 56.5627 344.784 57.5946 343.582 57.5946ZM332.439 31.775C332.435 31.4092 332.579 31.0571 332.838 30.7988C333.098 30.5406 333.451 30.3987 333.817 30.405H340.055C340.421 30.3987 340.774 30.5406 341.034 30.7988C341.293 31.0568 341.437 31.4092 341.432 31.775V32.6532L332.439 32.6532V31.775ZM327.437 34.0584L346.435 34.0584C347.133 34.0584 347.699 34.6246 347.699 35.323C347.699 36.0215 347.133 36.5876 346.435 36.5876L327.437 36.5876C326.739 36.5876 326.173 36.0215 326.173 35.323C326.173 34.6246 326.739 34.0584 327.437 34.0584V34.0584Z" fill="white"/>
<path d="M336.936 39.8691C336.548 39.8691 336.233 40.1837 336.233 40.5717V53.8504C336.233 54.2382 336.548 54.553 336.936 54.553C337.324 54.553 337.638 54.2382 337.638 53.8504V40.5717C337.638 40.1837 337.324 39.8691 336.936 39.8691Z" fill="white"/>
</g>
<path d="M42.1641 124.232C41.9004 126.488 41.0654 128.231 39.6592 129.462C38.2627 130.683 36.4023 131.293 34.0781 131.293C31.5586 131.293 29.5371 130.39 28.0137 128.583C26.5 126.776 25.7432 124.359 25.7432 121.332V119.281C25.7432 117.299 26.0947 115.556 26.7979 114.052C27.5107 112.548 28.5166 111.396 29.8154 110.595C31.1143 109.784 32.6182 109.379 34.3271 109.379C36.5928 109.379 38.4092 110.014 39.7764 111.283C41.1436 112.543 41.9395 114.291 42.1641 116.527H39.3369C39.0928 114.828 38.5605 113.598 37.7402 112.836C36.9297 112.074 35.792 111.693 34.3271 111.693C32.5303 111.693 31.1191 112.357 30.0938 113.686C29.0781 115.014 28.5703 116.903 28.5703 119.354V121.42C28.5703 123.734 29.0537 125.575 30.0205 126.942C30.9873 128.31 32.3398 128.993 34.0781 128.993C35.6406 128.993 36.8369 128.642 37.667 127.938C38.5068 127.226 39.0635 125.99 39.3369 124.232H42.1641ZM55.377 131C55.2207 130.688 55.0938 130.131 54.9961 129.33C53.7363 130.639 52.2324 131.293 50.4844 131.293C48.9219 131.293 47.6377 130.854 46.6318 129.975C45.6357 129.086 45.1377 127.963 45.1377 126.605C45.1377 124.955 45.7627 123.676 47.0127 122.768C48.2725 121.85 50.04 121.391 52.3154 121.391L54.9521 121.391V120.146C54.9521 119.198 54.6689 118.446 54.1025 117.89C53.5361 117.323 52.7012 117.04 51.5977 117.04C50.6309 117.04 49.8203 117.284 49.166 117.772C48.5117 118.261 48.1846 118.852 48.1846 119.545H45.46C45.46 118.754 45.7383 117.992 46.2949 117.26C46.8613 116.518 47.623 115.932 48.5801 115.502C49.5469 115.072 50.6064 114.857 51.7588 114.857C53.585 114.857 55.0156 115.316 56.0508 116.234C57.0859 117.143 57.623 118.397 57.6621 119.999V127.294C57.6621 128.749 57.8477 129.906 58.2188 130.766V131H55.377ZM50.8799 128.935C51.7295 128.935 52.5352 128.715 53.2969 128.275C54.0586 127.836 54.6104 127.265 54.9521 126.562V123.31H52.8281C49.5078 123.31 47.8477 124.281 47.8477 126.225C47.8477 127.074 48.1309 127.738 48.6973 128.217C49.2637 128.695 49.9912 128.935 50.8799 128.935ZM64.8545 131H62.1445L62.1445 108.5H64.8545V131ZM72.1494 131H69.4395V108.5H72.1494V131ZM93.3018 109.672H96.1289V124.774C96.1289 126.815 95.5137 128.412 94.2832 129.564C93.0625 130.717 91.4316 131.293 89.3906 131.293C87.2715 131.293 85.6211 130.751 84.4395 129.667C83.2578 128.583 82.667 127.064 82.667 125.111H85.4795C85.4795 126.332 85.8115 127.284 86.4756 127.968C87.1494 128.651 88.1211 128.993 89.3906 128.993C90.5527 128.993 91.4902 128.627 92.2031 127.895C92.9258 127.162 93.292 126.137 93.3018 124.818V109.672ZM99.7764 122.929C99.7764 121.376 100.079 119.979 100.685 118.739C101.3 117.499 102.149 116.542 103.233 115.868C104.327 115.194 105.572 114.857 106.969 114.857C109.127 114.857 110.87 115.604 112.198 117.099C113.536 118.593 114.205 120.58 114.205 123.061V123.251C114.205 124.794 113.907 126.181 113.312 127.411C112.726 128.632 111.881 129.584 110.777 130.268C109.684 130.951 108.424 131.293 106.998 131.293C104.85 131.293 103.106 130.546 101.769 129.052C100.44 127.558 99.7764 125.58 99.7764 123.119V122.929ZM102.501 123.251C102.501 125.009 102.906 126.42 103.717 127.484C104.537 128.549 105.631 129.081 106.998 129.081C108.375 129.081 109.469 128.544 110.279 127.47C111.09 126.386 111.495 124.872 111.495 122.929C111.495 121.19 111.08 119.784 110.25 118.71C109.43 117.626 108.336 117.084 106.969 117.084C105.631 117.084 104.552 117.616 103.731 118.681C102.911 119.745 102.501 121.269 102.501 123.251ZM127.389 131C127.232 130.687 127.105 130.131 127.008 129.33C125.748 130.639 124.244 131.293 122.496 131.293C120.934 131.293 119.649 130.854 118.644 129.975C117.647 129.086 117.149 127.963 117.149 126.605C117.149 124.955 117.774 123.676 119.024 122.768C120.284 121.85 122.052 121.391 124.327 121.391H126.964V120.146C126.964 119.198 126.681 118.446 126.114 117.89C125.548 117.323 124.713 117.04 123.609 117.04C122.643 117.04 121.832 117.284 121.178 117.772C120.523 118.261 120.196 118.852 120.196 119.545H117.472C117.472 118.754 117.75 117.992 118.307 117.26C118.873 116.518 119.635 115.932 120.592 115.502C121.559 115.072 122.618 114.857 123.771 114.857C125.597 114.857 127.027 115.316 128.062 116.234C129.098 117.143 129.635 118.397 129.674 119.999V127.294C129.674 128.749 129.859 129.906 130.23 130.766V131H127.389ZM122.892 128.935C123.741 128.935 124.547 128.715 125.309 128.275C126.07 127.836 126.622 127.265 126.964 126.562V123.31H124.84C121.52 123.31 119.859 124.281 119.859 126.225C119.859 127.074 120.143 127.738 120.709 128.217C121.275 128.695 122.003 128.935 122.892 128.935ZM136.485 115.15L136.573 117.143C137.784 115.619 139.366 114.857 141.319 114.857C144.669 114.857 146.358 116.747 146.388 120.526V131H143.678V120.512C143.668 119.369 143.404 118.524 142.887 117.978C142.379 117.431 141.583 117.157 140.499 117.157C139.62 117.157 138.849 117.392 138.185 117.86C137.521 118.329 137.003 118.944 136.632 119.706V131H133.922V115.15H136.485ZM153.038 115.15L153.126 117.143C154.337 115.619 155.919 114.857 157.872 114.857C161.222 114.857 162.911 116.747 162.94 120.526V131H160.23V120.512C160.221 119.369 159.957 118.524 159.439 117.978C158.932 117.431 158.136 117.157 157.052 117.157C156.173 117.157 155.401 117.392 154.737 117.86C154.073 118.329 153.556 118.944 153.185 119.706V131H150.475V115.15H153.038ZM176.812 131C176.656 130.687 176.529 130.131 176.432 129.33C175.172 130.639 173.668 131.293 171.92 131.293C170.357 131.293 169.073 130.854 168.067 129.975C167.071 129.086 166.573 127.963 166.573 126.605C166.573 124.955 167.198 123.676 168.448 122.768C169.708 121.85 171.476 121.391 173.751 121.391H176.388V120.146C176.388 119.198 176.104 118.446 175.538 117.89C174.972 117.323 174.137 117.04 173.033 117.04C172.066 117.04 171.256 117.284 170.602 117.772C169.947 118.261 169.62 118.852 169.62 119.545H166.896C166.896 118.754 167.174 117.992 167.73 117.26C168.297 116.518 169.059 115.932 170.016 115.502C170.982 115.072 172.042 114.857 173.194 114.857C175.021 114.857 176.451 115.316 177.486 116.234C178.521 117.143 179.059 118.397 179.098 119.999V127.294C179.098 128.749 179.283 129.906 179.654 130.766V131H176.812ZM172.315 128.935C173.165 128.935 173.971 128.715 174.732 128.275C175.494 127.836 176.046 127.265 176.388 126.562V123.31H174.264C170.943 123.31 169.283 124.281 169.283 126.225C169.283 127.074 169.566 127.738 170.133 128.217C170.699 128.695 171.427 128.935 172.315 128.935ZM194.464 111.312V115.15H197.423V117.245H194.464V127.074C194.464 127.709 194.596 128.187 194.859 128.51C195.123 128.822 195.572 128.979 196.207 128.979C196.52 128.979 196.949 128.92 197.496 128.803V131C196.783 131.195 196.09 131.293 195.416 131.293C194.205 131.293 193.292 130.927 192.677 130.194C192.062 129.462 191.754 128.422 191.754 127.074V117.245H188.868V115.15H191.754V111.312H194.464ZM199.591 122.929C199.591 121.376 199.894 119.979 200.499 118.739C201.114 117.499 201.964 116.542 203.048 115.868C204.142 115.194 205.387 114.857 206.783 114.857C208.941 114.857 210.685 115.604 212.013 117.099C213.351 118.593 214.02 120.58 214.02 123.061V123.251C214.02 124.794 213.722 126.181 213.126 127.411C212.54 128.632 211.695 129.584 210.592 130.268C209.498 130.951 208.238 131.293 206.812 131.293C204.664 131.293 202.921 130.546 201.583 129.052C200.255 127.558 199.591 125.58 199.591 123.119V122.929ZM202.315 123.251C202.315 125.009 202.721 126.42 203.531 127.484C204.352 128.549 205.445 129.081 206.812 129.081C208.189 129.081 209.283 128.544 210.094 127.47C210.904 126.386 211.31 124.872 211.31 122.929C211.31 121.19 210.895 119.784 210.064 118.71C209.244 117.626 208.15 117.084 206.783 117.084C205.445 117.084 204.366 117.616 203.546 118.681C202.726 119.745 202.315 121.269 202.315 123.251ZM231.217 129.081C232.184 129.081 233.028 128.788 233.751 128.202C234.474 127.616 234.874 126.884 234.952 126.005H237.516C237.467 126.913 237.154 127.777 236.578 128.598C236.002 129.418 235.23 130.072 234.264 130.561C233.307 131.049 232.291 131.293 231.217 131.293C229.059 131.293 227.34 130.575 226.061 129.14C224.791 127.694 224.156 125.722 224.156 123.222V122.768C224.156 121.225 224.439 119.853 225.006 118.651C225.572 117.45 226.383 116.518 227.438 115.854C228.502 115.189 229.757 114.857 231.202 114.857C232.979 114.857 234.454 115.39 235.626 116.454C236.808 117.519 237.438 118.9 237.516 120.6H234.952C234.874 119.574 234.483 118.734 233.78 118.08C233.087 117.416 232.228 117.084 231.202 117.084C229.825 117.084 228.756 117.582 227.994 118.578C227.242 119.564 226.866 120.995 226.866 122.87V123.383C226.866 125.209 227.242 126.615 227.994 127.602C228.746 128.588 229.82 129.081 231.217 129.081ZM239.845 122.929C239.845 121.376 240.147 119.979 240.753 118.739C241.368 117.499 242.218 116.542 243.302 115.868C244.396 115.194 245.641 114.857 247.037 114.857C249.195 114.857 250.938 115.604 252.267 117.099C253.604 118.593 254.273 120.58 254.273 123.061V123.251C254.273 124.794 253.976 126.181 253.38 127.411C252.794 128.632 251.949 129.584 250.846 130.268C249.752 130.951 248.492 131.293 247.066 131.293C244.918 131.293 243.175 130.546 241.837 129.052C240.509 127.558 239.845 125.58 239.845 123.119V122.929ZM242.569 123.251C242.569 125.009 242.975 126.42 243.785 127.484C244.605 128.549 245.699 129.081 247.066 129.081C248.443 129.081 249.537 128.544 250.348 127.47C251.158 126.386 251.563 124.872 251.563 122.929C251.563 121.19 251.148 119.784 250.318 118.71C249.498 117.626 248.404 117.084 247.037 117.084C245.699 117.084 244.62 117.616 243.8 118.681C242.979 119.745 242.569 121.269 242.569 123.251ZM260.221 115.15L260.294 116.908C261.456 115.541 263.023 114.857 264.996 114.857C267.213 114.857 268.722 115.707 269.522 117.406C270.05 116.645 270.733 116.029 271.573 115.561C272.423 115.092 273.424 114.857 274.576 114.857C278.053 114.857 279.82 116.698 279.879 120.38V131H277.169V120.541C277.169 119.408 276.91 118.563 276.393 118.007C275.875 117.44 275.006 117.157 273.785 117.157C272.779 117.157 271.944 117.46 271.28 118.065C270.616 118.661 270.23 119.467 270.123 120.482V131H267.398V120.614C267.398 118.31 266.271 117.157 264.015 117.157C262.237 117.157 261.021 117.914 260.367 119.428V131H257.657V115.15H260.221ZM290.558 131.293C288.409 131.293 286.661 130.59 285.313 129.184C283.966 127.768 283.292 125.878 283.292 123.515V123.017C283.292 121.444 283.59 120.043 284.186 118.812C284.791 117.572 285.631 116.605 286.705 115.912C287.789 115.209 288.961 114.857 290.221 114.857C292.281 114.857 293.883 115.536 295.025 116.894C296.168 118.251 296.739 120.194 296.739 122.724V123.852L286.002 123.852C286.041 125.414 286.495 126.679 287.364 127.646C288.243 128.603 289.356 129.081 290.704 129.081C291.661 129.081 292.472 128.886 293.136 128.495C293.8 128.104 294.381 127.587 294.879 126.942L296.534 128.231C295.206 130.272 293.214 131.293 290.558 131.293ZM290.221 117.084C289.127 117.084 288.209 117.484 287.467 118.285C286.725 119.076 286.266 120.189 286.09 121.625L294.029 121.625V121.42C293.951 120.043 293.58 118.979 292.916 118.227C292.252 117.465 291.354 117.084 290.221 117.084ZM317.115 129.433C316.061 130.673 314.513 131.293 312.472 131.293C310.782 131.293 309.493 130.805 308.604 129.828C307.726 128.842 307.281 127.387 307.271 125.463V115.15H309.981V125.39C309.981 127.792 310.958 128.993 312.911 128.993C314.981 128.993 316.358 128.222 317.042 126.679V115.15H319.752V131L317.174 131L317.115 129.433ZM337.271 123.251C337.271 125.663 336.72 127.606 335.616 129.081C334.513 130.556 333.019 131.293 331.134 131.293C329.21 131.293 327.696 130.683 326.593 129.462V137.094H323.883V115.15H326.358L326.49 116.908C327.594 115.541 329.127 114.857 331.09 114.857C332.994 114.857 334.498 115.575 335.602 117.011C336.715 118.446 337.271 120.443 337.271 123.002V123.251ZM334.562 122.943C334.562 121.156 334.181 119.745 333.419 118.71C332.657 117.675 331.612 117.157 330.284 117.157C328.644 117.157 327.413 117.885 326.593 119.34V126.913C327.403 128.358 328.644 129.081 330.313 129.081C331.612 129.081 332.643 128.568 333.404 127.543C334.176 126.508 334.562 124.975 334.562 122.943ZM40.084 166.265L43.1309 154.15H45.8408L41.2266 170H39.0293L35.1768 157.988L31.4268 170H29.2295L24.6299 154.15H27.3252L30.4453 166.016L34.1367 154.15H36.3193L40.084 166.265ZM51.5537 170H48.8438V154.15H51.5537V170ZM48.624 149.946C48.624 149.507 48.7559 149.136 49.0195 148.833C49.293 148.53 49.6934 148.379 50.2207 148.379C50.748 148.379 51.1484 148.53 51.4219 148.833C51.6953 149.136 51.832 149.507 51.832 149.946C51.832 150.386 51.6953 150.752 51.4219 151.045C51.1484 151.338 50.748 151.484 50.2207 151.484C49.6934 151.484 49.293 151.338 49.0195 151.045C48.7559 150.752 48.624 150.386 48.624 149.946ZM59.5811 150.312V154.15H62.54V156.245H59.5811L59.5811 166.074C59.5811 166.709 59.7129 167.188 59.9766 167.51C60.2402 167.822 60.6895 167.979 61.3242 167.979C61.6367 167.979 62.0664 167.92 62.6133 167.803V170C61.9004 170.195 61.207 170.293 60.5332 170.293C59.3223 170.293 58.4092 169.927 57.7939 169.194C57.1787 168.462 56.8711 167.422 56.8711 166.074L56.8711 156.245H53.9854V154.15H56.8711V150.312H59.5811ZM68.4287 156.069C69.6299 154.595 71.1924 153.857 73.1162 153.857C76.4658 153.857 78.1553 155.747 78.1846 159.526V170H75.4746V159.512C75.4648 158.369 75.2012 157.524 74.6836 156.978C74.1758 156.431 73.3799 156.157 72.2959 156.157C71.417 156.157 70.6455 156.392 69.9814 156.86C69.3174 157.329 68.7998 157.944 68.4287 158.706V170H65.7188L65.7188 147.5H68.4287V156.069ZM99.4688 170C99.3125 169.687 99.1855 169.131 99.0879 168.33C97.8281 169.639 96.3242 170.293 94.5762 170.293C93.0137 170.293 91.7295 169.854 90.7236 168.975C89.7275 168.086 89.2295 166.963 89.2295 165.605C89.2295 163.955 89.8545 162.676 91.1045 161.768C92.3643 160.85 94.1318 160.391 96.4072 160.391L99.0439 160.391V159.146C99.0439 158.198 98.7607 157.446 98.1943 156.89C97.6279 156.323 96.793 156.04 95.6895 156.04C94.7227 156.04 93.9121 156.284 93.2578 156.772C92.6035 157.261 92.2764 157.852 92.2764 158.545H89.5518C89.5518 157.754 89.8301 156.992 90.3867 156.26C90.9531 155.518 91.7148 154.932 92.6719 154.502C93.6387 154.072 94.6982 153.857 95.8506 153.857C97.6768 153.857 99.1074 154.316 100.143 155.234C101.178 156.143 101.715 157.397 101.754 158.999V166.294C101.754 167.749 101.939 168.906 102.311 169.766V170H99.4688ZM94.9717 167.935C95.8213 167.935 96.627 167.715 97.3887 167.275C98.1504 166.836 98.7021 166.265 99.0439 165.562V162.31H96.9199C93.5996 162.31 91.9395 163.281 91.9395 165.225C91.9395 166.074 92.2227 166.738 92.7891 167.217C93.3555 167.695 94.083 167.935 94.9717 167.935ZM108.565 154.15L108.653 156.143C109.864 154.619 111.446 153.857 113.399 153.857C116.749 153.857 118.438 155.747 118.468 159.526V170H115.758V159.512C115.748 158.369 115.484 157.524 114.967 156.978C114.459 156.431 113.663 156.157 112.579 156.157C111.7 156.157 110.929 156.392 110.265 156.86C109.601 157.329 109.083 157.944 108.712 158.706V170H106.002V154.15H108.565ZM132.94 170H130.23V154.15H132.94V170ZM130.011 149.946C130.011 149.507 130.143 149.136 130.406 148.833C130.68 148.53 131.08 148.379 131.607 148.379C132.135 148.379 132.535 148.53 132.809 148.833C133.082 149.136 133.219 149.507 133.219 149.946C133.219 150.386 133.082 150.752 132.809 151.045C132.535 151.338 132.135 151.484 131.607 151.484C131.08 151.484 130.68 151.338 130.406 151.045C130.143 150.752 130.011 150.386 130.011 149.946ZM136.632 161.943C136.632 159.512 137.208 157.559 138.36 156.084C139.513 154.6 141.021 153.857 142.887 153.857C144.742 153.857 146.212 154.492 147.296 155.762V147.5H150.006V170H147.516L147.384 168.301C146.3 169.629 144.791 170.293 142.857 170.293C141.021 170.293 139.522 169.541 138.36 168.037C137.208 166.533 136.632 164.57 136.632 162.148V161.943ZM139.342 162.251C139.342 164.048 139.713 165.454 140.455 166.47C141.197 167.485 142.223 167.993 143.531 167.993C145.25 167.993 146.505 167.222 147.296 165.679V158.398C146.485 156.904 145.24 156.157 143.561 156.157C142.232 156.157 141.197 156.67 140.455 157.695C139.713 158.721 139.342 160.239 139.342 162.251ZM160.802 170.293C158.653 170.293 156.905 169.59 155.558 168.184C154.21 166.768 153.536 164.878 153.536 162.515V162.017C153.536 160.444 153.834 159.043 154.43 157.812C155.035 156.572 155.875 155.605 156.949 154.912C158.033 154.209 159.205 153.857 160.465 153.857C162.525 153.857 164.127 154.536 165.27 155.894C166.412 157.251 166.983 159.194 166.983 161.724V162.852H156.246C156.285 164.414 156.739 165.679 157.608 166.646C158.487 167.603 159.601 168.081 160.948 168.081C161.905 168.081 162.716 167.886 163.38 167.495C164.044 167.104 164.625 166.587 165.123 165.942L166.778 167.231C165.45 169.272 163.458 170.293 160.802 170.293ZM160.465 156.084C159.371 156.084 158.453 156.484 157.711 157.285C156.969 158.076 156.51 159.189 156.334 160.625H164.273V160.42C164.195 159.043 163.824 157.979 163.16 157.227C162.496 156.465 161.598 156.084 160.465 156.084ZM173.077 170H170.367V154.15H173.077V170ZM170.147 149.946C170.147 149.507 170.279 149.136 170.543 148.833C170.816 148.53 171.217 148.379 171.744 148.379C172.271 148.379 172.672 148.53 172.945 148.833C173.219 149.136 173.355 149.507 173.355 149.946C173.355 150.386 173.219 150.752 172.945 151.045C172.672 151.338 172.271 151.484 171.744 151.484C171.217 151.484 170.816 151.338 170.543 151.045C170.279 150.752 170.147 150.386 170.147 149.946ZM187.213 170C187.057 169.687 186.93 169.131 186.832 168.33C185.572 169.639 184.068 170.293 182.32 170.293C180.758 170.293 179.474 169.854 178.468 168.975C177.472 168.086 176.974 166.963 176.974 165.605C176.974 163.955 177.599 162.676 178.849 161.768C180.108 160.85 181.876 160.391 184.151 160.391H186.788V159.146C186.788 158.198 186.505 157.446 185.938 156.89C185.372 156.323 184.537 156.04 183.434 156.04C182.467 156.04 181.656 156.284 181.002 156.772C180.348 157.261 180.021 157.852 180.021 158.545H177.296C177.296 157.754 177.574 156.992 178.131 156.26C178.697 155.518 179.459 154.932 180.416 154.502C181.383 154.072 182.442 153.857 183.595 153.857C185.421 153.857 186.852 154.316 187.887 155.234C188.922 156.143 189.459 157.397 189.498 158.999V166.294C189.498 167.749 189.684 168.906 190.055 169.766V170H187.213ZM182.716 167.935C183.565 167.935 184.371 167.715 185.133 167.275C185.895 166.836 186.446 166.265 186.788 165.562V162.31H184.664C181.344 162.31 179.684 163.281 179.684 165.225C179.684 166.074 179.967 166.738 180.533 167.217C181.1 167.695 181.827 167.935 182.716 167.935ZM200.47 161.929C200.47 160.376 200.772 158.979 201.378 157.739C201.993 156.499 202.843 155.542 203.927 154.868C205.021 154.194 206.266 153.857 207.662 153.857C209.82 153.857 211.563 154.604 212.892 156.099C214.229 157.593 214.898 159.58 214.898 162.061V162.251C214.898 163.794 214.601 165.181 214.005 166.411C213.419 167.632 212.574 168.584 211.471 169.268C210.377 169.951 209.117 170.293 207.691 170.293C205.543 170.293 203.8 169.546 202.462 168.052C201.134 166.558 200.47 164.58 200.47 162.119V161.929ZM203.194 162.251C203.194 164.009 203.6 165.42 204.41 166.484C205.23 167.549 206.324 168.081 207.691 168.081C209.068 168.081 210.162 167.544 210.973 166.47C211.783 165.386 212.188 163.872 212.188 161.929C212.188 160.19 211.773 158.784 210.943 157.71C210.123 156.626 209.029 156.084 207.662 156.084C206.324 156.084 205.245 156.616 204.425 157.681C203.604 158.745 203.194 160.269 203.194 162.251ZM219.63 170V156.245H217.125V154.15H219.63V152.524C219.63 150.825 220.084 149.512 220.992 148.584C221.9 147.656 223.185 147.192 224.845 147.192C225.47 147.192 226.09 147.275 226.705 147.441L226.559 149.639C226.1 149.551 225.611 149.507 225.094 149.507C224.215 149.507 223.536 149.766 223.058 150.283C222.579 150.791 222.34 151.523 222.34 152.48V154.15H225.724V156.245H222.34V170H219.63ZM245.953 170C245.797 169.687 245.67 169.131 245.572 168.33C244.312 169.639 242.809 170.293 241.061 170.293C239.498 170.293 238.214 169.854 237.208 168.975C236.212 168.086 235.714 166.963 235.714 165.605C235.714 163.955 236.339 162.676 237.589 161.768C238.849 160.85 240.616 160.391 242.892 160.391H245.528V159.146C245.528 158.198 245.245 157.446 244.679 156.89C244.112 156.323 243.277 156.04 242.174 156.04C241.207 156.04 240.396 156.284 239.742 156.772C239.088 157.261 238.761 157.852 238.761 158.545H236.036C236.036 157.754 236.314 156.992 236.871 156.26C237.438 155.518 238.199 154.932 239.156 154.502C240.123 154.072 241.183 153.857 242.335 153.857C244.161 153.857 245.592 154.316 246.627 155.234C247.662 156.143 248.199 157.397 248.238 158.999V166.294C248.238 167.749 248.424 168.906 248.795 169.766V170H245.953ZM241.456 167.935C242.306 167.935 243.111 167.715 243.873 167.275C244.635 166.836 245.187 166.265 245.528 165.562V162.31H243.404C240.084 162.31 238.424 163.281 238.424 165.225C238.424 166.074 238.707 166.738 239.273 167.217C239.84 167.695 240.567 167.935 241.456 167.935ZM259.283 161.943C259.283 159.473 259.854 157.51 260.997 156.055C262.14 154.59 263.653 153.857 265.538 153.857C267.472 153.857 268.98 154.541 270.064 155.908L270.196 154.15H272.672V169.619C272.672 171.67 272.062 173.286 270.841 174.468C269.63 175.649 267.999 176.24 265.948 176.24C264.806 176.24 263.688 175.996 262.594 175.508C261.5 175.02 260.665 174.351 260.089 173.501L261.495 171.875C262.657 173.311 264.078 174.028 265.758 174.028C267.076 174.028 268.102 173.657 268.834 172.915C269.576 172.173 269.947 171.128 269.947 169.78V168.418C268.863 169.668 267.384 170.293 265.509 170.293C263.653 170.293 262.149 169.546 260.997 168.052C259.854 166.558 259.283 164.521 259.283 161.943ZM262.008 162.251C262.008 164.038 262.374 165.444 263.106 166.47C263.839 167.485 264.864 167.993 266.183 167.993C267.892 167.993 269.146 167.217 269.947 165.664V158.428C269.117 156.914 267.872 156.157 266.212 156.157C264.894 156.157 263.863 156.67 263.121 157.695C262.379 158.721 262.008 160.239 262.008 162.251ZM279.718 170H277.008V154.15H279.718V170ZM276.788 149.946C276.788 149.507 276.92 149.136 277.184 148.833C277.457 148.53 277.857 148.379 278.385 148.379C278.912 148.379 279.312 148.53 279.586 148.833C279.859 149.136 279.996 149.507 279.996 149.946C279.996 150.386 279.859 150.752 279.586 151.045C279.312 151.338 278.912 151.484 278.385 151.484C277.857 151.484 277.457 151.338 277.184 151.045C276.92 150.752 276.788 150.386 276.788 149.946ZM285.401 170V156.245H282.896V154.15H285.401V152.524C285.401 150.825 285.855 149.512 286.764 148.584C287.672 147.656 288.956 147.192 290.616 147.192C291.241 147.192 291.861 147.275 292.477 147.441L292.33 149.639C291.871 149.551 291.383 149.507 290.865 149.507C289.986 149.507 289.308 149.766 288.829 150.283C288.351 150.791 288.111 151.523 288.111 152.48V154.15H291.495V156.245H288.111V170H285.401ZM298.175 150.312V154.15H301.134V156.245H298.175V166.074C298.175 166.709 298.307 167.187 298.57 167.51C298.834 167.822 299.283 167.979 299.918 167.979C300.23 167.979 300.66 167.92 301.207 167.803V170C300.494 170.195 299.801 170.293 299.127 170.293C297.916 170.293 297.003 169.927 296.388 169.194C295.772 168.462 295.465 167.422 295.465 166.074V156.245H292.579V154.15H295.465V150.312H298.175Z" fill="black"/>
</g>
<defs>
<filter id="filter0_d" x="0" y="7" width="375" height="431" filterUnits="userSpaceOnUse" color-interpolation-filters="sRGB">
<feFlood flood-opacity="0" result="BackgroundImageFix"/>
<feColorMatrix in="SourceAlpha" type="matrix" values="0 0 0 0 0 0 0 0 0 0 0 0 0 0 0 0 0 0 127 0"/>
<feOffset dy="4"/>
<feGaussianBlur stdDeviation="2"/>
<feColorMatrix type="matrix" values="0 0 0 0 0 0 0 0 0 0 0 0 0 0 0 0 0 0 0.25 0"/>
<feBlend mode="normal" in2="BackgroundImageFix" result="effect1_dropShadow"/>
<feBlend mode="normal" in="SourceGraphic" in2="effect1_dropShadow" result="shape"/>
</filter>
<clipPath id="clip0">
<rect width="30" height="30" fill="white" transform="translate(321.943 29)"/>
</clipPath>
</defs>
</svg>
