<svg width="398" height="426" viewBox="0 0 398 426" fill="none" xmlns="http://www.w3.org/2000/svg">
<g filter="url(#filter0_d)">
<rect x="4" width="390" height="418" rx="15" fill="#F9F9F9"/>
<rect x="4" width="390" height="75" rx="15" fill="#387D7A"/>
<path d="M30.1084 25.6719L37.0811 43.0742L44.0537 25.6719L47.7012 25.6719L47.7012 47L44.8887 47L44.8887 38.6943L45.1523 29.7295L38.1504 47H35.9971L29.0098 29.7734L29.2881 38.6943L29.2881 47H26.4756L26.4756 25.6719H30.1084ZM51.5244 38.9287C51.5244 37.376 51.8271 35.9795 52.4326 34.7393C53.0479 33.499 53.8975 32.542 54.9814 31.8682C56.0752 31.1943 57.3203 30.8574 58.7168 30.8574C60.875 30.8574 62.6182 31.6045 63.9463 33.0986C65.2842 34.5928 65.9531 36.5801 65.9531 39.0605V39.251C65.9531 40.7939 65.6553 42.1807 65.0596 43.4111C64.4736 44.6318 63.6289 45.584 62.5254 46.2676C61.4316 46.9512 60.1719 47.293 58.7461 47.293C56.5977 47.293 54.8545 46.5459 53.5166 45.0518C52.1885 43.5576 51.5244 41.5801 51.5244 39.1191V38.9287ZM54.249 39.251C54.249 41.0088 54.6543 42.4199 55.4648 43.4844C56.2852 44.5488 57.3789 45.0811 58.7461 45.0811C60.123 45.0811 61.2168 44.5439 62.0273 43.4697C62.8379 42.3857 63.2432 40.8721 63.2432 38.9287C63.2432 37.1904 62.8281 35.7842 61.998 34.71C61.1777 33.626 60.084 33.084 58.7168 33.084C57.3789 33.084 56.2998 33.6162 55.4795 34.6807C54.6592 35.7451 54.249 37.2686 54.249 39.251ZM71.9004 31.1504L71.9736 32.9082C73.1357 31.541 74.7031 30.8574 76.6758 30.8574C78.8926 30.8574 80.4014 31.707 81.2021 33.4062C81.7295 32.6445 82.4131 32.0293 83.2529 31.5605C84.1025 31.0918 85.1035 30.8574 86.2559 30.8574C89.7324 30.8574 91.5 32.6982 91.5586 36.3799V47H88.8486V36.541C88.8486 35.4082 88.5898 34.5635 88.0723 34.0068C87.5547 33.4404 86.6855 33.1572 85.4648 33.1572C84.459 33.1572 83.624 33.46 82.96 34.0654C82.2959 34.6611 81.9102 35.4668 81.8027 36.4824V47H79.0781V36.6143C79.0781 34.3096 77.9502 33.1572 75.6943 33.1572C73.917 33.1572 72.7012 33.9141 72.0469 35.4277V47H69.3369V31.1504L71.9004 31.1504ZM94.6787 31.6777L93.1406 30.623C94.0488 29.3535 94.5176 28.0156 94.5469 26.6094V24.5H97.2275V26.4043C97.2178 27.3809 96.9736 28.3574 96.4951 29.334C96.0264 30.3008 95.4209 31.082 94.6787 31.6777ZM108.082 42.7959C108.082 42.0635 107.804 41.4971 107.247 41.0967C106.7 40.6865 105.738 40.335 104.361 40.042C102.994 39.749 101.905 39.3975 101.095 38.9873C100.294 38.5771 99.6982 38.0889 99.3076 37.5225C98.9268 36.9561 98.7363 36.2822 98.7363 35.501C98.7363 34.2021 99.2832 33.1035 100.377 32.2051C101.48 31.3066 102.887 30.8574 104.596 30.8574C106.393 30.8574 107.848 31.3213 108.961 32.249C110.084 33.1768 110.646 34.3633 110.646 35.8086H107.921C107.921 35.0664 107.604 34.4268 106.969 33.8896C106.344 33.3525 105.553 33.084 104.596 33.084C103.609 33.084 102.838 33.2988 102.281 33.7285C101.725 34.1582 101.446 34.7197 101.446 35.4131C101.446 36.0674 101.705 36.5605 102.223 36.8926C102.74 37.2246 103.673 37.542 105.021 37.8447C106.378 38.1475 107.477 38.5088 108.316 38.9287C109.156 39.3486 109.776 39.8564 110.177 40.4521C110.587 41.0381 110.792 41.7559 110.792 42.6055C110.792 44.0215 110.226 45.1592 109.093 46.0186C107.96 46.8682 106.49 47.293 104.684 47.293C103.414 47.293 102.291 47.0684 101.314 46.6191C100.338 46.1699 99.5713 45.5449 99.0146 44.7441C98.4678 43.9336 98.1943 43.0596 98.1943 42.1221H100.904C100.953 43.0303 101.314 43.7529 101.988 44.29C102.672 44.8174 103.57 45.0811 104.684 45.0811C105.709 45.0811 106.529 44.876 107.145 44.4658C107.77 44.0459 108.082 43.4893 108.082 42.7959ZM135.182 39.251C135.182 41.6729 134.625 43.6211 133.512 45.0957C132.398 46.5605 130.904 47.293 129.029 47.293C127.027 47.293 125.479 46.585 124.386 45.1689L124.254 47H121.764V24.5H124.474V32.8936C125.567 31.5361 127.076 30.8574 129 30.8574C130.924 30.8574 132.433 31.585 133.526 33.04C134.63 34.4951 135.182 36.4873 135.182 39.0166V39.251ZM132.472 38.9434C132.472 37.0977 132.115 35.6719 131.402 34.666C130.689 33.6602 129.664 33.1572 128.326 33.1572C126.539 33.1572 125.255 33.9873 124.474 35.6475V42.5029C125.304 44.1631 126.598 44.9932 128.355 44.9932C129.654 44.9932 130.665 44.4902 131.388 43.4844C132.11 42.4785 132.472 40.9648 132.472 38.9434ZM141.554 47H138.844V31.1504H141.554V47ZM138.624 26.9463C138.624 26.5068 138.756 26.1357 139.02 25.833C139.293 25.5303 139.693 25.3789 140.221 25.3789C140.748 25.3789 141.148 25.5303 141.422 25.833C141.695 26.1357 141.832 26.5068 141.832 26.9463C141.832 27.3857 141.695 27.752 141.422 28.0449C141.148 28.3379 140.748 28.4844 140.221 28.4844C139.693 28.4844 139.293 28.3379 139.02 28.0449C138.756 27.752 138.624 27.3857 138.624 26.9463ZM153.565 33.582C153.155 33.5137 152.711 33.4795 152.232 33.4795C150.455 33.4795 149.249 34.2363 148.614 35.75V47H145.904V31.1504H148.541L148.585 32.9814C149.474 31.5654 150.733 30.8574 152.364 30.8574C152.892 30.8574 153.292 30.9258 153.565 31.0625V33.582ZM160.479 27.3125V31.1504H163.438V33.2451H160.479V43.0742C160.479 43.709 160.611 44.1875 160.875 44.5098C161.139 44.8223 161.588 44.9785 162.223 44.9785C162.535 44.9785 162.965 44.9199 163.512 44.8027V47C162.799 47.1953 162.105 47.293 161.432 47.293C160.221 47.293 159.308 46.9268 158.692 46.1943C158.077 45.4619 157.77 44.4219 157.77 43.0742V33.2451H154.884V31.1504H157.77V27.3125L160.479 27.3125ZM169.327 33.0693C170.528 31.5947 172.091 30.8574 174.015 30.8574C177.364 30.8574 179.054 32.7471 179.083 36.5264V47L176.373 47V36.5117C176.363 35.3691 176.1 34.5244 175.582 33.9775C175.074 33.4307 174.278 33.1572 173.194 33.1572C172.315 33.1572 171.544 33.3916 170.88 33.8604C170.216 34.3291 169.698 34.9443 169.327 35.7061V47H166.617V24.5H169.327V33.0693ZM182.481 38.9434C182.481 36.5117 183.058 34.5586 184.21 33.084C185.362 31.5996 186.871 30.8574 188.736 30.8574C190.592 30.8574 192.062 31.4922 193.146 32.7617V24.5H195.855V47H193.365L193.233 45.3008C192.149 46.6289 190.641 47.293 188.707 47.293C186.871 47.293 185.372 46.541 184.21 45.0371C183.058 43.5332 182.481 41.5703 182.481 39.1484V38.9434ZM185.191 39.251C185.191 41.0479 185.562 42.4541 186.305 43.4697C187.047 44.4854 188.072 44.9932 189.381 44.9932C191.1 44.9932 192.354 44.2217 193.146 42.6787V35.3984C192.335 33.9043 191.09 33.1572 189.41 33.1572C188.082 33.1572 187.047 33.6699 186.305 34.6953C185.562 35.7207 185.191 37.2393 185.191 39.251ZM209.859 47C209.703 46.6875 209.576 46.1309 209.479 45.3301C208.219 46.6387 206.715 47.293 204.967 47.293C203.404 47.293 202.12 46.8535 201.114 45.9746C200.118 45.0859 199.62 43.9629 199.62 42.6055C199.62 40.9551 200.245 39.6758 201.495 38.7676C202.755 37.8496 204.522 37.3906 206.798 37.3906H209.435V36.1455C209.435 35.1982 209.151 34.4463 208.585 33.8896C208.019 33.3232 207.184 33.04 206.08 33.04C205.113 33.04 204.303 33.2842 203.648 33.7725C202.994 34.2607 202.667 34.8516 202.667 35.5449H199.942C199.942 34.7539 200.221 33.9922 200.777 33.2598C201.344 32.5176 202.105 31.9316 203.062 31.502C204.029 31.0723 205.089 30.8574 206.241 30.8574C208.067 30.8574 209.498 31.3164 210.533 32.2344C211.568 33.1426 212.105 34.3975 212.145 35.999V43.2939C212.145 44.749 212.33 45.9062 212.701 46.7656V47H209.859ZM205.362 44.9346C206.212 44.9346 207.018 44.7148 207.779 44.2754C208.541 43.8359 209.093 43.2646 209.435 42.5615V39.3096H207.311C203.99 39.3096 202.33 40.2812 202.33 42.2246C202.33 43.0742 202.613 43.7383 203.18 44.2168C203.746 44.6953 204.474 44.9346 205.362 44.9346ZM221.344 43.0303L225.035 31.1504H227.936L221.563 49.4463C220.577 52.083 219.01 53.4014 216.861 53.4014L216.349 53.3574L215.338 53.167V50.9697L216.07 51.0283C216.988 51.0283 217.701 50.8428 218.209 50.4717C218.727 50.1006 219.151 49.4219 219.483 48.4355L220.084 46.8242L214.43 31.1504L217.389 31.1504L221.344 43.0303Z" fill="white"/>
<path d="M320.648 21.74L301.82 21.74C298.74 21.74 296.234 24.2459 296.234 27.326V46.1541C296.234 49.2341 298.74 51.74 301.82 51.74L320.648 51.74C323.729 51.74 326.234 49.2341 326.234 46.1541V27.326C326.234 24.2459 323.729 21.74 320.648 21.74ZM324.477 46.1541C324.477 48.2649 322.759 49.9822 320.648 49.9822L301.82 49.9822C299.709 49.9822 297.992 48.2649 297.992 46.1541V27.326C297.992 25.2151 299.709 23.4978 301.82 23.4978L320.648 23.4978C322.759 23.4978 324.477 25.2151 324.477 27.326V46.1541Z" fill="white"/>
<path d="M319.707 35.8611L302.762 35.8611C302.276 35.8611 301.883 36.2546 301.883 36.74C301.883 37.2254 302.276 37.6189 302.762 37.6189L319.707 37.6189C320.192 37.6189 320.586 37.2254 320.586 36.74C320.586 36.2546 320.193 35.8611 319.707 35.8611Z" fill="white"/>
<g clip-path="url(#clip0)">
<path d="M363.329 32.4806C362.917 32.4806 362.582 32.7914 362.582 33.1749V46.2966C362.582 46.6798 362.917 46.9909 363.329 46.9909C363.741 46.9909 364.076 46.6798 364.076 46.2966V33.1749C364.076 32.7914 363.741 32.4806 363.329 32.4806Z" fill="white"/>
<path d="M354.52 32.4806C354.107 32.4806 353.773 32.7914 353.773 33.1749V46.2966C353.773 46.6798 354.107 46.9909 354.52 46.9909C354.932 46.9909 355.266 46.6798 355.266 46.2966V33.1749C355.266 32.7914 354.932 32.4806 354.52 32.4806Z" fill="white"/>
<path d="M348.099 30.5656V47.6709C348.099 48.682 348.497 49.6314 349.194 50.3127C349.887 50.9958 350.852 51.3836 351.862 51.3853H365.988C366.997 51.3836 367.962 50.9958 368.655 50.3127C369.352 49.6314 369.75 48.682 369.75 47.6709V30.5656C371.135 30.2239 372.032 28.9802 371.847 27.6591C371.661 26.3384 370.451 25.3504 369.019 25.3502L365.196 25.3502V24.4823C365.2 23.7525 364.89 23.0517 364.334 22.5362C363.779 22.0209 363.024 21.734 362.239 21.74H355.61C354.825 21.734 354.07 22.0209 353.515 22.5362C352.959 23.0517 352.649 23.7525 352.653 24.4823V25.3502H348.83C347.398 25.3504 346.188 26.3384 346.002 27.6591C345.817 28.9802 346.714 30.2239 348.099 30.5656V30.5656ZM365.988 49.9967H351.862C350.585 49.9967 349.592 48.977 349.592 47.6709V30.6266L368.257 30.6266V47.6709C368.257 48.977 367.264 49.9967 365.988 49.9967ZM354.146 24.4823C354.141 24.1208 354.294 23.7729 354.57 23.5177C354.846 23.2625 355.221 23.1223 355.61 23.1285H362.239C362.628 23.1223 363.003 23.2625 363.279 23.5177C363.555 23.7726 363.708 24.1208 363.703 24.4823V25.3502L354.146 25.3502V24.4823ZM348.83 26.7387L369.019 26.7387C369.761 26.7387 370.362 27.2982 370.362 27.9884C370.362 28.6786 369.761 29.2381 369.019 29.2381L348.83 29.2381C348.088 29.2381 347.487 28.6786 347.487 27.9884C347.487 27.2982 348.088 26.7387 348.83 26.7387V26.7387Z" fill="white"/>
<path d="M358.924 32.4806C358.512 32.4806 358.178 32.7914 358.178 33.1749V46.2966C358.178 46.6798 358.512 46.9909 358.924 46.9909C359.337 46.9909 359.671 46.6798 359.671 46.2966V33.1749C359.671 32.7914 359.337 32.4806 358.924 32.4806Z" fill="white"/>
</g>
<path d="M39.7422 121.135C39.5137 123.09 38.79 124.601 37.5713 125.667C36.361 126.725 34.7487 127.254 32.7344 127.254C30.5508 127.254 28.7988 126.471 27.4785 124.905C26.1667 123.34 25.5107 121.245 25.5107 118.621V116.844C25.5107 115.126 25.8154 113.615 26.4248 112.312C27.0426 111.008 27.9144 110.009 29.04 109.315C30.1657 108.613 31.4691 108.262 32.9502 108.262C34.9137 108.262 36.488 108.812 37.6729 109.912C38.8577 111.004 39.5475 112.519 39.7422 114.457H37.292C37.0804 112.984 36.6191 111.918 35.9082 111.258C35.2057 110.598 34.2197 110.268 32.9502 110.268C31.3929 110.268 30.1699 110.843 29.2812 111.994C28.401 113.145 27.9609 114.783 27.9609 116.907V118.697C27.9609 120.703 28.3799 122.299 29.2178 123.483C30.0557 124.668 31.2279 125.261 32.7344 125.261C34.0885 125.261 35.1253 124.956 35.8447 124.347C36.5726 123.729 37.055 122.658 37.292 121.135H39.7422ZM51.1934 127C51.0579 126.729 50.9479 126.247 50.8633 125.553C49.7715 126.687 48.4681 127.254 46.9531 127.254C45.599 127.254 44.486 126.873 43.6143 126.111C42.751 125.341 42.3193 124.368 42.3193 123.191C42.3193 121.761 42.861 120.652 43.9443 119.865C45.0361 119.07 46.568 118.672 48.54 118.672H50.8252V117.593C50.8252 116.772 50.5798 116.12 50.0889 115.638C49.598 115.147 48.8743 114.901 47.918 114.901C47.0801 114.901 46.3776 115.113 45.8105 115.536C45.2435 115.959 44.96 116.471 44.96 117.072H42.5986C42.5986 116.387 42.8398 115.727 43.3223 115.092C43.8132 114.449 44.4733 113.941 45.3027 113.568C46.1406 113.196 47.0589 113.01 48.0576 113.01C49.6403 113.01 50.8802 113.408 51.7773 114.203C52.6745 114.99 53.14 116.078 53.1738 117.466V123.788C53.1738 125.049 53.3346 126.052 53.6562 126.797V127H51.1934ZM47.2959 125.21C48.0322 125.21 48.7305 125.02 49.3906 124.639C50.0508 124.258 50.529 123.763 50.8252 123.153V120.335H48.9844C46.1068 120.335 44.668 121.177 44.668 122.861C44.668 123.598 44.9134 124.173 45.4043 124.588C45.8952 125.003 46.5257 125.21 47.2959 125.21ZM59.4072 127H57.0586L57.0586 107.5H59.4072L59.4072 127ZM65.7295 127H63.3809L63.3809 107.5H65.7295V127ZM84.0615 108.516H86.5117V121.604C86.5117 123.373 85.9785 124.757 84.9121 125.756C83.8542 126.755 82.4408 127.254 80.6719 127.254C78.8353 127.254 77.4049 126.784 76.3809 125.845C75.3568 124.905 74.8447 123.589 74.8447 121.896H77.2822C77.2822 122.954 77.57 123.78 78.1455 124.372C78.7295 124.965 79.5716 125.261 80.6719 125.261C81.679 125.261 82.4915 124.943 83.1094 124.309C83.7357 123.674 84.0531 122.785 84.0615 121.643V108.516ZM89.6729 120.005C89.6729 118.659 89.9352 117.449 90.46 116.374C90.9932 115.299 91.7295 114.47 92.6689 113.886C93.6169 113.302 94.696 113.01 95.9062 113.01C97.7767 113.01 99.2874 113.657 100.438 114.952C101.598 116.247 102.178 117.969 102.178 120.119V120.284C102.178 121.621 101.92 122.823 101.403 123.89C100.896 124.948 100.163 125.773 99.207 126.365C98.2591 126.958 97.1673 127.254 95.9316 127.254C94.0697 127.254 92.5589 126.606 91.3994 125.312C90.2484 124.017 89.6729 122.303 89.6729 120.17V120.005ZM92.0342 120.284C92.0342 121.808 92.3854 123.031 93.0879 123.953C93.7988 124.876 94.7467 125.337 95.9316 125.337C97.125 125.337 98.0729 124.871 98.7754 123.94C99.4779 123.001 99.8291 121.689 99.8291 120.005C99.8291 118.498 99.4694 117.28 98.75 116.349C98.0391 115.409 97.0911 114.939 95.9062 114.939C94.7467 114.939 93.8115 115.401 93.1006 116.323C92.3896 117.246 92.0342 118.566 92.0342 120.284ZM113.604 127C113.468 126.729 113.358 126.247 113.273 125.553C112.182 126.687 110.878 127.254 109.363 127.254C108.009 127.254 106.896 126.873 106.024 126.111C105.161 125.341 104.729 124.368 104.729 123.191C104.729 121.761 105.271 120.652 106.354 119.865C107.446 119.07 108.978 118.672 110.95 118.672H113.235V117.593C113.235 116.772 112.99 116.12 112.499 115.638C112.008 115.147 111.285 114.901 110.328 114.901C109.49 114.901 108.788 115.113 108.221 115.536C107.654 115.959 107.37 116.471 107.37 117.072H105.009C105.009 116.387 105.25 115.727 105.732 115.092C106.223 114.449 106.883 113.941 107.713 113.568C108.551 113.196 109.469 113.01 110.468 113.01C112.05 113.01 113.29 113.408 114.188 114.203C115.085 114.99 115.55 116.078 115.584 117.466V123.788C115.584 125.049 115.745 126.052 116.066 126.797V127H113.604ZM109.706 125.21C110.442 125.21 111.141 125.02 111.801 124.639C112.461 124.258 112.939 123.763 113.235 123.153V120.335H111.395C108.517 120.335 107.078 121.177 107.078 122.861C107.078 123.598 107.324 124.173 107.814 124.588C108.305 125.003 108.936 125.21 109.706 125.21ZM121.487 113.264L121.563 114.99C122.613 113.67 123.984 113.01 125.677 113.01C128.58 113.01 130.044 114.647 130.069 117.923V127H127.721V117.91C127.712 116.92 127.484 116.188 127.035 115.714C126.595 115.24 125.905 115.003 124.966 115.003C124.204 115.003 123.535 115.206 122.96 115.612C122.384 116.019 121.936 116.552 121.614 117.212V127H119.266V113.264H121.487ZM135.833 113.264L135.909 114.99C136.959 113.67 138.33 113.01 140.022 113.01C142.925 113.01 144.39 114.647 144.415 117.923V127H142.066V117.91C142.058 116.92 141.829 116.188 141.381 115.714C140.941 115.24 140.251 115.003 139.312 115.003C138.55 115.003 137.881 115.206 137.306 115.612C136.73 116.019 136.282 116.552 135.96 117.212V127H133.611V113.264H135.833ZM156.438 127C156.302 126.729 156.192 126.247 156.107 125.553C155.016 126.687 153.712 127.254 152.197 127.254C150.843 127.254 149.73 126.873 148.858 126.111C147.995 125.341 147.563 124.368 147.563 123.191C147.563 121.761 148.105 120.652 149.188 119.865C150.28 119.07 151.812 118.672 153.784 118.672H156.069V117.593C156.069 116.772 155.824 116.12 155.333 115.638C154.842 115.147 154.118 114.901 153.162 114.901C152.324 114.901 151.622 115.113 151.055 115.536C150.488 115.959 150.204 116.471 150.204 117.072H147.843C147.843 116.387 148.084 115.727 148.566 115.092C149.057 114.449 149.717 113.941 150.547 113.568C151.385 113.196 152.303 113.01 153.302 113.01C154.884 113.01 156.124 113.408 157.021 114.203C157.919 114.99 158.384 116.078 158.418 117.466V123.788C158.418 125.049 158.579 126.052 158.9 126.797V127H156.438ZM152.54 125.21C153.276 125.21 153.975 125.02 154.635 124.639C155.295 124.258 155.773 123.763 156.069 123.153V120.335H154.229C151.351 120.335 149.912 121.177 149.912 122.861C149.912 123.598 150.158 124.173 150.648 124.588C151.139 125.003 151.77 125.21 152.54 125.21ZM171.735 109.937V113.264H174.3V115.079H171.735V123.598C171.735 124.148 171.85 124.562 172.078 124.842C172.307 125.113 172.696 125.248 173.246 125.248C173.517 125.248 173.889 125.197 174.363 125.096V127C173.745 127.169 173.145 127.254 172.561 127.254C171.511 127.254 170.72 126.937 170.187 126.302C169.653 125.667 169.387 124.766 169.387 123.598V115.079H166.886V113.264H169.387V109.937L171.735 109.937ZM176.179 120.005C176.179 118.659 176.441 117.449 176.966 116.374C177.499 115.299 178.235 114.47 179.175 113.886C180.123 113.302 181.202 113.01 182.412 113.01C184.283 113.01 185.793 113.657 186.944 114.952C188.104 116.247 188.684 117.969 188.684 120.119V120.284C188.684 121.621 188.425 122.823 187.909 123.89C187.401 124.948 186.669 125.773 185.713 126.365C184.765 126.958 183.673 127.254 182.438 127.254C180.576 127.254 179.065 126.606 177.905 125.312C176.754 124.017 176.179 122.303 176.179 120.17V120.005ZM178.54 120.284C178.54 121.808 178.891 123.031 179.594 123.953C180.305 124.876 181.253 125.337 182.438 125.337C183.631 125.337 184.579 124.871 185.281 123.94C185.984 123.001 186.335 121.689 186.335 120.005C186.335 118.498 185.975 117.28 185.256 116.349C184.545 115.409 183.597 114.939 182.412 114.939C181.253 114.939 180.317 115.401 179.606 116.323C178.896 117.246 178.54 118.566 178.54 120.284ZM203.588 125.337C204.426 125.337 205.158 125.083 205.784 124.575C206.41 124.067 206.757 123.433 206.825 122.671H209.047C209.005 123.458 208.734 124.207 208.234 124.918C207.735 125.629 207.066 126.196 206.229 126.619C205.399 127.042 204.519 127.254 203.588 127.254C201.717 127.254 200.228 126.632 199.119 125.388C198.019 124.135 197.469 122.425 197.469 120.259V119.865C197.469 118.528 197.714 117.339 198.205 116.298C198.696 115.257 199.398 114.449 200.312 113.873C201.235 113.298 202.323 113.01 203.575 113.01C205.116 113.01 206.394 113.471 207.409 114.394C208.433 115.316 208.979 116.514 209.047 117.986H206.825C206.757 117.098 206.419 116.37 205.81 115.803C205.209 115.227 204.464 114.939 203.575 114.939C202.382 114.939 201.455 115.371 200.795 116.234C200.143 117.089 199.817 118.329 199.817 119.954V120.398C199.817 121.981 200.143 123.2 200.795 124.055C201.447 124.91 202.378 125.337 203.588 125.337ZM211.065 120.005C211.065 118.659 211.328 117.449 211.853 116.374C212.386 115.299 213.122 114.47 214.062 113.886C215.009 113.302 216.089 113.01 217.299 113.01C219.169 113.01 220.68 113.657 221.831 114.952C222.991 116.247 223.57 117.969 223.57 120.119V120.284C223.57 121.621 223.312 122.823 222.796 123.89C222.288 124.948 221.556 125.773 220.6 126.365C219.652 126.958 218.56 127.254 217.324 127.254C215.462 127.254 213.951 126.606 212.792 125.312C211.641 124.017 211.065 122.303 211.065 120.17V120.005ZM213.427 120.284C213.427 121.808 213.778 123.031 214.48 123.953C215.191 124.876 216.139 125.337 217.324 125.337C218.518 125.337 219.465 124.871 220.168 123.94C220.87 123.001 221.222 121.689 221.222 120.005C221.222 118.498 220.862 117.28 220.143 116.349C219.432 115.409 218.484 114.939 217.299 114.939C216.139 114.939 215.204 115.401 214.493 116.323C213.782 117.246 213.427 118.566 213.427 120.284ZM228.725 113.264L228.788 114.787C229.795 113.602 231.154 113.01 232.863 113.01C234.785 113.01 236.092 113.746 236.786 115.219C237.243 114.559 237.836 114.025 238.563 113.619C239.3 113.213 240.167 113.01 241.166 113.01C244.179 113.01 245.711 114.605 245.762 117.796V127H243.413V117.936C243.413 116.954 243.189 116.222 242.74 115.739C242.292 115.248 241.538 115.003 240.48 115.003C239.609 115.003 238.885 115.265 238.31 115.79C237.734 116.306 237.4 117.005 237.307 117.885V127H234.945V117.999C234.945 116.002 233.968 115.003 232.013 115.003C230.472 115.003 229.419 115.659 228.852 116.971V127H226.503V113.264H228.725ZM255.017 127.254C253.155 127.254 251.64 126.645 250.472 125.426C249.304 124.199 248.72 122.561 248.72 120.513V120.081C248.72 118.718 248.978 117.504 249.494 116.437C250.019 115.363 250.747 114.525 251.678 113.924C252.617 113.314 253.633 113.01 254.725 113.01C256.51 113.01 257.898 113.598 258.889 114.774C259.879 115.951 260.374 117.635 260.374 119.827V120.805H251.068C251.102 122.159 251.496 123.255 252.249 124.093C253.011 124.922 253.976 125.337 255.144 125.337C255.973 125.337 256.675 125.168 257.251 124.829C257.826 124.491 258.33 124.042 258.762 123.483L260.196 124.601C259.045 126.369 257.319 127.254 255.017 127.254ZM254.725 114.939C253.777 114.939 252.981 115.286 252.338 115.98C251.695 116.666 251.297 117.631 251.145 118.875H258.025V118.697C257.958 117.504 257.636 116.581 257.061 115.93C256.485 115.27 255.706 114.939 254.725 114.939ZM278.033 125.642C277.119 126.716 275.778 127.254 274.009 127.254C272.545 127.254 271.427 126.831 270.657 125.984C269.896 125.13 269.51 123.868 269.502 122.201V113.264H271.851V122.138C271.851 124.22 272.697 125.261 274.39 125.261C276.184 125.261 277.377 124.592 277.97 123.255V113.264H280.318V127H278.084L278.033 125.642ZM295.502 120.284C295.502 122.375 295.024 124.059 294.067 125.337C293.111 126.615 291.816 127.254 290.183 127.254C288.515 127.254 287.203 126.725 286.247 125.667V132.281H283.898V113.264H286.044L286.158 114.787C287.115 113.602 288.443 113.01 290.145 113.01C291.795 113.01 293.098 113.632 294.055 114.876C295.02 116.12 295.502 117.851 295.502 120.068V120.284ZM293.153 120.018C293.153 118.469 292.823 117.246 292.163 116.349C291.503 115.451 290.597 115.003 289.446 115.003C288.024 115.003 286.958 115.633 286.247 116.895V123.458C286.95 124.711 288.024 125.337 289.472 125.337C290.597 125.337 291.49 124.893 292.15 124.004C292.819 123.107 293.153 121.778 293.153 120.018ZM317.109 123.763L319.75 113.264H322.099L318.1 127H316.195L312.856 116.59L309.606 127H307.702L303.716 113.264H306.052L308.756 123.547L311.955 113.264H313.847L317.109 123.763ZM327.05 127H324.701V113.264H327.05V127ZM324.511 109.62C324.511 109.239 324.625 108.918 324.854 108.655C325.09 108.393 325.438 108.262 325.895 108.262C326.352 108.262 326.699 108.393 326.936 108.655C327.173 108.918 327.291 109.239 327.291 109.62C327.291 110.001 327.173 110.318 326.936 110.572C326.699 110.826 326.352 110.953 325.895 110.953C325.438 110.953 325.09 110.826 324.854 110.572C324.625 110.318 324.511 110.001 324.511 109.62ZM334.007 109.937V113.264H336.571V115.079H334.007V123.598C334.007 124.148 334.121 124.562 334.35 124.842C334.578 125.113 334.967 125.248 335.518 125.248C335.788 125.248 336.161 125.197 336.635 125.096V127C336.017 127.169 335.416 127.254 334.832 127.254C333.783 127.254 332.991 126.937 332.458 126.302C331.925 125.667 331.658 124.766 331.658 123.598V115.079H329.157V113.264H331.658V109.937H334.007ZM341.675 114.927C342.716 113.649 344.07 113.01 345.737 113.01C348.64 113.01 350.104 114.647 350.13 117.923V127H347.781V117.91C347.773 116.92 347.544 116.188 347.096 115.714C346.656 115.24 345.966 115.003 345.026 115.003C344.265 115.003 343.596 115.206 343.021 115.612C342.445 116.019 341.996 116.552 341.675 117.212V127H339.326V107.5H341.675V114.927ZM34.2578 161C34.1224 160.729 34.0124 160.247 33.9277 159.553C32.8359 160.687 31.5326 161.254 30.0176 161.254C28.6634 161.254 27.5505 160.873 26.6787 160.111C25.8154 159.341 25.3838 158.368 25.3838 157.191C25.3838 155.761 25.9255 154.652 27.0088 153.865C28.1006 153.07 29.6325 152.672 31.6045 152.672H33.8896V151.593C33.8896 150.772 33.6442 150.12 33.1533 149.638C32.6624 149.147 31.9388 148.901 30.9824 148.901C30.1445 148.901 29.4421 149.113 28.875 149.536C28.3079 149.959 28.0244 150.471 28.0244 151.072H25.6631C25.6631 150.387 25.9043 149.727 26.3867 149.092C26.8776 148.449 27.5378 147.941 28.3672 147.568C29.2051 147.196 30.1234 147.01 31.1221 147.01C32.7048 147.01 33.9447 147.408 34.8418 148.203C35.7389 148.99 36.2044 150.078 36.2383 151.466V157.788C36.2383 159.049 36.3991 160.052 36.7207 160.797V161H34.2578ZM30.3604 159.21C31.0967 159.21 31.7949 159.02 32.4551 158.639C33.1152 158.258 33.5934 157.763 33.8896 157.153V154.335H32.0488C29.1712 154.335 27.7324 155.177 27.7324 156.861C27.7324 157.598 27.9779 158.173 28.4688 158.588C28.9596 159.003 29.5902 159.21 30.3604 159.21ZM42.1416 147.264L42.2178 148.99C43.2673 147.67 44.6383 147.01 46.3311 147.01C49.234 147.01 50.6982 148.647 50.7236 151.923V161H48.375V151.91C48.3665 150.92 48.138 150.188 47.6895 149.714C47.2493 149.24 46.5596 149.003 45.6201 149.003C44.8584 149.003 44.1898 149.206 43.6143 149.612C43.0387 150.019 42.5902 150.552 42.2686 151.212V161H39.9199L39.9199 147.264H42.1416ZM63.2666 161H60.918L60.918 147.264H63.2666L63.2666 161ZM60.7275 143.62C60.7275 143.239 60.8418 142.918 61.0703 142.655C61.3073 142.393 61.6543 142.262 62.1113 142.262C62.5684 142.262 62.9154 142.393 63.1523 142.655C63.3893 142.918 63.5078 143.239 63.5078 143.62C63.5078 144.001 63.3893 144.318 63.1523 144.572C62.9154 144.826 62.5684 144.953 62.1113 144.953C61.6543 144.953 61.3073 144.826 61.0703 144.572C60.8418 144.318 60.7275 144.001 60.7275 143.62ZM66.4658 154.018C66.4658 151.91 66.9652 150.217 67.9639 148.939C68.9626 147.653 70.2702 147.01 71.8867 147.01C73.4948 147.01 74.7686 147.56 75.708 148.66V141.5H78.0566L78.0566 161H75.8984L75.7842 159.527C74.8447 160.678 73.5371 161.254 71.8613 161.254C70.2702 161.254 68.971 160.602 67.9639 159.299C66.9652 157.995 66.4658 156.294 66.4658 154.195V154.018ZM68.8145 154.284C68.8145 155.841 69.1361 157.06 69.7793 157.94C70.4225 158.821 71.3112 159.261 72.4453 159.261C73.9349 159.261 75.0225 158.592 75.708 157.255L75.708 150.945C75.0055 149.65 73.9264 149.003 72.4707 149.003C71.3197 149.003 70.4225 149.447 69.7793 150.336C69.1361 151.225 68.8145 152.541 68.8145 154.284ZM87.4131 161.254C85.5511 161.254 84.0361 160.645 82.8682 159.426C81.7002 158.199 81.1162 156.561 81.1162 154.513V154.081C81.1162 152.718 81.3743 151.504 81.8906 150.438C82.4154 149.363 83.1432 148.525 84.0742 147.924C85.0137 147.314 86.0293 147.01 87.1211 147.01C88.9069 147.01 90.2949 147.598 91.2852 148.774C92.2754 149.951 92.7705 151.635 92.7705 153.827V154.805H83.4648C83.4987 156.159 83.8923 157.255 84.6455 158.093C85.4072 158.922 86.3721 159.337 87.54 159.337C88.3695 159.337 89.0719 159.168 89.6475 158.829C90.223 158.491 90.7266 158.042 91.1582 157.483L92.5928 158.601C91.4417 160.369 89.7152 161.254 87.4131 161.254ZM87.1211 148.939C86.1732 148.939 85.3776 149.286 84.7344 149.98C84.0911 150.666 83.6934 151.631 83.541 152.875H90.4219V152.697C90.3542 151.504 90.0326 150.581 89.457 149.93C88.8815 149.27 88.1029 148.939 87.1211 148.939ZM98.0518 161L95.7031 161V147.264L98.0518 147.264V161ZM95.5127 143.62C95.5127 143.239 95.627 142.918 95.8555 142.655C96.0924 142.393 96.4395 142.262 96.8965 142.262C97.3535 142.262 97.7005 142.393 97.9375 142.655C98.1745 142.918 98.293 143.239 98.293 143.62C98.293 144.001 98.1745 144.318 97.9375 144.572C97.7005 144.826 97.3535 144.953 96.8965 144.953C96.4395 144.953 96.0924 144.826 95.8555 144.572C95.627 144.318 95.5127 144.001 95.5127 143.62ZM110.303 161C110.167 160.729 110.057 160.247 109.973 159.553C108.881 160.687 107.577 161.254 106.063 161.254C104.708 161.254 103.595 160.873 102.724 160.111C101.86 159.341 101.429 158.368 101.429 157.191C101.429 155.761 101.97 154.652 103.054 153.865C104.146 153.07 105.677 152.672 107.649 152.672H109.935V151.593C109.935 150.772 109.689 150.12 109.198 149.638C108.707 149.147 107.984 148.901 107.027 148.901C106.189 148.901 105.487 149.113 104.92 149.536C104.353 149.959 104.069 150.471 104.069 151.072H101.708C101.708 150.387 101.949 149.727 102.432 149.092C102.923 148.449 103.583 147.941 104.412 147.568C105.25 147.196 106.168 147.01 107.167 147.01C108.75 147.01 109.99 147.408 110.887 148.203C111.784 148.99 112.249 150.078 112.283 151.466V157.788C112.283 159.049 112.444 160.052 112.766 160.797V161H110.303ZM106.405 159.21C107.142 159.21 107.84 159.02 108.5 158.639C109.16 158.258 109.638 157.763 109.935 157.153V154.335H108.094C105.216 154.335 103.777 155.177 103.777 156.861C103.777 157.598 104.023 158.173 104.514 158.588C105.005 159.003 105.635 159.21 106.405 159.21ZM121.792 154.005C121.792 152.659 122.054 151.449 122.579 150.374C123.112 149.299 123.849 148.47 124.788 147.886C125.736 147.302 126.815 147.01 128.025 147.01C129.896 147.01 131.407 147.657 132.558 148.952C133.717 150.247 134.297 151.969 134.297 154.119V154.284C134.297 155.621 134.039 156.823 133.522 157.89C133.015 158.948 132.283 159.773 131.326 160.365C130.378 160.958 129.286 161.254 128.051 161.254C126.189 161.254 124.678 160.606 123.519 159.312C122.368 158.017 121.792 156.303 121.792 154.17V154.005ZM124.153 154.284C124.153 155.808 124.505 157.031 125.207 157.953C125.918 158.876 126.866 159.337 128.051 159.337C129.244 159.337 130.192 158.871 130.895 157.94C131.597 157.001 131.948 155.689 131.948 154.005C131.948 152.498 131.589 151.28 130.869 150.349C130.158 149.409 129.21 148.939 128.025 148.939C126.866 148.939 125.931 149.401 125.22 150.323C124.509 151.246 124.153 152.566 124.153 154.284ZM138.397 161V149.079H136.227V147.264H138.397V145.854C138.397 144.382 138.791 143.243 139.578 142.439C140.365 141.635 141.478 141.233 142.917 141.233C143.459 141.233 143.996 141.305 144.529 141.449L144.402 143.354C144.005 143.277 143.581 143.239 143.133 143.239C142.371 143.239 141.783 143.464 141.368 143.912C140.953 144.352 140.746 144.987 140.746 145.816V147.264H143.679V149.079H140.746V161H138.397ZM161.211 161C161.076 160.729 160.965 160.247 160.881 159.553C159.789 160.687 158.486 161.254 156.971 161.254C155.617 161.254 154.504 160.873 153.632 160.111C152.769 159.341 152.337 158.368 152.337 157.191C152.337 155.761 152.879 154.652 153.962 153.865C155.054 153.07 156.586 152.672 158.558 152.672H160.843V151.593C160.843 150.772 160.597 150.12 160.106 149.638C159.616 149.147 158.892 148.901 157.936 148.901C157.098 148.901 156.395 149.113 155.828 149.536C155.261 149.959 154.978 150.471 154.978 151.072H152.616C152.616 150.387 152.857 149.727 153.34 149.092C153.831 148.449 154.491 147.941 155.32 147.568C156.158 147.196 157.076 147.01 158.075 147.01C159.658 147.01 160.898 147.408 161.795 148.203C162.692 148.99 163.158 150.078 163.191 151.466V157.788C163.191 159.049 163.352 160.052 163.674 160.797V161H161.211ZM157.313 159.21C158.05 159.21 158.748 159.02 159.408 158.639C160.068 158.258 160.547 157.763 160.843 157.153V154.335H159.002C156.124 154.335 154.686 155.177 154.686 156.861C154.686 157.598 154.931 158.173 155.422 158.588C155.913 159.003 156.543 159.21 157.313 159.21ZM172.764 154.018C172.764 151.876 173.259 150.175 174.249 148.914C175.239 147.645 176.551 147.01 178.185 147.01C179.86 147.01 181.168 147.602 182.107 148.787L182.222 147.264L184.367 147.264V160.67C184.367 162.447 183.838 163.848 182.78 164.872C181.731 165.896 180.317 166.408 178.54 166.408C177.55 166.408 176.581 166.197 175.633 165.773C174.685 165.35 173.961 164.771 173.462 164.034L174.681 162.625C175.688 163.869 176.919 164.491 178.375 164.491C179.518 164.491 180.406 164.17 181.041 163.526C181.684 162.883 182.006 161.978 182.006 160.81V159.629C181.066 160.712 179.784 161.254 178.159 161.254C176.551 161.254 175.248 160.606 174.249 159.312C173.259 158.017 172.764 156.252 172.764 154.018ZM175.125 154.284C175.125 155.833 175.442 157.052 176.077 157.94C176.712 158.821 177.601 159.261 178.743 159.261C180.224 159.261 181.312 158.588 182.006 157.242V150.971C181.286 149.659 180.207 149.003 178.769 149.003C177.626 149.003 176.733 149.447 176.09 150.336C175.447 151.225 175.125 152.541 175.125 154.284ZM190.474 161H188.125V147.264H190.474V161ZM187.935 143.62C187.935 143.239 188.049 142.918 188.277 142.655C188.514 142.393 188.861 142.262 189.318 142.262C189.775 142.262 190.122 142.393 190.359 142.655C190.596 142.918 190.715 143.239 190.715 143.62C190.715 144.001 190.596 144.318 190.359 144.572C190.122 144.826 189.775 144.953 189.318 144.953C188.861 144.953 188.514 144.826 188.277 144.572C188.049 144.318 187.935 144.001 187.935 143.62ZM195.399 161V149.079H193.229V147.264H195.399V145.854C195.399 144.382 195.793 143.243 196.58 142.439C197.367 141.635 198.48 141.233 199.919 141.233C200.461 141.233 200.998 141.305 201.531 141.449L201.404 143.354C201.007 143.277 200.583 143.239 200.135 143.239C199.373 143.239 198.785 143.464 198.37 143.912C197.955 144.352 197.748 144.987 197.748 145.816V147.264H200.681V149.079H197.748V161H195.399ZM206.47 143.937V147.264H209.034V149.079H206.47V157.598C206.47 158.148 206.584 158.562 206.812 158.842C207.041 159.113 207.43 159.248 207.98 159.248C208.251 159.248 208.624 159.197 209.098 159.096V161C208.48 161.169 207.879 161.254 207.295 161.254C206.245 161.254 205.454 160.937 204.921 160.302C204.388 159.667 204.121 158.766 204.121 157.598V149.079H201.62V147.264H204.121V143.937H206.47Z" fill="black"/>
</g>
<defs>
<filter id="filter0_d" x="0" y="0" width="398" height="426" filterUnits="userSpaceOnUse" color-interpolation-filters="sRGB">
<feFlood flood-opacity="0" result="BackgroundImageFix"/>
<feColorMatrix in="SourceAlpha" type="matrix" values="0 0 0 0 0 0 0 0 0 0 0 0 0 0 0 0 0 0 127 0"/>
<feOffset dy="4"/>
<feGaussianBlur stdDeviation="2"/>
<feColorMatrix type="matrix" values="0 0 0 0 0 0 0 0 0 0 0 0 0 0 0 0 0 0 0.25 0"/>
<feBlend mode="normal" in2="BackgroundImageFix" result="effect1_dropShadow"/>
<feBlend mode="normal" in="SourceGraphic" in2="effect1_dropShadow" result="shape"/>
</filter>
<clipPath id="clip0">
<rect width="31.8801" height="29.6454" fill="white" transform="translate(342.992 21.74)"/>
</clipPath>
</defs>
</svg>
