<svg width="375" height="438" viewBox="0 0 375 438" fill="none" xmlns="http://www.w3.org/2000/svg">
<g filter="url(#filter0_d)">
<rect x="4" y="7" width="367" height="423" rx="15" fill="#F9F9F9"/>
<rect x="4" y="7" width="367" height="75" rx="15" fill="#387D7A"/>
<path d="M30.1084 32.6719L37.0811 50.0742L44.0537 32.6719H47.7012L47.7012 54L44.8887 54L44.8887 45.6943L45.1523 36.7295L38.1504 54H35.9971L29.0098 36.7734L29.2881 45.6943L29.2881 54H26.4756L26.4756 32.6719H30.1084ZM51.5244 45.9287C51.5244 44.376 51.8271 42.9795 52.4326 41.7393C53.0479 40.499 53.8975 39.542 54.9814 38.8682C56.0752 38.1943 57.3203 37.8574 58.7168 37.8574C60.875 37.8574 62.6182 38.6045 63.9463 40.0986C65.2842 41.5928 65.9531 43.5801 65.9531 46.0605V46.251C65.9531 47.7939 65.6553 49.1807 65.0596 50.4111C64.4736 51.6318 63.6289 52.584 62.5254 53.2676C61.4316 53.9512 60.1719 54.293 58.7461 54.293C56.5977 54.293 54.8545 53.5459 53.5166 52.0518C52.1885 50.5576 51.5244 48.5801 51.5244 46.1191V45.9287ZM54.249 46.251C54.249 48.0088 54.6543 49.4199 55.4648 50.4844C56.2852 51.5488 57.3789 52.0811 58.7461 52.0811C60.123 52.0811 61.2168 51.5439 62.0273 50.4697C62.8379 49.3857 63.2432 47.8721 63.2432 45.9287C63.2432 44.1904 62.8281 42.7842 61.998 41.71C61.1777 40.626 60.084 40.084 58.7168 40.084C57.3789 40.084 56.2998 40.6162 55.4795 41.6807C54.6592 42.7451 54.249 44.2686 54.249 46.251ZM71.9004 38.1504L71.9736 39.9082C73.1357 38.541 74.7031 37.8574 76.6758 37.8574C78.8926 37.8574 80.4014 38.707 81.2021 40.4062C81.7295 39.6445 82.4131 39.0293 83.2529 38.5605C84.1025 38.0918 85.1035 37.8574 86.2559 37.8574C89.7324 37.8574 91.5 39.6982 91.5586 43.3799V54H88.8486V43.541C88.8486 42.4082 88.5898 41.5635 88.0723 41.0068C87.5547 40.4404 86.6855 40.1572 85.4648 40.1572C84.459 40.1572 83.624 40.46 82.96 41.0654C82.2959 41.6611 81.9102 42.4668 81.8027 43.4824V54H79.0781V43.6143C79.0781 41.3096 77.9502 40.1572 75.6943 40.1572C73.917 40.1572 72.7012 40.9141 72.0469 42.4277V54H69.3369V38.1504H71.9004ZM94.6787 38.6777L93.1406 37.623C94.0488 36.3535 94.5176 35.0156 94.5469 33.6094V31.5H97.2275V33.4043C97.2178 34.3809 96.9736 35.3574 96.4951 36.334C96.0264 37.3008 95.4209 38.082 94.6787 38.6777ZM108.082 49.7959C108.082 49.0635 107.804 48.4971 107.247 48.0967C106.7 47.6865 105.738 47.335 104.361 47.042C102.994 46.749 101.905 46.3975 101.095 45.9873C100.294 45.5771 99.6982 45.0889 99.3076 44.5225C98.9268 43.9561 98.7363 43.2822 98.7363 42.501C98.7363 41.2021 99.2832 40.1035 100.377 39.2051C101.48 38.3066 102.887 37.8574 104.596 37.8574C106.393 37.8574 107.848 38.3213 108.961 39.249C110.084 40.1768 110.646 41.3633 110.646 42.8086H107.921C107.921 42.0664 107.604 41.4268 106.969 40.8896C106.344 40.3525 105.553 40.084 104.596 40.084C103.609 40.084 102.838 40.2988 102.281 40.7285C101.725 41.1582 101.446 41.7197 101.446 42.4131C101.446 43.0674 101.705 43.5605 102.223 43.8926C102.74 44.2246 103.673 44.542 105.021 44.8447C106.378 45.1475 107.477 45.5088 108.316 45.9287C109.156 46.3486 109.776 46.8564 110.177 47.4521C110.587 48.0381 110.792 48.7559 110.792 49.6055C110.792 51.0215 110.226 52.1592 109.093 53.0186C107.96 53.8682 106.49 54.293 104.684 54.293C103.414 54.293 102.291 54.0684 101.314 53.6191C100.338 53.1699 99.5713 52.5449 99.0146 51.7441C98.4678 50.9336 98.1943 50.0596 98.1943 49.1221H100.904C100.953 50.0303 101.314 50.7529 101.988 51.29C102.672 51.8174 103.57 52.0811 104.684 52.0811C105.709 52.0811 106.529 51.876 107.145 51.4658C107.77 51.0459 108.082 50.4893 108.082 49.7959ZM135.182 46.251C135.182 48.6729 134.625 50.6211 133.512 52.0957C132.398 53.5605 130.904 54.293 129.029 54.293C127.027 54.293 125.479 53.585 124.386 52.1689L124.254 54H121.764V31.5H124.474V39.8936C125.567 38.5361 127.076 37.8574 129 37.8574C130.924 37.8574 132.433 38.585 133.526 40.04C134.63 41.4951 135.182 43.4873 135.182 46.0166V46.251ZM132.472 45.9434C132.472 44.0977 132.115 42.6719 131.402 41.666C130.689 40.6602 129.664 40.1572 128.326 40.1572C126.539 40.1572 125.255 40.9873 124.474 42.6475V49.5029C125.304 51.1631 126.598 51.9932 128.355 51.9932C129.654 51.9932 130.665 51.4902 131.388 50.4844C132.11 49.4785 132.472 47.9648 132.472 45.9434ZM141.554 54H138.844V38.1504H141.554V54ZM138.624 33.9463C138.624 33.5068 138.756 33.1357 139.02 32.833C139.293 32.5303 139.693 32.3789 140.221 32.3789C140.748 32.3789 141.148 32.5303 141.422 32.833C141.695 33.1357 141.832 33.5068 141.832 33.9463C141.832 34.3857 141.695 34.752 141.422 35.0449C141.148 35.3379 140.748 35.4844 140.221 35.4844C139.693 35.4844 139.293 35.3379 139.02 35.0449C138.756 34.752 138.624 34.3857 138.624 33.9463ZM153.565 40.582C153.155 40.5137 152.711 40.4795 152.232 40.4795C150.455 40.4795 149.249 41.2363 148.614 42.75V54H145.904V38.1504H148.541L148.585 39.9814C149.474 38.5654 150.733 37.8574 152.364 37.8574C152.892 37.8574 153.292 37.9258 153.565 38.0625V40.582ZM160.479 34.3125V38.1504H163.438V40.2451H160.479V50.0742C160.479 50.709 160.611 51.1875 160.875 51.5098C161.139 51.8223 161.588 51.9785 162.223 51.9785C162.535 51.9785 162.965 51.9199 163.512 51.8027V54C162.799 54.1953 162.105 54.293 161.432 54.293C160.221 54.293 159.308 53.9268 158.692 53.1943C158.077 52.4619 157.77 51.4219 157.77 50.0742V40.2451H154.884V38.1504H157.77V34.3125H160.479ZM169.327 40.0693C170.528 38.5947 172.091 37.8574 174.015 37.8574C177.364 37.8574 179.054 39.7471 179.083 43.5264V54L176.373 54V43.5117C176.363 42.3691 176.1 41.5244 175.582 40.9775C175.074 40.4307 174.278 40.1572 173.194 40.1572C172.315 40.1572 171.544 40.3916 170.88 40.8604C170.216 41.3291 169.698 41.9443 169.327 42.7061V54H166.617V31.5H169.327V40.0693ZM182.481 45.9434C182.481 43.5117 183.058 41.5586 184.21 40.084C185.362 38.5996 186.871 37.8574 188.736 37.8574C190.592 37.8574 192.062 38.4922 193.146 39.7617V31.5H195.855V54H193.365L193.233 52.3008C192.149 53.6289 190.641 54.293 188.707 54.293C186.871 54.293 185.372 53.541 184.21 52.0371C183.058 50.5332 182.481 48.5703 182.481 46.1484V45.9434ZM185.191 46.251C185.191 48.0479 185.562 49.4541 186.305 50.4697C187.047 51.4854 188.072 51.9932 189.381 51.9932C191.1 51.9932 192.354 51.2217 193.146 49.6787V42.3984C192.335 40.9043 191.09 40.1572 189.41 40.1572C188.082 40.1572 187.047 40.6699 186.305 41.6953C185.562 42.7207 185.191 44.2393 185.191 46.251ZM209.859 54C209.703 53.6875 209.576 53.1309 209.479 52.3301C208.219 53.6387 206.715 54.293 204.967 54.293C203.404 54.293 202.12 53.8535 201.114 52.9746C200.118 52.0859 199.62 50.9629 199.62 49.6055C199.62 47.9551 200.245 46.6758 201.495 45.7676C202.755 44.8496 204.522 44.3906 206.798 44.3906H209.435V43.1455C209.435 42.1982 209.151 41.4463 208.585 40.8896C208.019 40.3232 207.184 40.04 206.08 40.04C205.113 40.04 204.303 40.2842 203.648 40.7725C202.994 41.2607 202.667 41.8516 202.667 42.5449H199.942C199.942 41.7539 200.221 40.9922 200.777 40.2598C201.344 39.5176 202.105 38.9316 203.062 38.502C204.029 38.0723 205.089 37.8574 206.241 37.8574C208.067 37.8574 209.498 38.3164 210.533 39.2344C211.568 40.1426 212.105 41.3975 212.145 42.999V50.2939C212.145 51.749 212.33 52.9062 212.701 53.7656V54H209.859ZM205.362 51.9346C206.212 51.9346 207.018 51.7148 207.779 51.2754C208.541 50.8359 209.093 50.2646 209.435 49.5615V46.3096H207.311C203.99 46.3096 202.33 47.2812 202.33 49.2246C202.33 50.0742 202.613 50.7383 203.18 51.2168C203.746 51.6953 204.474 51.9346 205.362 51.9346ZM221.344 50.0303L225.035 38.1504H227.936L221.563 56.4463C220.577 59.083 219.01 60.4014 216.861 60.4014L216.349 60.3574L215.338 60.167V57.9697L216.07 58.0283C216.988 58.0283 217.701 57.8428 218.209 57.4717C218.727 57.1006 219.151 56.4219 219.483 55.4355L220.084 53.8242L214.43 38.1504L217.389 38.1504L221.344 50.0303Z" fill="white"/>
<path d="M302.695 27.0559L284.977 27.0559C282.079 27.0559 279.721 29.3404 279.721 32.1483V49.3127C279.721 52.1206 282.079 54.405 284.977 54.405L302.695 54.405C305.593 54.405 307.951 52.1206 307.951 49.3127V32.1483C307.951 29.3404 305.593 27.0559 302.695 27.0559ZM306.297 49.3127C306.297 51.237 304.681 52.8026 302.695 52.8026L284.977 52.8026C282.991 52.8026 281.375 51.237 281.375 49.3127V32.1483C281.375 30.224 282.991 28.6584 284.977 28.6584L302.695 28.6584C304.681 28.6584 306.297 30.224 306.297 32.1483V49.3127Z" fill="white"/>
<path d="M301.809 39.9292L285.863 39.9292C285.406 39.9292 285.036 40.288 285.036 40.7305C285.036 41.173 285.406 41.5317 285.863 41.5317L301.809 41.5317C302.266 41.5317 302.636 41.173 302.636 40.7305C302.636 40.288 302.266 39.9292 301.809 39.9292Z" fill="white"/>
<g clip-path="url(#clip0)">
<path d="M339.673 37.1206C339.307 37.1206 339.011 37.4073 339.011 37.7611V49.8664C339.011 50.22 339.307 50.5069 339.673 50.5069C340.038 50.5069 340.334 50.22 340.334 49.8664V37.7611C340.334 37.4073 340.038 37.1206 339.673 37.1206Z" fill="white"/>
<path d="M331.871 37.1206C331.506 37.1206 331.21 37.4073 331.21 37.7611V49.8664C331.21 50.22 331.506 50.5069 331.871 50.5069C332.237 50.5069 332.533 50.22 332.533 49.8664V37.7611C332.533 37.4073 332.237 37.1206 331.871 37.1206Z" fill="white"/>
<path d="M326.186 35.3538V51.1342C326.186 52.0669 326.539 52.9428 327.156 53.5713C327.769 54.2015 328.624 54.5593 329.518 54.5608H342.027C342.921 54.5593 343.775 54.2015 344.389 53.5713C345.006 52.9428 345.359 52.0669 345.359 51.1342V35.3538C346.585 35.0385 347.379 33.8911 347.215 32.6725C347.051 31.454 345.979 30.5426 344.711 30.5423H341.326V29.7417C341.33 29.0684 341.055 28.4219 340.563 27.9463C340.071 27.471 339.403 27.2062 338.708 27.2118H332.837C332.142 27.2062 331.474 27.471 330.982 27.9463C330.49 28.4219 330.215 29.0684 330.219 29.7417V30.5423H326.834C325.565 30.5426 324.494 31.454 324.329 32.6725C324.165 33.8911 324.96 35.0385 326.186 35.3538ZM342.027 53.2798H329.518C328.387 53.2798 327.508 52.3391 327.508 51.1342V35.4101L344.037 35.4101V51.1342C344.037 52.3391 343.157 53.2798 342.027 53.2798ZM331.541 29.7417C331.537 29.4082 331.672 29.0872 331.916 28.8518C332.16 28.6163 332.492 28.487 332.837 28.4927H338.708C339.052 28.487 339.384 28.6163 339.628 28.8518C339.873 29.0869 340.008 29.4082 340.004 29.7417V30.5423L331.541 30.5423V29.7417ZM326.834 31.8233L344.711 31.8233C345.368 31.8233 345.901 32.3395 345.901 32.9762C345.901 33.6129 345.368 34.1291 344.711 34.1291L326.834 34.1291C326.176 34.1291 325.644 33.6129 325.644 32.9762C325.644 32.3395 326.176 31.8233 326.834 31.8233Z" fill="white"/>
<path d="M335.772 37.1206C335.407 37.1206 335.111 37.4073 335.111 37.7611V49.8664C335.111 50.22 335.407 50.5069 335.772 50.5069C336.137 50.5069 336.433 50.22 336.433 49.8664V37.7611C336.433 37.4073 336.137 37.1206 335.772 37.1206Z" fill="white"/>
</g>
<path d="M45.1641 132.232C44.9004 134.488 44.0654 136.231 42.6592 137.462C41.2627 138.683 39.4023 139.293 37.0781 139.293C34.5586 139.293 32.5371 138.39 31.0137 136.583C29.5 134.776 28.7432 132.359 28.7432 129.332V127.281C28.7432 125.299 29.0947 123.556 29.7979 122.052C30.5107 120.548 31.5166 119.396 32.8154 118.595C34.1143 117.784 35.6182 117.379 37.3271 117.379C39.5928 117.379 41.4092 118.014 42.7764 119.283C44.1436 120.543 44.9395 122.291 45.1641 124.527H42.3369C42.0928 122.828 41.5605 121.598 40.7402 120.836C39.9297 120.074 38.792 119.693 37.3271 119.693C35.5303 119.693 34.1191 120.357 33.0938 121.686C32.0781 123.014 31.5703 124.903 31.5703 127.354V129.42C31.5703 131.734 32.0537 133.575 33.0205 134.942C33.9873 136.31 35.3398 136.993 37.0781 136.993C38.6406 136.993 39.8369 136.642 40.667 135.938C41.5068 135.226 42.0635 133.99 42.3369 132.232H45.1641ZM58.377 139C58.2207 138.688 58.0938 138.131 57.9961 137.33C56.7363 138.639 55.2324 139.293 53.4844 139.293C51.9219 139.293 50.6377 138.854 49.6318 137.975C48.6357 137.086 48.1377 135.963 48.1377 134.605C48.1377 132.955 48.7627 131.676 50.0127 130.768C51.2725 129.85 53.04 129.391 55.3154 129.391H57.9521V128.146C57.9521 127.198 57.6689 126.446 57.1025 125.89C56.5361 125.323 55.7012 125.04 54.5977 125.04C53.6309 125.04 52.8203 125.284 52.166 125.772C51.5117 126.261 51.1846 126.852 51.1846 127.545H48.46C48.46 126.754 48.7383 125.992 49.2949 125.26C49.8613 124.518 50.623 123.932 51.5801 123.502C52.5469 123.072 53.6064 122.857 54.7588 122.857C56.585 122.857 58.0156 123.316 59.0508 124.234C60.0859 125.143 60.623 126.397 60.6621 127.999V135.294C60.6621 136.749 60.8477 137.906 61.2188 138.766V139H58.377ZM53.8799 136.935C54.7295 136.935 55.5352 136.715 56.2969 136.275C57.0586 135.836 57.6104 135.265 57.9521 134.562V131.31H55.8281C52.5078 131.31 50.8477 132.281 50.8477 134.225C50.8477 135.074 51.1309 135.738 51.6973 136.217C52.2637 136.695 52.9912 136.935 53.8799 136.935ZM67.8545 139H65.1445V116.5H67.8545V139ZM75.1494 139H72.4395V116.5H75.1494V139ZM96.3018 117.672H99.1289V132.774C99.1289 134.815 98.5137 136.412 97.2832 137.564C96.0625 138.717 94.4316 139.293 92.3906 139.293C90.2715 139.293 88.6211 138.751 87.4395 137.667C86.2578 136.583 85.667 135.064 85.667 133.111H88.4795C88.4795 134.332 88.8115 135.284 89.4756 135.968C90.1494 136.651 91.1211 136.993 92.3906 136.993C93.5527 136.993 94.4902 136.627 95.2031 135.895C95.9258 135.162 96.292 134.137 96.3018 132.818V117.672ZM102.776 130.929C102.776 129.376 103.079 127.979 103.685 126.739C104.3 125.499 105.149 124.542 106.233 123.868C107.327 123.194 108.572 122.857 109.969 122.857C112.127 122.857 113.87 123.604 115.198 125.099C116.536 126.593 117.205 128.58 117.205 131.061V131.251C117.205 132.794 116.907 134.181 116.312 135.411C115.726 136.632 114.881 137.584 113.777 138.268C112.684 138.951 111.424 139.293 109.998 139.293C107.85 139.293 106.106 138.546 104.769 137.052C103.44 135.558 102.776 133.58 102.776 131.119V130.929ZM105.501 131.251C105.501 133.009 105.906 134.42 106.717 135.484C107.537 136.549 108.631 137.081 109.998 137.081C111.375 137.081 112.469 136.544 113.279 135.47C114.09 134.386 114.495 132.872 114.495 130.929C114.495 129.19 114.08 127.784 113.25 126.71C112.43 125.626 111.336 125.084 109.969 125.084C108.631 125.084 107.552 125.616 106.731 126.681C105.911 127.745 105.501 129.269 105.501 131.251ZM130.389 139C130.232 138.687 130.105 138.131 130.008 137.33C128.748 138.639 127.244 139.293 125.496 139.293C123.934 139.293 122.649 138.854 121.644 137.975C120.647 137.086 120.149 135.963 120.149 134.605C120.149 132.955 120.774 131.676 122.024 130.768C123.284 129.85 125.052 129.391 127.327 129.391H129.964V128.146C129.964 127.198 129.681 126.446 129.114 125.89C128.548 125.323 127.713 125.04 126.609 125.04C125.643 125.04 124.832 125.284 124.178 125.772C123.523 126.261 123.196 126.852 123.196 127.545H120.472C120.472 126.754 120.75 125.992 121.307 125.26C121.873 124.518 122.635 123.932 123.592 123.502C124.559 123.072 125.618 122.857 126.771 122.857C128.597 122.857 130.027 123.316 131.062 124.234C132.098 125.143 132.635 126.397 132.674 127.999V135.294C132.674 136.749 132.859 137.906 133.23 138.766V139H130.389ZM125.892 136.935C126.741 136.935 127.547 136.715 128.309 136.275C129.07 135.836 129.622 135.265 129.964 134.562V131.31H127.84C124.52 131.31 122.859 132.281 122.859 134.225C122.859 135.074 123.143 135.738 123.709 136.217C124.275 136.695 125.003 136.935 125.892 136.935ZM139.485 123.15L139.573 125.143C140.784 123.619 142.366 122.857 144.319 122.857C147.669 122.857 149.358 124.747 149.388 128.526V139H146.678V128.512C146.668 127.369 146.404 126.524 145.887 125.978C145.379 125.431 144.583 125.157 143.499 125.157C142.62 125.157 141.849 125.392 141.185 125.86C140.521 126.329 140.003 126.944 139.632 127.706V139H136.922V123.15H139.485ZM156.038 123.15L156.126 125.143C157.337 123.619 158.919 122.857 160.872 122.857C164.222 122.857 165.911 124.747 165.94 128.526V139H163.23V128.512C163.221 127.369 162.957 126.524 162.439 125.978C161.932 125.431 161.136 125.157 160.052 125.157C159.173 125.157 158.401 125.392 157.737 125.86C157.073 126.329 156.556 126.944 156.185 127.706V139H153.475V123.15H156.038ZM179.812 139C179.656 138.687 179.529 138.131 179.432 137.33C178.172 138.639 176.668 139.293 174.92 139.293C173.357 139.293 172.073 138.854 171.067 137.975C170.071 137.086 169.573 135.963 169.573 134.605C169.573 132.955 170.198 131.676 171.448 130.768C172.708 129.85 174.476 129.391 176.751 129.391H179.388V128.146C179.388 127.198 179.104 126.446 178.538 125.89C177.972 125.323 177.137 125.04 176.033 125.04C175.066 125.04 174.256 125.284 173.602 125.772C172.947 126.261 172.62 126.852 172.62 127.545H169.896C169.896 126.754 170.174 125.992 170.73 125.26C171.297 124.518 172.059 123.932 173.016 123.502C173.982 123.072 175.042 122.857 176.194 122.857C178.021 122.857 179.451 123.316 180.486 124.234C181.521 125.143 182.059 126.397 182.098 127.999V135.294C182.098 136.749 182.283 137.906 182.654 138.766V139H179.812ZM175.315 136.935C176.165 136.935 176.971 136.715 177.732 136.275C178.494 135.836 179.046 135.265 179.388 134.562V131.31H177.264C173.943 131.31 172.283 132.281 172.283 134.225C172.283 135.074 172.566 135.738 173.133 136.217C173.699 136.695 174.427 136.935 175.315 136.935ZM197.464 119.312V123.15H200.423V125.245H197.464V135.074C197.464 135.709 197.596 136.187 197.859 136.51C198.123 136.822 198.572 136.979 199.207 136.979C199.52 136.979 199.949 136.92 200.496 136.803V139C199.783 139.195 199.09 139.293 198.416 139.293C197.205 139.293 196.292 138.927 195.677 138.194C195.062 137.462 194.754 136.422 194.754 135.074V125.245H191.868V123.15H194.754V119.312H197.464ZM202.591 130.929C202.591 129.376 202.894 127.979 203.499 126.739C204.114 125.499 204.964 124.542 206.048 123.868C207.142 123.194 208.387 122.857 209.783 122.857C211.941 122.857 213.685 123.604 215.013 125.099C216.351 126.593 217.02 128.58 217.02 131.061V131.251C217.02 132.794 216.722 134.181 216.126 135.411C215.54 136.632 214.695 137.584 213.592 138.268C212.498 138.951 211.238 139.293 209.812 139.293C207.664 139.293 205.921 138.546 204.583 137.052C203.255 135.558 202.591 133.58 202.591 131.119V130.929ZM205.315 131.251C205.315 133.009 205.721 134.42 206.531 135.484C207.352 136.549 208.445 137.081 209.812 137.081C211.189 137.081 212.283 136.544 213.094 135.47C213.904 134.386 214.31 132.872 214.31 130.929C214.31 129.19 213.895 127.784 213.064 126.71C212.244 125.626 211.15 125.084 209.783 125.084C208.445 125.084 207.366 125.616 206.546 126.681C205.726 127.745 205.315 129.269 205.315 131.251ZM234.217 137.081C235.184 137.081 236.028 136.788 236.751 136.202C237.474 135.616 237.874 134.884 237.952 134.005H240.516C240.467 134.913 240.154 135.777 239.578 136.598C239.002 137.418 238.23 138.072 237.264 138.561C236.307 139.049 235.291 139.293 234.217 139.293C232.059 139.293 230.34 138.575 229.061 137.14C227.791 135.694 227.156 133.722 227.156 131.222V130.768C227.156 129.225 227.439 127.853 228.006 126.651C228.572 125.45 229.383 124.518 230.438 123.854C231.502 123.189 232.757 122.857 234.202 122.857C235.979 122.857 237.454 123.39 238.626 124.454C239.808 125.519 240.438 126.9 240.516 128.6H237.952C237.874 127.574 237.483 126.734 236.78 126.08C236.087 125.416 235.228 125.084 234.202 125.084C232.825 125.084 231.756 125.582 230.994 126.578C230.242 127.564 229.866 128.995 229.866 130.87V131.383C229.866 133.209 230.242 134.615 230.994 135.602C231.746 136.588 232.82 137.081 234.217 137.081ZM242.845 130.929C242.845 129.376 243.147 127.979 243.753 126.739C244.368 125.499 245.218 124.542 246.302 123.868C247.396 123.194 248.641 122.857 250.037 122.857C252.195 122.857 253.938 123.604 255.267 125.099C256.604 126.593 257.273 128.58 257.273 131.061V131.251C257.273 132.794 256.976 134.181 256.38 135.411C255.794 136.632 254.949 137.584 253.846 138.268C252.752 138.951 251.492 139.293 250.066 139.293C247.918 139.293 246.175 138.546 244.837 137.052C243.509 135.558 242.845 133.58 242.845 131.119V130.929ZM245.569 131.251C245.569 133.009 245.975 134.42 246.785 135.484C247.605 136.549 248.699 137.081 250.066 137.081C251.443 137.081 252.537 136.544 253.348 135.47C254.158 134.386 254.563 132.872 254.563 130.929C254.563 129.19 254.148 127.784 253.318 126.71C252.498 125.626 251.404 125.084 250.037 125.084C248.699 125.084 247.62 125.616 246.8 126.681C245.979 127.745 245.569 129.269 245.569 131.251ZM263.221 123.15L263.294 124.908C264.456 123.541 266.023 122.857 267.996 122.857C270.213 122.857 271.722 123.707 272.522 125.406C273.05 124.645 273.733 124.029 274.573 123.561C275.423 123.092 276.424 122.857 277.576 122.857C281.053 122.857 282.82 124.698 282.879 128.38V139H280.169V128.541C280.169 127.408 279.91 126.563 279.393 126.007C278.875 125.44 278.006 125.157 276.785 125.157C275.779 125.157 274.944 125.46 274.28 126.065C273.616 126.661 273.23 127.467 273.123 128.482V139H270.398V128.614C270.398 126.31 269.271 125.157 267.015 125.157C265.237 125.157 264.021 125.914 263.367 127.428V139H260.657V123.15H263.221ZM293.558 139.293C291.409 139.293 289.661 138.59 288.313 137.184C286.966 135.768 286.292 133.878 286.292 131.515V131.017C286.292 129.444 286.59 128.043 287.186 126.812C287.791 125.572 288.631 124.605 289.705 123.912C290.789 123.209 291.961 122.857 293.221 122.857C295.281 122.857 296.883 123.536 298.025 124.894C299.168 126.251 299.739 128.194 299.739 130.724V131.852H289.002C289.041 133.414 289.495 134.679 290.364 135.646C291.243 136.603 292.356 137.081 293.704 137.081C294.661 137.081 295.472 136.886 296.136 136.495C296.8 136.104 297.381 135.587 297.879 134.942L299.534 136.231C298.206 138.272 296.214 139.293 293.558 139.293ZM293.221 125.084C292.127 125.084 291.209 125.484 290.467 126.285C289.725 127.076 289.266 128.189 289.09 129.625H297.029V129.42C296.951 128.043 296.58 126.979 295.916 126.227C295.252 125.465 294.354 125.084 293.221 125.084ZM320.115 137.433C319.061 138.673 317.513 139.293 315.472 139.293C313.782 139.293 312.493 138.805 311.604 137.828C310.726 136.842 310.281 135.387 310.271 133.463V123.15H312.981V133.39C312.981 135.792 313.958 136.993 315.911 136.993C317.981 136.993 319.358 136.222 320.042 134.679V123.15H322.752V139H320.174L320.115 137.433ZM340.271 131.251C340.271 133.663 339.72 135.606 338.616 137.081C337.513 138.556 336.019 139.293 334.134 139.293C332.21 139.293 330.696 138.683 329.593 137.462V145.094H326.883V123.15H329.358L329.49 124.908C330.594 123.541 332.127 122.857 334.09 122.857C335.994 122.857 337.498 123.575 338.602 125.011C339.715 126.446 340.271 128.443 340.271 131.002V131.251ZM337.562 130.943C337.562 129.156 337.181 127.745 336.419 126.71C335.657 125.675 334.612 125.157 333.284 125.157C331.644 125.157 330.413 125.885 329.593 127.34V134.913C330.403 136.358 331.644 137.081 333.313 137.081C334.612 137.081 335.643 136.568 336.404 135.543C337.176 134.508 337.562 132.975 337.562 130.943ZM43.084 165.265L46.1309 153.15H48.8408L44.2266 169H42.0293L38.1768 156.988L34.4268 169H32.2295L27.6299 153.15H30.3252L33.4453 165.016L37.1367 153.15H39.3193L43.084 165.265ZM54.5537 169H51.8438V153.15H54.5537V169ZM51.624 148.946C51.624 148.507 51.7559 148.136 52.0195 147.833C52.293 147.53 52.6934 147.379 53.2207 147.379C53.748 147.379 54.1484 147.53 54.4219 147.833C54.6953 148.136 54.832 148.507 54.832 148.946C54.832 149.386 54.6953 149.752 54.4219 150.045C54.1484 150.338 53.748 150.484 53.2207 150.484C52.6934 150.484 52.293 150.338 52.0195 150.045C51.7559 149.752 51.624 149.386 51.624 148.946ZM62.5811 149.312V153.15H65.54V155.245H62.5811L62.5811 165.074C62.5811 165.709 62.7129 166.188 62.9766 166.51C63.2402 166.822 63.6895 166.979 64.3242 166.979C64.6367 166.979 65.0664 166.92 65.6133 166.803V169C64.9004 169.195 64.207 169.293 63.5332 169.293C62.3223 169.293 61.4092 168.927 60.7939 168.194C60.1787 167.462 59.8711 166.422 59.8711 165.074L59.8711 155.245H56.9854V153.15H59.8711V149.312H62.5811ZM71.4287 155.069C72.6299 153.595 74.1924 152.857 76.1162 152.857C79.4658 152.857 81.1553 154.747 81.1846 158.526V169H78.4746V158.512C78.4648 157.369 78.2012 156.524 77.6836 155.978C77.1758 155.431 76.3799 155.157 75.2959 155.157C74.417 155.157 73.6455 155.392 72.9814 155.86C72.3174 156.329 71.7998 156.944 71.4287 157.706V169H68.7188L68.7188 146.5H71.4287V155.069ZM102.469 169C102.313 168.687 102.186 168.131 102.088 167.33C100.828 168.639 99.3242 169.293 97.5762 169.293C96.0137 169.293 94.7295 168.854 93.7236 167.975C92.7275 167.086 92.2295 165.963 92.2295 164.605C92.2295 162.955 92.8545 161.676 94.1045 160.768C95.3643 159.85 97.1318 159.391 99.4072 159.391L102.044 159.391V158.146C102.044 157.198 101.761 156.446 101.194 155.89C100.628 155.323 99.793 155.04 98.6895 155.04C97.7227 155.04 96.9121 155.284 96.2578 155.772C95.6035 156.261 95.2764 156.852 95.2764 157.545H92.5518C92.5518 156.754 92.8301 155.992 93.3867 155.26C93.9531 154.518 94.7148 153.932 95.6719 153.502C96.6387 153.072 97.6982 152.857 98.8506 152.857C100.677 152.857 102.107 153.316 103.143 154.234C104.178 155.143 104.715 156.397 104.754 157.999V165.294C104.754 166.749 104.939 167.906 105.311 168.766V169H102.469ZM97.9717 166.935C98.8213 166.935 99.627 166.715 100.389 166.275C101.15 165.836 101.702 165.265 102.044 164.562V161.31H99.9199C96.5996 161.31 94.9395 162.281 94.9395 164.225C94.9395 165.074 95.2227 165.738 95.7891 166.217C96.3555 166.695 97.083 166.935 97.9717 166.935ZM111.565 153.15L111.653 155.143C112.864 153.619 114.446 152.857 116.399 152.857C119.749 152.857 121.438 154.747 121.468 158.526V169H118.758V158.512C118.748 157.369 118.484 156.524 117.967 155.978C117.459 155.431 116.663 155.157 115.579 155.157C114.7 155.157 113.929 155.392 113.265 155.86C112.601 156.329 112.083 156.944 111.712 157.706V169H109.002V153.15H111.565ZM135.94 169H133.23V153.15H135.94V169ZM133.011 148.946C133.011 148.507 133.143 148.136 133.406 147.833C133.68 147.53 134.08 147.379 134.607 147.379C135.135 147.379 135.535 147.53 135.809 147.833C136.082 148.136 136.219 148.507 136.219 148.946C136.219 149.386 136.082 149.752 135.809 150.045C135.535 150.338 135.135 150.484 134.607 150.484C134.08 150.484 133.68 150.338 133.406 150.045C133.143 149.752 133.011 149.386 133.011 148.946ZM139.632 160.943C139.632 158.512 140.208 156.559 141.36 155.084C142.513 153.6 144.021 152.857 145.887 152.857C147.742 152.857 149.212 153.492 150.296 154.762V146.5H153.006V169H150.516L150.384 167.301C149.3 168.629 147.791 169.293 145.857 169.293C144.021 169.293 142.522 168.541 141.36 167.037C140.208 165.533 139.632 163.57 139.632 161.148V160.943ZM142.342 161.251C142.342 163.048 142.713 164.454 143.455 165.47C144.197 166.485 145.223 166.993 146.531 166.993C148.25 166.993 149.505 166.222 150.296 164.679V157.398C149.485 155.904 148.24 155.157 146.561 155.157C145.232 155.157 144.197 155.67 143.455 156.695C142.713 157.721 142.342 159.239 142.342 161.251ZM163.802 169.293C161.653 169.293 159.905 168.59 158.558 167.184C157.21 165.768 156.536 163.878 156.536 161.515V161.017C156.536 159.444 156.834 158.043 157.43 156.812C158.035 155.572 158.875 154.605 159.949 153.912C161.033 153.209 162.205 152.857 163.465 152.857C165.525 152.857 167.127 153.536 168.27 154.894C169.412 156.251 169.983 158.194 169.983 160.724V161.852H159.246C159.285 163.414 159.739 164.679 160.608 165.646C161.487 166.603 162.601 167.081 163.948 167.081C164.905 167.081 165.716 166.886 166.38 166.495C167.044 166.104 167.625 165.587 168.123 164.942L169.778 166.231C168.45 168.272 166.458 169.293 163.802 169.293ZM163.465 155.084C162.371 155.084 161.453 155.484 160.711 156.285C159.969 157.076 159.51 158.189 159.334 159.625H167.273V159.42C167.195 158.043 166.824 156.979 166.16 156.227C165.496 155.465 164.598 155.084 163.465 155.084ZM176.077 169H173.367V153.15H176.077V169ZM173.147 148.946C173.147 148.507 173.279 148.136 173.543 147.833C173.816 147.53 174.217 147.379 174.744 147.379C175.271 147.379 175.672 147.53 175.945 147.833C176.219 148.136 176.355 148.507 176.355 148.946C176.355 149.386 176.219 149.752 175.945 150.045C175.672 150.338 175.271 150.484 174.744 150.484C174.217 150.484 173.816 150.338 173.543 150.045C173.279 149.752 173.147 149.386 173.147 148.946ZM190.213 169C190.057 168.687 189.93 168.131 189.832 167.33C188.572 168.639 187.068 169.293 185.32 169.293C183.758 169.293 182.474 168.854 181.468 167.975C180.472 167.086 179.974 165.963 179.974 164.605C179.974 162.955 180.599 161.676 181.849 160.768C183.108 159.85 184.876 159.391 187.151 159.391H189.788V158.146C189.788 157.198 189.505 156.446 188.938 155.89C188.372 155.323 187.537 155.04 186.434 155.04C185.467 155.04 184.656 155.284 184.002 155.772C183.348 156.261 183.021 156.852 183.021 157.545H180.296C180.296 156.754 180.574 155.992 181.131 155.26C181.697 154.518 182.459 153.932 183.416 153.502C184.383 153.072 185.442 152.857 186.595 152.857C188.421 152.857 189.852 153.316 190.887 154.234C191.922 155.143 192.459 156.397 192.498 157.999V165.294C192.498 166.749 192.684 167.906 193.055 168.766V169H190.213ZM185.716 166.935C186.565 166.935 187.371 166.715 188.133 166.275C188.895 165.836 189.446 165.265 189.788 164.562V161.31H187.664C184.344 161.31 182.684 162.281 182.684 164.225C182.684 165.074 182.967 165.738 183.533 166.217C184.1 166.695 184.827 166.935 185.716 166.935ZM203.47 160.929C203.47 159.376 203.772 157.979 204.378 156.739C204.993 155.499 205.843 154.542 206.927 153.868C208.021 153.194 209.266 152.857 210.662 152.857C212.82 152.857 214.563 153.604 215.892 155.099C217.229 156.593 217.898 158.58 217.898 161.061V161.251C217.898 162.794 217.601 164.181 217.005 165.411C216.419 166.632 215.574 167.584 214.471 168.268C213.377 168.951 212.117 169.293 210.691 169.293C208.543 169.293 206.8 168.546 205.462 167.052C204.134 165.558 203.47 163.58 203.47 161.119V160.929ZM206.194 161.251C206.194 163.009 206.6 164.42 207.41 165.484C208.23 166.549 209.324 167.081 210.691 167.081C212.068 167.081 213.162 166.544 213.973 165.47C214.783 164.386 215.188 162.872 215.188 160.929C215.188 159.19 214.773 157.784 213.943 156.71C213.123 155.626 212.029 155.084 210.662 155.084C209.324 155.084 208.245 155.616 207.425 156.681C206.604 157.745 206.194 159.269 206.194 161.251ZM222.63 169V155.245H220.125V153.15H222.63V151.524C222.63 149.825 223.084 148.512 223.992 147.584C224.9 146.656 226.185 146.192 227.845 146.192C228.47 146.192 229.09 146.275 229.705 146.441L229.559 148.639C229.1 148.551 228.611 148.507 228.094 148.507C227.215 148.507 226.536 148.766 226.058 149.283C225.579 149.791 225.34 150.523 225.34 151.48V153.15H228.724V155.245H225.34V169H222.63ZM248.953 169C248.797 168.687 248.67 168.131 248.572 167.33C247.312 168.639 245.809 169.293 244.061 169.293C242.498 169.293 241.214 168.854 240.208 167.975C239.212 167.086 238.714 165.963 238.714 164.605C238.714 162.955 239.339 161.676 240.589 160.768C241.849 159.85 243.616 159.391 245.892 159.391H248.528V158.146C248.528 157.198 248.245 156.446 247.679 155.89C247.112 155.323 246.277 155.04 245.174 155.04C244.207 155.04 243.396 155.284 242.742 155.772C242.088 156.261 241.761 156.852 241.761 157.545H239.036C239.036 156.754 239.314 155.992 239.871 155.26C240.438 154.518 241.199 153.932 242.156 153.502C243.123 153.072 244.183 152.857 245.335 152.857C247.161 152.857 248.592 153.316 249.627 154.234C250.662 155.143 251.199 156.397 251.238 157.999V165.294C251.238 166.749 251.424 167.906 251.795 168.766V169H248.953ZM244.456 166.935C245.306 166.935 246.111 166.715 246.873 166.275C247.635 165.836 248.187 165.265 248.528 164.562V161.31H246.404C243.084 161.31 241.424 162.281 241.424 164.225C241.424 165.074 241.707 165.738 242.273 166.217C242.84 166.695 243.567 166.935 244.456 166.935ZM262.283 160.943C262.283 158.473 262.854 156.51 263.997 155.055C265.14 153.59 266.653 152.857 268.538 152.857C270.472 152.857 271.98 153.541 273.064 154.908L273.196 153.15H275.672V168.619C275.672 170.67 275.062 172.286 273.841 173.468C272.63 174.649 270.999 175.24 268.948 175.24C267.806 175.24 266.688 174.996 265.594 174.508C264.5 174.02 263.665 173.351 263.089 172.501L264.495 170.875C265.657 172.311 267.078 173.028 268.758 173.028C270.076 173.028 271.102 172.657 271.834 171.915C272.576 171.173 272.947 170.128 272.947 168.78V167.418C271.863 168.668 270.384 169.293 268.509 169.293C266.653 169.293 265.149 168.546 263.997 167.052C262.854 165.558 262.283 163.521 262.283 160.943ZM265.008 161.251C265.008 163.038 265.374 164.444 266.106 165.47C266.839 166.485 267.864 166.993 269.183 166.993C270.892 166.993 272.146 166.217 272.947 164.664V157.428C272.117 155.914 270.872 155.157 269.212 155.157C267.894 155.157 266.863 155.67 266.121 156.695C265.379 157.721 265.008 159.239 265.008 161.251ZM282.718 169H280.008V153.15H282.718V169ZM279.788 148.946C279.788 148.507 279.92 148.136 280.184 147.833C280.457 147.53 280.857 147.379 281.385 147.379C281.912 147.379 282.312 147.53 282.586 147.833C282.859 148.136 282.996 148.507 282.996 148.946C282.996 149.386 282.859 149.752 282.586 150.045C282.312 150.338 281.912 150.484 281.385 150.484C280.857 150.484 280.457 150.338 280.184 150.045C279.92 149.752 279.788 149.386 279.788 148.946ZM288.401 169V155.245H285.896V153.15H288.401V151.524C288.401 149.825 288.855 148.512 289.764 147.584C290.672 146.656 291.956 146.192 293.616 146.192C294.241 146.192 294.861 146.275 295.477 146.441L295.33 148.639C294.871 148.551 294.383 148.507 293.865 148.507C292.986 148.507 292.308 148.766 291.829 149.283C291.351 149.791 291.111 150.523 291.111 151.48V153.15H294.495V155.245H291.111V169H288.401ZM301.175 149.312V153.15H304.134V155.245H301.175V165.074C301.175 165.709 301.307 166.187 301.57 166.51C301.834 166.822 302.283 166.979 302.918 166.979C303.23 166.979 303.66 166.92 304.207 166.803V169C303.494 169.195 302.801 169.293 302.127 169.293C300.916 169.293 300.003 168.927 299.388 168.194C298.772 167.462 298.465 166.422 298.465 165.074V155.245H295.579V153.15H298.465V149.312H301.175Z" fill="black"/>
</g>
<defs>
<filter id="filter0_d" x="0" y="7" width="375" height="431" filterUnits="userSpaceOnUse" color-interpolation-filters="sRGB">
<feFlood flood-opacity="0" result="BackgroundImageFix"/>
<feColorMatrix in="SourceAlpha" type="matrix" values="0 0 0 0 0 0 0 0 0 0 0 0 0 0 0 0 0 0 127 0"/>
<feOffset dy="4"/>
<feGaussianBlur stdDeviation="2"/>
<feColorMatrix type="matrix" values="0 0 0 0 0 0 0 0 0 0 0 0 0 0 0 0 0 0 0.25 0"/>
<feBlend mode="normal" in2="BackgroundImageFix" result="effect1_dropShadow"/>
<feBlend mode="normal" in="SourceGraphic" in2="effect1_dropShadow" result="shape"/>
</filter>
<clipPath id="clip0">
<rect width="28.2308" height="27.3491" fill="white" transform="translate(321.663 27.2119)"/>
</clipPath>
</defs>
</svg>
