<svg width="277" height="189" viewBox="0 0 277 189" fill="none" xmlns="http://www.w3.org/2000/svg">
<g opacity="0.8">
<g filter="url(#filter0_d)">
<rect x="24" y="12" width="230" height="118" fill="#DDDDDD"/>
</g>
<line x1="24" y1="70.5" x2="254" y2="70.5" stroke="black"/>
<line x1="24" y1="11.5" x2="254" y2="11.5" stroke="black"/>
<path d="M80.8408 45.0195H72.772L70.9409 50H69.3662L76.0923 32.2266H77.5205L84.2466 50H82.6841L80.8408 45.0195ZM73.2358 43.7378H80.3647L76.8003 34.0576L73.2358 43.7378ZM85.9434 43.2739C85.9434 41.2231 86.3991 39.5915 87.3105 38.3789C88.2301 37.1582 89.4753 36.5479 91.0459 36.5479C92.8281 36.5479 94.1872 37.2518 95.123 38.6597V31.25H96.5757V50H95.2085L95.1475 48.2422C94.2116 49.5768 92.8363 50.2441 91.0215 50.2441C89.4997 50.2441 88.2708 49.6338 87.335 48.4131C86.4072 47.1842 85.9434 45.5282 85.9434 43.4448V43.2739ZM87.4204 43.5303C87.4204 45.2148 87.7581 46.5454 88.4336 47.522C89.109 48.4904 90.0612 48.9746 91.29 48.9746C93.0885 48.9746 94.3662 48.1812 95.123 46.5942V40.3931C94.3662 38.6759 93.0967 37.8174 91.3145 37.8174C90.0856 37.8174 89.1294 38.3016 88.4458 39.27C87.7622 40.2303 87.4204 41.6504 87.4204 43.5303ZM99.835 43.2739C99.835 41.2231 100.291 39.5915 101.202 38.3789C102.122 37.1582 103.367 36.5479 104.938 36.5479C106.72 36.5479 108.079 37.2518 109.015 38.6597V31.25H110.467V50H109.1L109.039 48.2422C108.103 49.5768 106.728 50.2441 104.913 50.2441C103.391 50.2441 102.162 49.6338 101.227 48.4131C100.299 47.1842 99.835 45.5282 99.835 43.4448V43.2739ZM101.312 43.5303C101.312 45.2148 101.65 46.5454 102.325 47.522C103.001 48.4904 103.953 48.9746 105.182 48.9746C106.98 48.9746 108.258 48.1812 109.015 46.5942V40.3931C108.258 38.6759 106.988 37.8174 105.206 37.8174C103.977 37.8174 103.021 38.3016 102.337 39.27C101.654 40.2303 101.312 41.6504 101.312 43.5303ZM121.783 36.792L121.832 39.0503C122.328 38.2365 122.947 37.618 123.688 37.1948C124.428 36.7635 125.246 36.5479 126.141 36.5479C127.557 36.5479 128.611 36.9466 129.303 37.7441C129.994 38.5417 130.344 39.738 130.353 41.333V50H128.9V41.3208C128.892 40.1408 128.639 39.2619 128.143 38.6841C127.655 38.1063 126.869 37.8174 125.787 37.8174C124.884 37.8174 124.082 38.1022 123.382 38.6719C122.691 39.2334 122.178 39.9943 121.844 40.9546V50H120.392V36.792H121.783ZM139.251 50.2441C138.128 50.2441 137.111 49.9674 136.2 49.4141C135.296 48.8607 134.592 48.0916 134.088 47.1069C133.583 46.1141 133.331 45.0033 133.331 43.7744V43.2495C133.331 41.98 133.575 40.8366 134.063 39.8193C134.56 38.8021 135.248 38.0046 136.126 37.4268C137.005 36.8408 137.958 36.5479 138.983 36.5479C140.586 36.5479 141.856 37.0972 142.792 38.1958C143.736 39.2863 144.208 40.7796 144.208 42.6758V43.4937H134.784V43.7744C134.784 45.2718 135.211 46.521 136.065 47.522C136.928 48.5148 138.01 49.0112 139.312 49.0112C140.094 49.0112 140.781 48.8688 141.375 48.584C141.978 48.2992 142.523 47.8434 143.011 47.2168L143.927 47.9126C142.853 49.467 141.294 50.2441 139.251 50.2441ZM138.983 37.793C137.884 37.793 136.957 38.1958 136.2 39.0015C135.451 39.8071 134.995 40.8895 134.833 42.2485H142.755V42.0898C142.714 40.8203 142.352 39.7868 141.668 38.9893C140.985 38.1917 140.09 37.793 138.983 37.793ZM150.213 46.9604L150.433 48.0957L150.726 46.8994L153.9 36.792H155.145L158.282 46.814L158.624 48.2056L158.905 46.9238L161.615 36.792H163.128L159.283 50H158.038L154.645 39.5264L154.486 38.8062L154.327 39.5386L150.995 50H149.75L145.917 36.792H147.418L150.213 46.9604ZM173.37 36.792L173.419 39.0503C173.915 38.2365 174.534 37.618 175.274 37.1948C176.015 36.7635 176.833 36.5479 177.728 36.5479C179.144 36.5479 180.198 36.9466 180.89 37.7441C181.581 38.5417 181.931 39.738 181.939 41.333V50H180.487V41.3208C180.479 40.1408 180.226 39.2619 179.73 38.6841C179.242 38.1063 178.456 37.8174 177.374 37.8174C176.471 37.8174 175.669 38.1022 174.969 38.6719C174.278 39.2334 173.765 39.9943 173.431 40.9546V50H171.979V36.792H173.37ZM184.918 43.2007C184.918 41.9312 185.162 40.7878 185.65 39.7705C186.147 38.7533 186.843 37.9639 187.738 37.4023C188.641 36.8327 189.662 36.5479 190.802 36.5479C192.56 36.5479 193.984 37.1663 195.074 38.4033C196.165 39.6322 196.71 41.2638 196.71 43.2983V43.6035C196.71 44.8812 196.462 46.0327 195.965 47.0581C195.477 48.0754 194.785 48.8607 193.89 49.4141C192.995 49.9674 191.974 50.2441 190.826 50.2441C189.076 50.2441 187.652 49.6297 186.554 48.4009C185.463 47.1639 184.918 45.5282 184.918 43.4937V43.2007ZM186.383 43.6035C186.383 45.1823 186.79 46.4803 187.604 47.4976C188.425 48.5067 189.5 49.0112 190.826 49.0112C192.145 49.0112 193.211 48.5067 194.024 47.4976C194.846 46.4803 195.257 45.1416 195.257 43.4814V43.2007C195.257 42.1916 195.07 41.2679 194.696 40.4297C194.321 39.5915 193.797 38.9445 193.121 38.4888C192.446 38.0249 191.673 37.793 190.802 37.793C189.5 37.793 188.438 38.3057 187.616 39.3311C186.794 40.3483 186.383 41.6829 186.383 43.335V43.6035ZM202.008 33.4106V36.792H204.742V37.9883L202.008 37.9883V46.7896C202.008 47.522 202.138 48.0672 202.398 48.4253C202.667 48.7834 203.111 48.9624 203.729 48.9624C203.973 48.9624 204.368 48.9217 204.913 48.8403L204.974 50.0366C204.592 50.175 204.071 50.2441 203.412 50.2441C202.411 50.2441 201.682 49.9552 201.227 49.3774C200.771 48.7915 200.543 47.9329 200.543 46.8018V37.9883H198.114V36.792H200.543V33.4106L202.008 33.4106ZM212.884 50.2441C211.761 50.2441 210.744 49.9674 209.833 49.4141C208.929 48.8607 208.225 48.0916 207.721 47.1069C207.216 46.1141 206.964 45.0033 206.964 43.7744V43.2495C206.964 41.98 207.208 40.8366 207.696 39.8193C208.193 38.8021 208.88 38.0046 209.759 37.4268C210.638 36.8408 211.59 36.5479 212.616 36.5479C214.219 36.5479 215.488 37.0972 216.424 38.1958C217.368 39.2863 217.84 40.7796 217.84 42.6758V43.4937H208.417V43.7744C208.417 45.2718 208.844 46.521 209.698 47.522C210.561 48.5148 211.643 49.0112 212.945 49.0112C213.727 49.0112 214.414 48.8688 215.008 48.584C215.611 48.2992 216.156 47.8434 216.644 47.2168L217.56 47.9126C216.485 49.467 214.927 50.2441 212.884 50.2441ZM212.616 37.793C211.517 37.793 210.589 38.1958 209.833 39.0015C209.084 39.8071 208.628 40.8895 208.465 42.2485H216.388V42.0898C216.347 40.8203 215.985 39.7868 215.301 38.9893C214.618 38.1917 213.722 37.793 212.616 37.793Z" fill="#121212"/>
<path d="M88.8408 104.02H80.772L78.9409 109H77.3662L84.0923 91.2266H85.5205L92.2466 109H90.6841L88.8408 104.02ZM81.2358 102.738H88.3647L84.8003 93.0576L81.2358 102.738ZM93.9434 102.274C93.9434 100.223 94.3991 98.5915 95.3105 97.3789C96.2301 96.1582 97.4753 95.5479 99.0459 95.5479C100.828 95.5479 102.187 96.2518 103.123 97.6597V90.25H104.576V109H103.208L103.147 107.242C102.212 108.577 100.836 109.244 99.0215 109.244C97.4997 109.244 96.2708 108.634 95.335 107.413C94.4072 106.184 93.9434 104.528 93.9434 102.445V102.274ZM95.4204 102.53C95.4204 104.215 95.7581 105.545 96.4336 106.522C97.109 107.49 98.0612 107.975 99.29 107.975C101.089 107.975 102.366 107.181 103.123 105.594V99.3931C102.366 97.6759 101.097 96.8174 99.3145 96.8174C98.0856 96.8174 97.1294 97.3016 96.4458 98.27C95.7622 99.2303 95.4204 100.65 95.4204 102.53ZM107.835 102.274C107.835 100.223 108.291 98.5915 109.202 97.3789C110.122 96.1582 111.367 95.5479 112.938 95.5479C114.72 95.5479 116.079 96.2518 117.015 97.6597V90.25H118.467V109H117.1L117.039 107.242C116.103 108.577 114.728 109.244 112.913 109.244C111.391 109.244 110.162 108.634 109.227 107.413C108.299 106.184 107.835 104.528 107.835 102.445V102.274ZM109.312 102.53C109.312 104.215 109.65 105.545 110.325 106.522C111.001 107.49 111.953 107.975 113.182 107.975C114.98 107.975 116.258 107.181 117.015 105.594V99.3931C116.258 97.6759 114.988 96.8174 113.206 96.8174C111.977 96.8174 111.021 97.3016 110.337 98.27C109.654 99.2303 109.312 100.65 109.312 102.53ZM129.783 95.792L129.832 98.0503C130.328 97.2365 130.947 96.618 131.688 96.1948C132.428 95.7635 133.246 95.5479 134.141 95.5479C135.557 95.5479 136.611 95.9466 137.303 96.7441C137.994 97.5417 138.344 98.738 138.353 100.333V109H136.9V100.321C136.892 99.1408 136.639 98.2619 136.143 97.6841C135.655 97.1063 134.869 96.8174 133.787 96.8174C132.884 96.8174 132.082 97.1022 131.382 97.6719C130.691 98.2334 130.178 98.9943 129.844 99.9546V109H128.392V95.792H129.783ZM147.251 109.244C146.128 109.244 145.111 108.967 144.2 108.414C143.296 107.861 142.592 107.092 142.088 106.107C141.583 105.114 141.331 104.003 141.331 102.774V102.25C141.331 100.98 141.575 99.8366 142.063 98.8193C142.56 97.8021 143.248 97.0046 144.126 96.4268C145.005 95.8408 145.958 95.5479 146.983 95.5479C148.586 95.5479 149.856 96.0972 150.792 97.1958C151.736 98.2863 152.208 99.7796 152.208 101.676V102.494H142.784V102.774C142.784 104.272 143.211 105.521 144.065 106.522C144.928 107.515 146.01 108.011 147.312 108.011C148.094 108.011 148.781 107.869 149.375 107.584C149.978 107.299 150.523 106.843 151.011 106.217L151.927 106.913C150.853 108.467 149.294 109.244 147.251 109.244ZM146.983 96.793C145.884 96.793 144.957 97.1958 144.2 98.0015C143.451 98.8071 142.995 99.8895 142.833 101.249H150.755V101.09C150.714 99.8203 150.352 98.7868 149.668 97.9893C148.985 97.1917 148.09 96.793 146.983 96.793ZM158.213 105.96L158.433 107.096L158.726 105.899L161.9 95.792L163.145 95.792L166.282 105.814L166.624 107.206L166.905 105.924L169.615 95.792H171.128L167.283 109H166.038L162.645 98.5264L162.486 97.8062L162.327 98.5386L158.995 109H157.75L153.917 95.792H155.418L158.213 105.96ZM181.614 109H180.149V90.25H181.614V109ZM187.229 109H185.765V95.792H187.229V109ZM185.508 91.9712C185.508 91.6945 185.598 91.4626 185.777 91.2754C185.956 91.0801 186.2 90.9824 186.509 90.9824C186.819 90.9824 187.063 91.0801 187.242 91.2754C187.429 91.4626 187.522 91.6945 187.522 91.9712C187.522 92.2479 187.429 92.4798 187.242 92.667C187.063 92.8542 186.819 92.9478 186.509 92.9478C186.2 92.9478 185.956 92.8542 185.777 92.667C185.598 92.4798 185.508 92.2479 185.508 91.9712ZM199.119 105.643C199.119 104.919 198.826 104.337 198.24 103.897C197.662 103.458 196.788 103.116 195.616 102.872C194.444 102.62 193.532 102.335 192.881 102.018C192.238 101.692 191.758 101.297 191.441 100.833C191.132 100.37 190.977 99.8081 190.977 99.1489C190.977 98.1073 191.412 97.2487 192.283 96.5732C193.154 95.8896 194.269 95.5479 195.628 95.5479C197.101 95.5479 198.281 95.9141 199.168 96.6465C200.063 97.3708 200.511 98.3188 200.511 99.4907H199.046C199.046 98.7176 198.72 98.0747 198.069 97.562C197.426 97.0493 196.613 96.793 195.628 96.793C194.668 96.793 193.895 97.0086 193.309 97.4399C192.731 97.8631 192.442 98.4165 192.442 99.1001C192.442 99.7593 192.682 100.272 193.162 100.638C193.65 100.996 194.533 101.326 195.811 101.627C197.097 101.928 198.057 102.25 198.692 102.591C199.335 102.933 199.811 103.344 200.12 103.824C200.429 104.304 200.584 104.886 200.584 105.57C200.584 106.685 200.132 107.576 199.229 108.243C198.334 108.91 197.162 109.244 195.713 109.244C194.175 109.244 192.926 108.874 191.966 108.133C191.014 107.385 190.538 106.441 190.538 105.301H192.002C192.059 106.156 192.417 106.823 193.077 107.303C193.744 107.775 194.623 108.011 195.713 108.011C196.731 108.011 197.553 107.787 198.179 107.34C198.806 106.892 199.119 106.327 199.119 105.643ZM206.15 92.4106V95.792H208.885V96.9883H206.15V105.79C206.15 106.522 206.281 107.067 206.541 107.425C206.81 107.783 207.253 107.962 207.872 107.962C208.116 107.962 208.51 107.922 209.056 107.84L209.117 109.037C208.734 109.175 208.213 109.244 207.554 109.244C206.553 109.244 205.825 108.955 205.369 108.377C204.913 107.792 204.686 106.933 204.686 105.802V96.9883H202.256V95.792H204.686V92.4106H206.15Z" fill="#121212"/>
<path fill-rule="evenodd" clip-rule="evenodd" d="M12 1.03491C16.4 1.03491 19.96 4.57491 20 8.96491L20 14.9649C20 19.3849 16.42 22.9649 12 22.9649C7.58 22.9649 4 19.3849 4 14.9649L4 8.96491C4.04 4.57491 7.6 1.03491 12 1.03491ZM13 8.96491L18 8.96491C17.96 6.02491 15.81 3.59491 13 3.12491L13 8.96491ZM11 3.12491L11 8.96491L6.00003 8.96491C6.04003 6.02491 8.19003 3.59491 11 3.12491ZM12 20.9649C15.31 20.9649 18 18.2749 18 14.9649L18 10.9649L6.00003 10.9649L6.00003 14.9649C6.00003 18.2749 8.69003 20.9649 12 20.9649Z" fill="#121212"/>
</g>
<defs>
<filter id="filter0_d" x="20" y="12" width="238" height="126" filterUnits="userSpaceOnUse" color-interpolation-filters="sRGB">
<feFlood flood-opacity="0" result="BackgroundImageFix"/>
<feColorMatrix in="SourceAlpha" type="matrix" values="0 0 0 0 0 0 0 0 0 0 0 0 0 0 0 0 0 0 127 0"/>
<feOffset dy="4"/>
<feGaussianBlur stdDeviation="2"/>
<feColorMatrix type="matrix" values="0 0 0 0 0 0 0 0 0 0 0 0 0 0 0 0 0 0 0.25 0"/>
<feBlend mode="normal" in2="BackgroundImageFix" result="effect1_dropShadow"/>
<feBlend mode="normal" in="SourceGraphic" in2="effect1_dropShadow" result="shape"/>
</filter>
</defs>
</svg>
